<?xml version="1.0" standalone="no"?>
<!DOCTYPE svg PUBLIC "-//W3C//DTD SVG 1.1//EN" "http://www.w3.org/Graphics/SVG/1.1/DTD/svg11.dtd" >
<svg xmlns="http://www.w3.org/2000/svg">
<metadata>
This is a custom SVG webfont generated by Font Squirrel.
Copyright   : Copyright c 2007 by Prinya R nont All rights reserved
Designer    : Prinya Rojarayanont
Foundry     : Prinya R nont
Foundry URL : httpwwwdbfontsbiz
</metadata>
<defs>
<font id="DBOzoneXMedium" horiz-adv-x="0" >
<font-face units-per-em="2048" ascent="1638" descent="-410" />
<missing-glyph horiz-adv-x="428" />
<glyph unicode="&#x2b;&#x2d;" horiz-adv-x="845" d="M117 0v139h663v-139h-663zM117 459v137h258v262h147v-262h258v-137h-258v-262h-147v262h-258z" />
<glyph unicode="&#x2e;&#x2e;&#x2e;" horiz-adv-x="1202" d="M104 90q0 45 30 76t75 31q47 0 76.5 -31t29.5 -76t-29.5 -75.5t-76.5 -30.5q-45 0 -75 30.5t-30 75.5zM496 90q0 45 29.5 76t74.5 31t76 -31t31 -76t-31 -75.5t-76 -30.5t-74.5 30.5t-29.5 75.5zM885 90q0 45 30.5 76t75.5 31t76 -31t31 -76t-31 -75.5t-76 -30.5 t-75.5 30.5t-30.5 75.5z" />
<glyph unicode="&#x3c;&#x3d;" horiz-adv-x="884" d="M78 4v146h731v-146h-731zM78 508v121l731 284v-159l-490 -185l490 -184v-160z" />
<glyph unicode="&#x3e;&#x3d;" horiz-adv-x="884" d="M78 4h731v146h-731v-146zM78 225v160l487 184l-487 185v159l731 -284v-121z" />
<glyph unicode=" "  horiz-adv-x="428" />
<glyph unicode="&#x09;" horiz-adv-x="428" />
<glyph unicode="&#xa0;" horiz-adv-x="428" />
<glyph unicode="!" horiz-adv-x="491" d="M174 84q0 41 27.5 68.5t68.5 27.5t69 -27.5t28 -68.5t-28 -68.5t-69 -27.5t-68.5 27.5t-27.5 68.5zM178 1034h182l-24 -706h-131z" />
<glyph unicode="&#x22;" horiz-adv-x="657" d="M111 766v295h155v-295h-155zM391 766v295h156v-295h-156z" />
<glyph unicode="#" horiz-adv-x="1005" d="M96 299v147h137l27 168h-117v146h140l43 270h168l-43 -270h182l43 270h166l-43 -270h110v-146h-133l-26 -168h110v-147h-137l-45 -299h-166l47 299h-184l-45 -299h-168l47 299h-113zM401 446h183l26 168h-182z" />
<glyph unicode="$" horiz-adv-x="847" d="M18 127l113 113q55 -55 110.5 -77t125.5 -26v309q-10 0 -18.5 2.5t-14.5 2.5q-57 8 -108.5 29.5t-89.5 57t-59.5 86t-21.5 111.5q0 125 78 208t217 99v129h131v-129q86 -6 152.5 -34.5t126.5 -87.5l-109 -105q-80 72 -184 80v-303l45 -4q123 -18 202 -86t79 -209 q0 -129 -85 -208t-227 -95v-162h-131v156q-102 6 -181 38.5t-151 104.5zM219 741q0 -63 44 -95t104 -42v289q-74 -10 -111 -51.5t-37 -100.5zM467 141q78 8 119 47t41 101q0 72 -44 103.5t-116 41.5v-293z" />
<glyph unicode="%" horiz-adv-x="1208" d="M74 694v144q0 98 59.5 151t147.5 53q90 0 150.5 -53t60.5 -151v-144q0 -96 -60.5 -148t-150.5 -52q-88 0 -147.5 52t-59.5 148zM197 698q0 -96 84 -96q45 0 66.5 25.5t21.5 70.5v136q0 96 -88 96q-84 0 -84 -96v-136zM291 0l493 1030h131l-491 -1030h-133zM719 195v141 q0 98 59.5 150.5t147.5 52.5t148.5 -52.5t60.5 -150.5v-141q0 -98 -60.5 -152.5t-148.5 -54.5t-147.5 54.5t-59.5 152.5zM842 199q0 -98 84 -99q43 0 64.5 26t21.5 73v133q0 47 -21.5 72.5t-64.5 25.5t-63.5 -25.5t-20.5 -72.5v-133z" />
<glyph unicode="&#x26;" horiz-adv-x="1095" d="M100 305q0 53 17.5 96t45 78t64.5 62.5l74 52.5q-35 41 -68.5 95t-33.5 126q0 100 68.5 167t187.5 67q113 0 181.5 -67t68.5 -169q0 -66 -31 -108.5t-80 -77.5l-27 -19q-10 -8 -22.5 -16l-22.5 -14l104 -124l103 -124q27 39 38 85t13 117h152q-4 -100 -25.5 -179 t-75.5 -144l179 -209h-203l-84 98l-44 -32q-26 -18 -60.5 -36t-79.5 -29t-101 -11q-164 0 -251 85t-87 230zM258 305q0 -72 51 -120t129 -48q53 0 97.5 15.5t91.5 56.5l-238 287l-50 -40q-24 -19 -42 -41t-28.5 -48.5t-10.5 -61.5zM358 813q0 -31 18.5 -60.5t55.5 -70.5 q6 4 13.5 8l15.5 8q8 6 18 11q29 20 51.5 44.5t22.5 59.5q0 41 -28.5 69.5t-69.5 28.5q-45 0 -71 -28.5t-26 -69.5z" />
<glyph unicode="'" horiz-adv-x="407" d="M125 766v295h156v-295h-156z" />
<glyph unicode="(" horiz-adv-x="456" d="M117 180v768q0 102 39 176t123 152l106 -105l-45 -50q-20 -24 -34.5 -50.5t-23 -58t-8.5 -70.5v-752q0 -76 27 -124t84 -105l-106 -106q-35 35 -65 68.5t-51.5 72.5t-33.5 83t-12 101z" />
<glyph unicode=")" horiz-adv-x="456" d="M68 -39q57 57 82.5 105.5t25.5 123.5v752q0 39 -8 70.5t-21.5 58.5t-33.5 50l-45 50l106 105q84 -78 123 -151.5t39 -176.5v-768q0 -57 -12.5 -101t-34 -83t-51 -73t-64.5 -68z" />
<glyph unicode="*" horiz-adv-x="753" d="M98 672l176 94l-176 94l56 101l172 -107l-7 201h115l-4 -201l170 107l57 -101l-178 -94l178 -94l-57 -101l-170 107l4 -203h-115l7 203l-172 -107z" />
<glyph unicode="+" horiz-adv-x="897" d="M117 350v148h258v256h147v-256h258v-148h-258v-258h-147v258h-258z" />
<glyph unicode="," horiz-adv-x="415" d="M119 178h180v-270l-180 -148v418z" />
<glyph unicode="-" horiz-adv-x="688" d="M119 350v148h448v-148h-448z" />
<glyph unicode="." horiz-adv-x="425" d="M109 94q0 45 29.5 76t74.5 31t75.5 -31t30.5 -76t-30.5 -75.5t-75.5 -30.5t-74.5 30.5t-29.5 75.5z" />
<glyph unicode="/" horiz-adv-x="561" d="M-18 -113l448 1356h150l-449 -1356h-149z" />
<glyph unicode="0" horiz-adv-x="768" d="M78 289v454q0 70 23.5 125.5t65.5 93t97 58t119 20.5q63 0 119.5 -20.5t97.5 -58t65.5 -93t24.5 -125.5v-454q0 -70 -24.5 -125t-65.5 -94t-97.5 -59.5t-119.5 -20.5t-118.5 20.5t-97.5 59.5t-65.5 94t-23.5 125zM238 297q0 -74 38.5 -119t106.5 -45q70 0 107.5 45 t37.5 119v442q0 70 -37.5 115t-107.5 45q-68 0 -106.5 -45t-38.5 -115v-442z" />
<glyph unicode="1" horiz-adv-x="768" d="M158 680v174l207 176h155v-1030h-160v852z" />
<glyph unicode="2" horiz-adv-x="768" d="M82 0v137l399 481q29 31 41.5 63t12.5 71q0 66 -38 106.5t-108 40.5q-55 0 -102 -36t-47 -120h-158q0 135 86 216t221 81q137 0 223 -77.5t86 -212.5q0 -63 -27.5 -115.5t-74.5 -108.5l-159 -193l-158 -192h419v-141h-616z" />
<glyph unicode="3" horiz-adv-x="768" d="M45 285h160q4 -82 53 -118t111 -36q70 0 116.5 43t46.5 121q0 76 -40.5 118t-126.5 42h-31v141h31q78 0 114.5 41t36.5 111q0 72 -44 110.5t-103 38.5q-63 0 -104.5 -39t-45.5 -104h-162q2 68 28 121t67 89.5t96 56t121 19.5q68 0 124 -20.5t97 -59t63.5 -92t22.5 -116.5 q0 -78 -34 -133.5t-87 -86.5q66 -29 102.5 -88t36.5 -153q0 -76 -25.5 -133.5t-70.5 -95t-103.5 -57t-125.5 -19.5q-63 0 -121 17t-103 54t-71.5 93.5t-28.5 134.5z" />
<glyph unicode="4" horiz-adv-x="768" d="M35 152v147l371 731h172l-365 -727h244v238h155v-238h113v-151h-113v-152h-155v152h-422z" />
<glyph unicode="5" horiz-adv-x="768" d="M82 274h158q10 -68 44.5 -104.5t100.5 -36.5q31 0 58.5 9.5t48.5 29.5q31 31 39 77t8 97q0 45 -6.5 83t-23.5 66.5t-46 45t-72 16.5q-59 0 -96 -27.5t-47 -66.5h-144v567h570v-139h-426v-252q29 23 70.5 37t95.5 14q80 0 135 -28.5t89 -76.5t48 -110.5t14 -128.5 q0 -74 -17 -139.5t-54 -113.5t-97.5 -76.5t-146.5 -28.5q-141 0 -220 78.5t-83 207.5z" />
<glyph unicode="6" horiz-adv-x="768" d="M53 317q0 66 23.5 130.5t58.5 136.5l225 446h183l-205 -401q18 6 38.5 8t41.5 2q61 0 114.5 -21.5t94.5 -62.5t64.5 -99.5t23.5 -129.5q0 -78 -24.5 -139.5t-68.5 -105.5t-105.5 -67.5t-133.5 -23.5q-145 0 -237.5 86.5t-92.5 240.5zM215 322q0 -86 48 -135.5t120 -49.5 t120 49.5t48 135.5q0 74 -46 125t-122 51q-72 0 -120 -46t-48 -130z" />
<glyph unicode="7" horiz-adv-x="768" d="M74 729v301h631v-135l-351 -895h-172l350 891h-305v-162h-153z" />
<glyph unicode="8" horiz-adv-x="768" d="M57 297q0 86 42 145.5t94 92.5q-47 29 -83 84t-36 135q0 66 24.5 119t65.5 89.5t97 57t122 20.5t122 -20.5t98 -57t66.5 -90t24.5 -118.5q0 -80 -35.5 -135.5t-83.5 -83.5q51 -33 93.5 -92.5t42.5 -145.5q0 -72 -26 -128t-70 -96t-104 -61.5t-128 -21.5t-127 21.5 t-103 61.5t-70 96t-26 128zM219 297q0 -68 47 -116t117 -48q72 0 119 48t47 116t-47 116t-119 48q-70 0 -117 -48t-47 -116zM233 750q0 -68 42 -109t108 -41q68 0 108.5 41t40.5 109q0 61 -40.5 105t-108.5 44q-66 0 -108 -44t-42 -105z" />
<glyph unicode="9" horiz-adv-x="768" d="M53 705q0 76 24.5 138t68.5 106t104.5 67.5t132.5 23.5t133.5 -22.5t105.5 -65.5t68.5 -103.5t24.5 -135.5q0 -66 -23.5 -130.5t-58.5 -136.5l-225 -446h-185l207 401q-18 -6 -38.5 -8t-41.5 -2q-61 0 -114.5 21.5t-94.5 62.5t-64.5 99.5t-23.5 130.5zM217 709 q0 -74 46 -126.5t122 -52.5q72 0 120 46.5t48 132.5q0 84 -48 134t-120 50t-120 -50t-48 -134z" />
<glyph unicode=":" horiz-adv-x="471" d="M152 94q0 45 30.5 76t75.5 31t76 -31t31 -76t-31 -75.5t-76 -30.5t-75.5 30.5t-30.5 75.5zM152 571q0 45 30.5 76t75.5 31t76 -31t31 -76t-31 -75.5t-76 -30.5t-75.5 30.5t-30.5 75.5z" />
<glyph unicode=";" horiz-adv-x="471" d="M150 571q0 45 30.5 76t75.5 31t75.5 -31t30.5 -76t-30.5 -75.5t-75.5 -30.5t-75.5 30.5t-30.5 75.5zM166 178h178v-270l-178 -148v418z" />
<glyph unicode="&#x3c;" horiz-adv-x="884" d="M78 412v120l731 285v-160l-490 -184l245 -93l245 -91v-160z" />
<glyph unicode="=" horiz-adv-x="847" d="M92 201v145h662v-145h-662zM92 500v147h662v-147h-662z" />
<glyph unicode="&#x3e;" horiz-adv-x="884" d="M78 129v160l244 91l243 93l-487 184v160l731 -285v-120z" />
<glyph unicode="?" horiz-adv-x="745" d="M82 756q0 63 22.5 116.5t61.5 91t92 58t115 20.5q59 0 112.5 -19t93 -55t63.5 -87.5t24 -116.5q0 -53 -20.5 -96t-49.5 -84l-111 -156q-12 -16 -17 -36.5t-5 -37.5v-49h-160v57q0 45 11.5 77t37.5 69l115 149q16 25 28.5 51.5t12.5 55.5q0 57 -38 98t-97 41 q-66 0 -99.5 -44t-33.5 -103h-158zM283 84q0 41 27.5 68.5t68.5 27.5t68.5 -27.5t27.5 -68.5t-27.5 -68.5t-68.5 -27.5t-68.5 27.5t-27.5 68.5z" />
<glyph unicode="@" horiz-adv-x="1282" d="M90 514q2 119 48 220.5t122 177t178.5 118.5t218.5 43q119 0 218.5 -40t171 -112.5t109.5 -172t36 -216.5q-2 -61 -21.5 -122.5t-57.5 -111.5t-94 -82t-132 -32q-49 0 -84 18.5t-55 51.5q-49 -41 -96.5 -55.5t-92.5 -14.5q-66 0 -111 31t-71.5 79t-34.5 107.5t2 116.5 q12 68 37 127.5t63.5 104.5t92 71.5t122.5 26.5q84 0 140 -43l6 26h135l-78 -432q-2 -12 -4 -28.5t0 -31.5t10.5 -25.5t28.5 -10.5q39 0 68.5 21.5t49 54.5t31 74t13.5 79q2 86 -26.5 161t-83 130.5t-129.5 87t-163 31.5q-84 0 -159.5 -34t-133 -92t-92 -136t-36.5 -166 q-2 -94 29.5 -172t87 -134t128 -88t150.5 -32q70 0 149.5 19.5t145.5 66.5l86 -98q-86 -66 -187.5 -91.5t-193.5 -25.5q-119 0 -219.5 43t-173 118t-112.5 176t-36 218zM479 446.5q-2 -34.5 5.5 -66.5t27.5 -54.5t61 -22.5q43 0 74 18.5t51.5 49t32.5 68.5t19 79 q4 27 7 63.5t-4.5 69.5t-29 55.5t-64.5 22.5q-41 0 -70.5 -20.5t-51 -53t-33.5 -71.5t-19 -76q-4 -27 -6 -61.5z" />
<glyph unicode="A" horiz-adv-x="894" d="M0 0l381 1030h133l381 -1030h-178l-72 205h-397l-72 -205h-176zM297 348h301l-147 428z" />
<glyph unicode="B" horiz-adv-x="960" d="M143 0v1030h385q147 0 232.5 -75.5t85.5 -206.5q0 -80 -40 -136.5t-89 -83.5q55 -25 99 -83t44 -152q0 -145 -87 -219t-228 -74h-402zM309 150h221q78 0 120 43t42 108q0 66 -42 107t-120 41h-221v-299zM309 598h207q72 0 118 37t46 104q0 70 -46 106t-118 36h-207v-283z " />
<glyph unicode="C" horiz-adv-x="909" d="M100 514q0 74 2 133.5t12.5 109.5t30 92t56.5 79q53 53 122.5 82.5t147.5 29.5q141 0 242.5 -84t130.5 -241h-172q-18 78 -67.5 125t-133.5 47q-43 0 -82 -14.5t-61 -43.5q-18 -18 -30.5 -41.5t-20 -58.5t-9.5 -87t-2 -128t2 -126t9.5 -85t19.5 -58.5t31 -41.5 q23 -29 61.5 -45.5t81.5 -16.5q84 0 134 49.5t69 126.5h168q-27 -160 -128.5 -243.5t-242.5 -83.5q-80 0 -148.5 29.5t-121.5 82.5q-37 39 -57.5 80t-30 90.5t-11.5 108.5t-2 133z" />
<glyph unicode="D" horiz-adv-x="991" d="M143 0v1030h367q113 0 186.5 -37t114.5 -103.5t57.5 -159.5t16.5 -208q0 -98 -10.5 -192t-49.5 -168t-112.5 -118t-202.5 -44h-367zM309 150h185q78 0 123 30.5t67.5 81.5t28.5 119t6 141q0 63 -4 127t-25.5 115t-68 84t-127.5 33h-185v-731z" />
<glyph unicode="E" horiz-adv-x="866" d="M143 0v1030h670v-149h-504v-287h430v-150h-430v-294h504v-150h-670z" />
<glyph unicode="F" horiz-adv-x="808" d="M143 0v1030h645v-149h-479v-299h408v-150h-408v-432h-166z" />
<glyph unicode="G" horiz-adv-x="940" d="M96 514q0 74 2 133.5t12.5 109.5t30 92t56.5 79q53 53 121.5 82.5t148.5 29.5q82 0 147.5 -26.5t113.5 -70.5t78 -103.5t40 -126.5h-168q-20 84 -72.5 129t-138.5 45q-43 0 -82 -15.5t-61 -44.5q-18 -18 -30.5 -40.5t-19 -57.5t-9.5 -86t-3 -129q0 -76 3 -127t9.5 -86 t18.5 -57.5t31 -40.5q23 -29 61.5 -45.5t81.5 -16.5q51 0 93 18.5t69 51.5q29 31 40 71t11 87v51h-217v141h385v-160q0 -102 -21.5 -169.5t-72.5 -120.5q-59 -66 -131 -93.5t-156 -27.5q-80 0 -148.5 29.5t-121.5 82.5q-37 39 -57.5 80t-30 90.5t-11.5 108.5t-2 133z" />
<glyph unicode="H" horiz-adv-x="1026" d="M143 0v1030h166v-434h408v434h166v-1030h-166v444h-408v-444h-166z" />
<glyph unicode="I" horiz-adv-x="471" d="M152 0v1030h167v-1030h-167z" />
<glyph unicode="J" horiz-adv-x="712" d="M-23 96l111 111q29 -29 60.5 -47.5t87.5 -18.5q84 0 132 50.5t48 146.5v692h168v-702q0 -80 -27 -143.5t-74 -106.5t-110.5 -65.5t-136.5 -22.5q-82 0 -143 24.5t-116 81.5z" />
<glyph unicode="K" horiz-adv-x="942" d="M143 0v1030h166v-502l414 502h205l-338 -405l373 -625h-201l-287 498l-166 -199v-299h-166z" />
<glyph unicode="L" horiz-adv-x="802" d="M143 0v1030h166v-880h473v-150h-639z" />
<glyph unicode="M" horiz-adv-x="1202" d="M143 0v1030h150l311 -645l305 645h150v-1030h-166v659l-227 -475h-123l-234 475v-659h-166z" />
<glyph unicode="N" horiz-adv-x="1083" d="M143 0v1030h136l495 -723v723h166v-1030h-137l-494 721v-721h-166z" />
<glyph unicode="O" horiz-adv-x="944" d="M98 514q0 74 2 133.5t12.5 109.5t30 92t56.5 79q53 53 121.5 82.5t148.5 29.5q84 0 152.5 -29.5t121.5 -82.5q35 -37 55.5 -80t31 -93t12.5 -109.5t2 -131.5q0 -74 -1 -133t-10.5 -108.5t-30 -90.5t-59.5 -80q-53 -53 -120.5 -82.5t-153.5 -29.5q-82 0 -149.5 29.5 t-120.5 82.5q-37 39 -57.5 80t-30 90.5t-11.5 108.5t-2 133zM264 514q0 -76 2 -126t9.5 -85t18.5 -57.5t30 -42.5q25 -29 63.5 -45.5t81.5 -16.5q47 0 86 16.5t63 45.5q18 18 29.5 40.5t18 57.5t8.5 86t2 127t-2 128t-8.5 87t-17.5 57.5t-30 40.5q-25 29 -63.5 44.5 t-85.5 15.5q-43 0 -82 -15.5t-63 -44.5q-18 -18 -29.5 -40.5t-19 -57.5t-9.5 -87t-2 -128z" />
<glyph unicode="P" horiz-adv-x="897" d="M143 0v1030h377q76 0 137.5 -23.5t105.5 -65.5t67.5 -99.5t23.5 -124.5q0 -139 -90 -227.5t-244 -88.5h-211v-401h-166zM309 553h201q78 0 127 43t49 121q0 76 -49 120t-127 44h-201v-328z" />
<glyph unicode="Q" horiz-adv-x="944" d="M98 514q0 74 2 133.5t12.5 109.5t30 92t56.5 79q53 53 121.5 82.5t148.5 29.5q84 0 152.5 -29.5t121.5 -82.5q35 -37 55.5 -80t31 -93t12.5 -109.5t2 -131.5q0 -127 -7.5 -214t-58.5 -157l101 -96l-93 -94l-102 100q-45 -29 -100.5 -46t-114.5 -17q-82 0 -149.5 29.5 t-120.5 82.5q-37 39 -57.5 80t-30 90.5t-11.5 108.5t-2 133zM264 514q0 -76 2 -126t9.5 -85t18.5 -57.5t30 -42.5q25 -29 63.5 -45.5t81.5 -16.5q55 0 96 29l-104 104l92 95l96 -97q18 41 22.5 94.5t4.5 147.5q0 76 -2 128t-8.5 87t-17.5 57.5t-30 40.5q-25 29 -63.5 44.5 t-85.5 15.5q-43 0 -82 -15.5t-63 -44.5q-18 -18 -29.5 -40.5t-19 -57.5t-9.5 -87t-2 -128z" />
<glyph unicode="R" horiz-adv-x="958" d="M143 0v1030h404q74 0 134 -22.5t103 -62.5t65.5 -95t22.5 -123q0 -111 -57 -180.5t-145 -95.5l245 -451h-194l-225 430h-187v-430h-166zM309 571h226q76 0 123 41t47 113t-47.5 114t-122.5 42h-226v-310z" />
<glyph unicode="S" horiz-adv-x="806" d="M14 131l113 111q59 -59 121.5 -80t140.5 -21q98 0 152.5 40t54.5 112t-39 102.5t-108 38.5l-61 8l-60 9q-129 16 -204 84.5t-75 197.5q0 137 93.5 221t258.5 84q104 0 180 -27.5t146 -92.5l-106 -107q-47 47 -103.5 64.5t-120.5 17.5q-90 0 -136 -44t-46 -110 q0 -61 44 -93t106 -42l116 -16q135 -20 208 -88t73 -205q0 -72 -27.5 -128t-78 -96t-119 -60.5t-150.5 -20.5q-117 0 -206 31.5t-167 109.5z" />
<glyph unicode="T" horiz-adv-x="768" d="M16 881v149h738v-149h-287v-881h-166v881h-285z" />
<glyph unicode="U" horiz-adv-x="1007" d="M129 348v682h168v-674q0 -98 55.5 -156.5t149.5 -58.5t151.5 58.5t57.5 156.5v674h168v-682q0 -80 -29 -145.5t-79 -113.5t-119.5 -73.5t-149.5 -25.5t-148.5 25.5t-118 73.5t-78 113.5t-28.5 145.5z" />
<glyph unicode="V" horiz-adv-x="856" d="M20 1030h175l231 -725l236 725h174l-344 -1030h-130z" />
<glyph unicode="W" horiz-adv-x="1271" d="M16 1030h177l174 -713l204 713h131l205 -715l174 715h176l-270 -1030h-145l-205 698l-205 -698h-145z" />
<glyph unicode="X" horiz-adv-x="835" d="M2 0l324 528l-301 502h194l197 -360l200 360h195l-303 -502l326 -528h-197l-221 385l-217 -385h-197z" />
<glyph unicode="Y" horiz-adv-x="819" d="M14 1030h185l213 -438l209 438h184l-311 -604v-426h-168v426z" />
<glyph unicode="Z" horiz-adv-x="829" d="M80 0v143l467 738h-449v149h650v-135l-472 -745h472v-150h-668z" />
<glyph unicode="[" horiz-adv-x="466" d="M117 -113v1356h338v-139h-181v-1077h181v-140h-338z" />
<glyph unicode="\" horiz-adv-x="561" d="M-18 1239h151l449 -1352h-152z" />
<glyph unicode="]" horiz-adv-x="466" d="M14 27h179v1077h-179v139h336v-1356h-336v140z" />
<glyph unicode="^" horiz-adv-x="831" d="M80 561l264 488h145l263 -488h-162l-174 318l-174 -318h-162z" />
<glyph unicode="_" horiz-adv-x="829" d="M0 -174h829v-107h-829v107z" />
<glyph unicode="`" horiz-adv-x="806" d="M186 1057h166l152 -250h-137z" />
<glyph unicode="a" horiz-adv-x="784" d="M49 229q0 98 66.5 161t201.5 63h205v53q0 74 -39 110.5t-131 36.5q-66 0 -101.5 -17.5t-70.5 -57.5l-100 96q53 66 116.5 89t161.5 23q319 0 320 -266v-520h-152v80q-45 -47 -88 -68.5t-121 -21.5q-53 0 -102 14t-86 44t-58.5 75t-21.5 106zM201 231q0 -53 33.5 -81.5 t107.5 -28.5q80 0 128 41t52 127v53h-184q-137 0 -137 -111z" />
<glyph unicode="b" horiz-adv-x="829" d="M109 0v1126h159v-428q41 51 93.5 69.5t115.5 18.5q86 0 142.5 -32.5t88 -87t45 -126t13.5 -151.5q0 -72 -11.5 -143.5t-43 -128t-88 -92t-148.5 -35.5q-72 0 -120 23.5t-91 76.5v-90h-155zM268 389q0 -51 8.5 -98t27 -82t50 -56.5t80.5 -21.5q53 0 87 21.5t52.5 56.5 t25.5 82t7 98t-7 98.5t-25.5 83t-52.5 56t-87 20.5q-55 0 -88 -20.5t-50 -56t-22.5 -83t-5.5 -98.5z" />
<glyph unicode="c" horiz-adv-x="741" d="M84 389q0 109 29.5 184.5t78 122.5t111 68.5t129.5 21.5q80 0 140.5 -25.5t117.5 -82.5l-108 -105q-37 41 -70 57.5t-80 16.5q-53 0 -89 -21.5t-59.5 -57.5t-33.5 -83t-10 -96q0 -45 9 -91t30.5 -83t59.5 -60.5t93 -23.5q47 0 80 16.5t70 57.5l108 -103 q-57 -59 -117.5 -85.5t-140.5 -26.5q-68 0 -130 21.5t-110.5 68.5t-78 123.5t-29.5 185.5z" />
<glyph unicode="d" horiz-adv-x="829" d="M63 389q0 80 13.5 151.5t45.5 126t88 87t142 32.5q63 0 115.5 -18t95.5 -70v428h160v-1126h-158v90q-43 -53 -91 -76.5t-120 -23.5q-90 0 -147 35.5t-89 92t-43.5 128t-11.5 143.5zM223 389q0 -51 7.5 -98t25.5 -82t52 -56.5t89 -21.5q49 0 81 21.5t50.5 56.5t26.5 82 t8 98t-6 98.5t-23.5 83t-50 56t-86.5 20.5q-55 0 -89 -20.5t-52 -56t-25.5 -83t-7.5 -98.5z" />
<glyph unicode="e" horiz-adv-x="790" d="M61 389q0 190 90.5 293.5t243.5 103.5q78 0 140.5 -27.5t105.5 -76.5t65.5 -118.5t22.5 -151.5v-70h-512q0 -100 52.5 -158.5t148.5 -58.5q66 0 107.5 19.5t82.5 62.5l103 -94q-61 -59 -127 -91t-170 -32q-74 0 -138.5 20.5t-111.5 68.5t-75 123.5t-28 186.5zM217 453 h356q-2 37 -11 73.5t-28.5 66.5t-53.5 47t-85 17q-90 0 -133 -61t-45 -143z" />
<glyph unicode="f" horiz-adv-x="430" d="M25 657v121h88v131q0 43 13 82t38.5 69t66.5 48t97 18h98v-135h-70q-86 0 -86 -88v-125h156v-121h-156v-657h-157v657h-88z" />
<glyph unicode="g" horiz-adv-x="821" d="M63 401q0 70 11.5 139.5t42 124t87 88t146.5 33.5q63 0 114.5 -22.5t98.5 -75.5v90h152v-821q0 -72 -22.5 -131t-66.5 -102t-107.5 -68t-145.5 -25q-92 0 -156.5 22.5t-128.5 78.5l100 100q41 -35 81 -52.5t100 -17.5q51 0 87 16.5t58.5 44t32.5 63.5t10 75v119 q-45 -49 -96 -68.5t-113 -19.5q-86 0 -141 35.5t-87 94t-44.5 132t-12.5 147.5zM221 401q0 -45 6 -93t24.5 -87t52.5 -63.5t89 -24.5q49 0 81 24.5t50.5 63.5t25.5 87t7 93q0 47 -7 91.5t-25.5 79t-50.5 55t-81 20.5q-55 0 -89 -20.5t-52.5 -55t-24.5 -79t-6 -91.5z" />
<glyph unicode="h" horiz-adv-x="839" d="M111 0v1126h157v-428q82 88 199 88q131 0 200.5 -78.5t69.5 -207.5v-500h-155v477q0 88 -45 129t-111 41q-63 0 -110.5 -53t-47.5 -135v-459h-157z" />
<glyph unicode="i" horiz-adv-x="385" d="M96 1044q0 41 28 69t69 28t68.5 -28t27.5 -69t-28 -68.5t-68 -27.5q-41 0 -69 27.5t-28 68.5zM113 0v778h159v-778h-159z" />
<glyph unicode="j" horiz-adv-x="385" d="M-39 -184h70q47 0 64.5 22.5t17.5 67.5v872h159v-880q0 -86 -51 -150.5t-164 -64.5h-96v133zM96 1044q0 41 28 69t69 28t68.5 -28t27.5 -69t-28 -68.5t-68 -27.5q-41 0 -69 27.5t-28 68.5z" />
<glyph unicode="k" horiz-adv-x="788" d="M111 0v1126h157v-708l299 360h191l-269 -307l304 -471h-195l-217 358l-113 -129v-229h-157z" />
<glyph unicode="l" horiz-adv-x="419" d="M109 213v913h155v-903q0 -45 18.5 -67.5t65.5 -22.5h70v-133h-96q-55 0 -95.5 17.5t-67 47t-38.5 67.5t-12 81z" />
<glyph unicode="m" horiz-adv-x="1353" d="M111 0v778h153v-88q39 47 97.5 71.5t117.5 24.5q72 0 133.5 -28.5t98.5 -85.5q94 115 243 114q61 0 114.5 -21.5t92.5 -59t61.5 -91t22.5 -116.5v-498h-158v473q0 92 -50 133t-117 41q-63 0 -111.5 -40t-48.5 -126v-481h-158v473q0 92 -50 133t-118 41q-31 0 -60.5 -14.5 t-53 -40t-38 -60t-14.5 -77.5v-455h-157z" />
<glyph unicode="n" horiz-adv-x="839" d="M109 0v778h153v-88q41 51 94.5 73.5t110.5 22.5q125 0 198.5 -80.5t73.5 -207.5v-498h-157v473q0 92 -45 133t-111 41q-31 0 -59.5 -14.5t-51 -40t-36 -61t-13.5 -76.5v-455h-157z" />
<glyph unicode="o" horiz-adv-x="817" d="M70 389q0 76 16 147.5t56 127t103.5 89t160.5 33.5q92 0 156.5 -30.5t105.5 -85t59 -127t18 -154.5q0 -78 -17 -149.5t-57 -127t-105.5 -89t-159.5 -33.5q-90 0 -155 31.5t-105 86t-58 127t-18 154.5zM227 389q0 -43 7.5 -88t27 -83t54 -62.5t90.5 -24.5q53 0 88.5 22.5 t57 59.5t30 83t8.5 93q0 43 -7.5 88t-27.5 83t-56 62.5t-93 24.5q-53 0 -88 -22.5t-55.5 -59.5t-28 -83t-7.5 -93z" />
<glyph unicode="p" horiz-adv-x="829" d="M109 -348v1126h155v-90q43 53 91 75.5t120 22.5q92 0 148.5 -34.5t88 -92t43 -128t11.5 -142.5q0 -80 -13.5 -151.5t-45 -127t-88 -87t-142.5 -31.5q-63 0 -115.5 18.5t-93.5 69.5v-428h-159zM268 389q0 -53 5.5 -99t22.5 -82t50 -56.5t88 -20.5q53 0 87 20.5t52.5 56.5 t25.5 82t7 99q0 51 -7 98.5t-25.5 82t-52.5 56t-87 21.5q-49 0 -80.5 -21.5t-50 -56t-27 -82t-8.5 -98.5z" />
<glyph unicode="q" horiz-adv-x="829" d="M63 389q0 72 11.5 142.5t43.5 128t89 92t147 34.5q72 0 120 -22.5t91 -75.5v90h158v-1126h-160v428q-43 -51 -95 -69.5t-116 -18.5q-86 0 -142 31.5t-88 87t-45.5 127t-13.5 151.5zM223 389q0 -53 7.5 -99t25.5 -82t52 -56.5t89 -20.5q53 0 86 20.5t50.5 56.5t23.5 82 t6 99q0 51 -8 98.5t-26.5 82t-50.5 56t-81 21.5q-55 0 -89 -21.5t-52 -56t-25.5 -82t-7.5 -98.5z" />
<glyph unicode="r" horiz-adv-x="538" d="M109 0v778h153v-94q31 41 86 71.5t121 30.5q68 0 119 -26l-94 -131q-16 10 -34 14t-40 4q-63 0 -108.5 -56t-45.5 -138v-453h-157z" />
<glyph unicode="s" horiz-adv-x="739" d="M47 102l98 105q47 -49 102.5 -66.5t112.5 -17.5q70 0 117 26.5t47 81.5q0 39 -23.5 63.5t-76.5 29.5l-121 12q-104 8 -162.5 58t-58.5 155q0 57 22.5 101t60.5 75t89 46t111 15q84 0 154.5 -20.5t123.5 -67.5l-96 -100q-35 33 -82 46t-100 13q-70 0 -104 -28.5t-34 -71.5 q0 -35 22.5 -59.5t82.5 -30.5l119 -10q104 -10 162.5 -62.5t58.5 -156.5q0 -61 -23.5 -107.5t-65.5 -77t-99.5 -47t-123.5 -16.5q-92 0 -169.5 22t-143.5 90z" />
<glyph unicode="t" horiz-adv-x="462" d="M23 657v121h90v244h155v-244h150v-121h-150v-434q0 -41 21.5 -65.5t64.5 -24.5h64v-133h-92q-55 0 -95.5 18.5t-67 48t-38.5 68.5t-12 80v442h-90z" />
<glyph unicode="u" horiz-adv-x="841" d="M102 281v497h158v-473q0 -92 45 -133t111 -41q31 0 59.5 14.5t51 40t35.5 60.5t13 78v454h158v-778h-153v88q-41 -53 -94.5 -75.5t-112.5 -22.5q-61 0 -111.5 21.5t-85.5 60.5t-54.5 92.5t-19.5 116.5z" />
<glyph unicode="v" horiz-adv-x="745" d="M18 778h168l189 -549l184 549h168l-291 -778h-127z" />
<glyph unicode="w" horiz-adv-x="1165" d="M18 778h168l154 -549l182 549h121l182 -549l152 549h170l-248 -778h-133l-184 543l-183 -543h-137z" />
<glyph unicode="x" horiz-adv-x="749" d="M23 0l266 397l-256 381h188l154 -254l151 254h189l-254 -381l264 -397h-188l-162 266l-166 -266h-186z" />
<glyph unicode="y" horiz-adv-x="745" d="M18 778h168l189 -549l184 549h168l-362 -975q-27 -74 -81.5 -113.5t-136.5 -39.5h-69v137h45q49 0 71.5 19.5t41.5 66.5l59 164z" />
<glyph unicode="z" horiz-adv-x="702" d="M61 0v123l388 514h-367v141h559v-125l-389 -514h389v-139h-580z" />
<glyph unicode="{" horiz-adv-x="509" d="M10 481v140h58q27 0 44 8t31 22q27 27 27 92v287q0 102 57.5 158.5t163.5 56.5h109v-139h-60q-61 0 -86.5 -26.5t-25.5 -96.5v-276q0 -39 -9.5 -65t-23.5 -44t-32.5 -28.5t-37.5 -18.5q18 -8 37 -19.5t33 -29t23.5 -43t9.5 -62.5v-252q0 -41 5 -62.5t17 -35.5 q12 -12 32.5 -16t57.5 -4h60v-140h-109q-117 0 -166 52q-31 31 -43 68.5t-12 92.5v260q0 59 -27 93q-14 12 -31.5 20t-43.5 8h-58z" />
<glyph unicode="|" horiz-adv-x="509" d="M176 -113v1356h158v-1356h-158z" />
<glyph unicode="}" horiz-adv-x="509" d="M6 27h60q72 0 90 20q14 14 18 35.5t4 62.5v252q0 37 9.5 62.5t23.5 43t32.5 29t37.5 19.5q-18 8 -37 18.5t-33 28.5t-23.5 44t-9.5 65v276q0 70 -25.5 96.5t-86.5 26.5h-60v139h109q106 0 163.5 -56t57.5 -159v-287q0 -68 29 -92q27 -31 73 -30h60v-140h-60q-27 0 -44 -8 t-29 -20q-29 -33 -29 -93v-260q0 -55 -12.5 -93t-42.5 -68q-49 -51 -166 -52h-109v140z" />
<glyph unicode="~" horiz-adv-x="868" d="M57 428q49 47 92.5 75.5t89.5 38t98 -2t120 -41.5q72 -35 131 -32t123 62l100 -98q-47 -47 -92 -75.5t-92 -38t-100.5 2t-116.5 41.5q-39 18 -71 27.5t-60.5 6.5t-58.5 -18.5t-62 -45.5z" />
<glyph unicode="&#xa2;" horiz-adv-x="802" d="M88 528q0 154 65.5 251.5t194.5 115.5v111h119v-107q57 -6 112.5 -37t112.5 -96l-94 -80q-70 86 -131 94v-506q35 6 67.5 31t67.5 66l90 -74q-55 -74 -107.5 -104.5t-117.5 -34.5v-133h-119v139q-129 18 -194.5 114t-65.5 250zM215 528q0 -37 7 -72.5t22.5 -68.5 t41 -58.5t62.5 -39.5v481q-76 -25 -104.5 -92.5t-28.5 -149.5z" />
<glyph unicode="&#xa3;" horiz-adv-x="776" d="M12 459v127h99v127q0 152 95 241.5t261 89.5q164 0 293 -120l-113 -103q-39 33 -79 58.5t-101 25.5q-96 0 -146.5 -54t-50.5 -155v-110h238v-127h-238v-318h473v-141h-632v459h-99z" />
<glyph unicode="&#xa5;" horiz-adv-x="790" d="M0 1030h184l213 -438l209 438h185l-220 -426h168v-127h-233l-27 -51v-68h260v-127h-260v-231h-168v231h-262v127h262v68l-26 51h-236v127h170z" />
<glyph unicode="&#xa9;" horiz-adv-x="1312" d="M106 528q0 115 43.5 215.5t118 174t175 116.5t214.5 43q115 0 215.5 -43t174 -116.5t116.5 -174t43 -215.5t-43 -215t-116.5 -175t-174 -118t-215.5 -43t-215 43t-174.5 118t-118 175t-43.5 215zM238 528q0 -86 33.5 -162.5t90 -135t133 -93.5t162.5 -35t163 35 t133.5 93.5t90 135t33.5 162.5t-33.5 163t-90 135.5t-133.5 92t-163 33.5t-162.5 -33.5t-133 -92t-90 -135.5t-33.5 -163zM401 528q0 66 16.5 123.5t49.5 100.5t84 68.5t123 25.5q63 0 114.5 -25.5t108.5 -75.5l-82 -90q-45 41 -75.5 55.5t-65.5 14.5q-41 0 -70 -16.5 t-46 -43t-24.5 -62.5t-7.5 -75q0 -37 7.5 -71.5t24.5 -61t46 -42t70 -15.5q35 0 65.5 14.5t75.5 53.5l76 -87v-8q-59 -53 -105.5 -73.5t-111.5 -20.5q-72 0 -123 24.5t-84 67.5t-49.5 99.5t-16.5 119.5z" />
<glyph unicode="&#xab;" horiz-adv-x="890" d="M55 418l355 350v-188l-166 -162l166 -166v-189zM444 418l353 350v-188l-166 -162l166 -166v-189z" />
<glyph unicode="&#xad;" horiz-adv-x="688" d="M119 350v148h448v-148h-448z" />
<glyph unicode="&#xae;" horiz-adv-x="1312" d="M106 528q0 115 43.5 215.5t118 174t175 116.5t214.5 43q115 0 215.5 -43t174 -116.5t116.5 -174t43 -215.5t-43 -215t-116.5 -175t-174 -118t-215.5 -43t-215 43t-174.5 118t-118 175t-43.5 215zM238 528q0 -86 33.5 -162.5t90 -135t133 -93.5t162.5 -35t163 35 t133.5 93.5t90 135t33.5 162.5t-33.5 163t-90 135.5t-133.5 92t-163 33.5t-162.5 -33.5t-133 -92t-90 -135.5t-33.5 -163zM473 223v606h207q39 0 75 -14t63.5 -39.5t43 -60.5t15.5 -78q0 -59 -30 -102t-75 -68l73 -121l70 -123h-147l-133 226h-37v-226h-125zM598 565h76 q35 0 58.5 20.5t23.5 51.5q0 33 -23.5 53.5t-58.5 20.5h-76v-146z" />
<glyph unicode="&#xbb;" horiz-adv-x="890" d="M94 63v189l166 166l-166 162v188l352 -350zM481 63v189l166 166l-166 162v188l355 -350z" />
<glyph unicode="&#xbc;" horiz-adv-x="1204" d="M88 803v112l135 113h94v-629h-108v498zM260 0l528 1028h119l-526 -1028h-121zM696 94v76l242 459h117l-232 -443h131v166h109v-166h80v-92h-80v-94h-109v94h-258z" />
<glyph unicode="&#xbd;" horiz-adv-x="1204" d="M88 803v112l135 113h94v-629h-108v498zM244 0l524 1028h123l-526 -1028h-121zM741 0v82l263 301q14 16 20 32.5t6 39.5q0 39 -23.5 61.5t-64.5 22.5q-35 0 -62.5 -23.5t-27.5 -83.5h-111q4 90 57.5 146.5t143.5 56.5t145.5 -50t55.5 -130q0 -39 -15.5 -69t-44.5 -67 l-196 -223h256v-96h-402z" />
<glyph unicode="&#xbe;" horiz-adv-x="1204" d="M66 592h108q6 -55 37 -79t70 -24q41 0 70.5 25t29.5 70q0 41 -26.5 65.5t-80.5 24.5h-32v96h32q92 0 93 80q0 45 -27 66.5t-61 21.5q-86 0 -97 -96h-110q10 92 66.5 143t140.5 51q88 0 144 -49t56 -135q0 -41 -16.5 -72.5t-44.5 -56.5q72 -45 71 -139q0 -96 -60 -142.5 t-148 -46.5q-86 0 -148.5 46.5t-66.5 150.5zM338 0l532 1028h121l-530 -1028h-123zM717 94v76l241 459h117l-231 -441h129v164h110v-164h76v-94h-76v-94h-110v94h-256z" />
<glyph unicode="&#xd7;" horiz-adv-x="868" d="M80 176l252 250l-252 250l104 102l248 -250l252 250l102 -102l-249 -250l249 -250l-102 -104l-252 250l-248 -250z" />
<glyph unicode="&#xf7;" horiz-adv-x="829" d="M59 350v148h709v-148h-709zM319 139q0 41 28 69t69 28t68.5 -28t27.5 -69t-27.5 -68.5t-68.5 -27.5t-69 27.5t-28 68.5zM319 715q0 41 28 68.5t69 27.5t68.5 -27.5t27.5 -68.5t-27.5 -69t-68.5 -28t-69 28t-28 69z" />
<glyph unicode="&#xe01;" horiz-adv-x="915" d="M39 598q72 119 169 178.5t230 59.5q186 0 278.5 -85t92.5 -243v-508h-164v496q0 106 -54 150t-155 44q-51 0 -105.5 -20.5t-99.5 -65.5l52 -80v-524h-164v487z" />
<glyph unicode="&#xe02;" horiz-adv-x="788" d="M41 719q41 53 94 84t105 31q92 0 145 -48.5t53 -132.5q0 -61 -34.5 -105t-75.5 -83q-35 -33 -51.5 -55.5t-16.5 -65.5v-74q0 -63 29.5 -100t101.5 -37q66 0 95.5 37t29.5 100v557h166v-561q0 -123 -81 -199.5t-210 -76.5q-135 0 -214 76.5t-83 199.5v92q0 66 24.5 102 t65.5 75q37 35 64.5 63.5t27.5 54.5q0 35 -40 35q-12 0 -29 -13t-33 -36z" />
<glyph unicode="&#xe03;" horiz-adv-x="788" d="M-14 741l98 107l90 -60q2 0 4 3q57 43 129 43q74 0 122 -44.5t48 -113.5q0 -41 -19.5 -82t-60.5 -80l-125 -121q-10 -10 -12 -31.5t-2 -25.5v-66q0 -61 30.5 -98t100.5 -37q68 0 96.5 37t28.5 98v557h168v-561q0 -123 -81 -199.5t-212 -76.5q-133 0 -212 76.5t-83 199.5 v82q0 37 9.5 70t35.5 57l162 158q23 20 23 41q0 20 -21 20q-10 0 -20.5 -4t-24.5 -16l-43 -35q-18 -14 -43 -13t-41 11z" />
<glyph unicode="&#xe04;" horiz-adv-x="931" d="M104 0v518q0 74 26 134.5t71 101.5q51 49 124.5 65.5t139.5 16.5t139.5 -16.5t124.5 -65.5q45 -41 70.5 -101.5t25.5 -134.5v-518h-163v504q0 98 -52.5 142t-144.5 44t-142.5 -42t-54.5 -134v-31q27 6 68 6h137v-135h-121q-49 0 -66.5 -21.5t-17.5 -64.5v-268h-164z" />
<glyph unicode="&#xe05;" horiz-adv-x="960" d="M106 0v528q0 74 26 134.5t71 101.5q29 25 69.5 43t89.5 31l117 -119l115 119q49 -10 91 -30t71 -44q98 -88 98 -236v-528h-164v512q0 49 -15.5 90t-43.5 64l-90 -91q-25 -25 -61 -23.5t-58 23.5l-92 91q-29 -23 -44.5 -63t-15.5 -91v-39q27 6 68 6h137v-135h-121 q-49 0 -66.5 -21.5t-17.5 -64.5v-258h-164z" />
<glyph unicode="&#xe06;" horiz-adv-x="899" d="M-4 741l98 107l90 -60q2 0 4 3q57 43 129 43q74 0 122 -44.5t48 -113.5q0 -41 -19 -82t-60 -80l-125 -123q-12 -10 -14.5 -29.5t-2.5 -29.5v-6q0 -90 49.5 -139.5t130.5 -49.5q180 0 181 189v501h166v-520q0 -150 -99 -235q-84 -80 -235 -80q-59 0 -107.5 23.5 t-83.5 58.5v-74h-166v348q0 41 12.5 75t37.5 56l35 35l44 43l43 43q20 20 37 35q23 20 23 39q0 20 -21 20q-18 0 -45 -20l-43 -35q-18 -14 -42.5 -13t-41.5 11z" />
<glyph unicode="&#xe07;" horiz-adv-x="653" d="M-35 193l148 69q18 -61 55 -95t86 -34q68 0 97.5 37t29.5 100v418h-115v139h281v-561q0 -133 -76 -204.5t-217 -71.5q-113 0 -182.5 54.5t-106.5 148.5z" />
<glyph unicode="&#xe08;" horiz-adv-x="772" d="M-20 633q45 100 132 151.5t203 51.5q154 0 252.5 -80t98.5 -238v-518h-166v258q0 43 -16.5 64.5t-63.5 21.5h-135v141h137q41 0 78 -18v47q-10 176 -185 176q-59 0 -112 -32.5t-78 -102.5z" />
<glyph unicode="&#xe09;" horiz-adv-x="899" d="M92 637q45 100 135 149.5t207 49.5q76 0 142.5 -19.5t113.5 -59.5t75 -98.5t28 -138.5v-520h-166v78q-35 -37 -82 -61.5t-113 -24.5q-154 0 -239 80q-96 86 -97 235v176h166v-157q0 -92 46 -141.5t134 -49.5q84 0 134.5 50.5t50.5 140.5v178q0 188 -193 188 q-59 0 -113.5 -29.5t-82.5 -93.5z" />
<glyph unicode="&#xe0a;" horiz-adv-x="835" d="M35 727q106 104 213 104q92 0 147.5 -49t55.5 -133q0 -41 -18.5 -75.5t-51.5 -73.5l-88 -105q-10 -10 -12 -25.5t-2 -33.5v-47q0 -63 35.5 -108.5t105.5 -45.5q68 0 102.5 36t34.5 99v283q0 23 -18.5 40t-34.5 28q-16 6 -28.5 14t-16.5 20.5t3 28.5t32 39l243 233 l115 -106l-184 -172q20 -18 37.5 -51t17.5 -74v-287q0 -61 -22.5 -111.5t-63.5 -87t-96.5 -57t-120.5 -20.5q-68 0 -123 23.5t-95 63.5t-62.5 93t-24.5 115v73q0 41 11 70t34 53l106 117q12 14 20.5 26.5t8.5 24.5q0 23 -14.5 34t-34.5 9q-18 -2 -42 -17.5t-46 -31.5z" />
<glyph unicode="&#xe0b;" horiz-adv-x="880" d="M-8 741l98 105l90 -60q31 25 65 36.5t66 11.5q76 0 128.5 -50.5t52.5 -121.5q0 -39 -28 -82t-61 -84l-81 -101q-8 -10 -12.5 -23.5t-4.5 -35.5v-47q0 -63 41 -108.5t111 -45.5q68 0 107.5 36t39.5 99v283q0 23 -19.5 40t-35.5 28q-16 8 -29.5 17t-17.5 20.5t3 26.5t32 38 l239 231l113 -100l-176 -172q20 -18 37.5 -51t17.5 -78v-287q0 -61 -24.5 -112.5t-66.5 -87t-98.5 -56t-121.5 -20.5q-68 0 -125.5 23.5t-99.5 63.5t-66.5 93t-24.5 115v63q0 49 13.5 78t35.5 53l119 133q12 16 18.5 26.5t6.5 23.5q0 12 -8.5 21t-18.5 9q-18 0 -43 -20 l-41 -35q-16 -12 -41.5 -12t-42.5 10z" />
<glyph unicode="&#xe0c;" horiz-adv-x="1402" d="M45 598q72 119 170 178.5t229 59.5q188 0 279.5 -85t91.5 -243v-182q0 -88 47 -139.5t115 -51.5q74 0 115 50.5t41 140.5v501h163v-520q0 -78 -22.5 -137t-63.5 -99t-97 -59.5t-124 -19.5q-49 0 -94 22.5t-80 59.5v-74h-164v496q0 106 -54 150t-155 44q-53 0 -106 -19.5 t-100 -68.5q12 -23 26 -41t27 -37v-313q0 -29 9 -46.5t40 -17.5h82v-147h-98q-106 0 -151.5 55.5t-45.5 153.5v278z" />
<glyph unicode="&#xe0d;" horiz-adv-x="1388" d="M45 598q72 119 170 178.5t229 59.5q188 0 279.5 -86t91.5 -242v-133q0 -92 38 -141.5t110 -49.5q74 0 114.5 49.5t40.5 141.5v452h164v-469q0 -66 -17.5 -123t-56.5 -100t-98 -68.5t-143 -25.5q-158 0 -237 82t-79 235v138q0 106 -54 149t-155 43q-53 0 -107 -19.5 t-102 -66.5l56 -80v-311q0 -29 9 -46.5t40 -17.5h82v-147h-98q-106 0 -151.5 55.5t-45.5 153.5v278zM645 0h158q0 -29 7 -43t17 -14h449v-140h-469q-29 0 -57.5 7.5t-52 29t-38 60.5t-14.5 100z" />
<glyph unicode="&#xe0e;" horiz-adv-x="950" d="M43 145q43 -2 64.5 5.5t32 19.5t11.5 27.5t1 27.5v264l-78 111q141 236 399 236q186 0 277.5 -84t93.5 -242v-670q0 -37 -11.5 -63.5t-25.5 -45t-30.5 -28.5t-24.5 -14q-25 -10 -60 -11.5t-63 11.5l-178 78q-8 4 -15 0l-211 -103l-92 111l260 125q29 14 48.5 14t52.5 -14 l168 -72q4 -2 10 1t6 13v654q0 106 -53.5 151t-153.5 45q-53 0 -106.5 -18.5t-100.5 -65.5l53 -78v-323q0 -72 -26.5 -113t-64.5 -62.5t-80 -27.5t-72 -6z" />
<glyph unicode="&#xe0f;" horiz-adv-x="950" d="M43 147q43 -2 64.5 5.5t32 19.5t11.5 26.5t1 26.5v264l-78 111q141 236 399 236q186 0 277.5 -84t93.5 -242v-670q0 -31 -11.5 -60.5t-32 -53t-48 -38t-60.5 -14.5q-35 0 -67 19l-123 67q-12 6 -23 0l-112 -67q-33 -18 -60.5 -15t-50.5 17l-211 145l139 80l119 -82 q14 -10 31 0l102 64q29 18 54.5 16t52.5 -16l121 -68q6 -4 10 1t4 11v652q0 106 -53.5 150t-153.5 44q-53 0 -106.5 -18.5t-100.5 -65.5l53 -76v-325q0 -72 -26.5 -113t-64.5 -62.5t-80 -27.5t-72 -6z" />
<glyph unicode="&#xe10;" horiz-adv-x="778" d="M-25 625q47 104 135.5 157.5t204.5 53.5q53 0 93.5 -8.5t80.5 -26.5l168 157l117 -106l-164 -150q55 -74 56 -184v-518h-166v258q0 43 -16.5 64.5t-63.5 21.5h-135v141h137q41 0 78 -18v47q-10 176 -185 176q-59 0 -110 -33.5t-76 -101.5zM6 -162l119 84l111 -82 q6 -6 12 0l47 45q33 27 70 27q39 0 71 -27l51 -45q8 -4 9 6v88h166v-79q0 -47 -16.5 -79t-37 -50.5t-40 -25.5t-25.5 -9q-27 -6 -54.5 -4t-52.5 22l-63 49q-8 6 -15 0l-51 -45q-25 -23 -62.5 -22.5t-66.5 20.5z" />
<glyph unicode="&#xe11;" horiz-adv-x="923" d="M0 745l104 101l84 -58q39 27 73 38.5t67 11.5q43 0 78.5 -17.5t58.5 -50.5l76 68q127 -2 201.5 -67.5t74.5 -192.5v-578h-164v571q0 45 -11 75t-46 40l-305 -291q-10 -10 -12.5 -31.5t-2.5 -27.5v-336h-165v350q0 80 47 125l161 158q8 8 15.5 18.5t7.5 22.5q0 20 -20 20 q-18 0 -46 -20l-45 -35q-18 -12 -41.5 -13t-39.5 11z" />
<glyph unicode="&#xe12;" horiz-adv-x="1402" d="M104 233v295q0 74 26 134.5t73 101.5q29 27 69.5 44t87.5 28l103 -101l100 101q100 -18 162 -72q96 -86 96 -236v-202q0 -86 47 -138.5t117 -52.5q72 0 110 50.5t38 140.5v501h163v-520q0 -158 -81.5 -236.5t-217.5 -78.5q-49 0 -97 24.5t-79 57.5v-74h-162v512 q0 102 -59 152l-76 -74q-23 -23 -60.5 -23t-60.5 23l-73 74q-29 -23 -44.5 -62t-15.5 -90v-276q0 -45 16.5 -67t63.5 -22h76v-147h-90q-117 0 -174.5 63.5t-57.5 169.5z" />
<glyph unicode="&#xe13;" horiz-adv-x="1396" d="M45 600q143 236 399 236q188 0 279.5 -84t91.5 -242v-184q0 -90 38 -140.5t112 -50.5q66 0 113.5 51.5t47.5 139.5v501h164v-827h-164v74q-39 -39 -80.5 -60.5t-93.5 -21.5q-135 0 -218 79t-83 236v191q0 106 -54 150t-155 44q-53 0 -106 -19.5t-100 -68.5q12 -23 26 -41 t27 -37v-315q0 -29 9 -46.5t40 -17.5h82v-147h-98q-106 0 -151.5 55.5t-45.5 153.5v280z" />
<glyph unicode="&#xe14;" horiz-adv-x="931" d="M104 233v285q0 74 26 134.5t71 101.5q51 49 124.5 65.5t139.5 16.5t139.5 -16.5t124.5 -65.5q45 -41 70.5 -101.5t25.5 -134.5v-518h-163v504q0 98 -52.5 142t-144.5 44t-144.5 -44t-52.5 -142v-268q0 -43 18.5 -66t65.5 -23h74v-147h-88q-117 0 -175.5 63.5t-58.5 169.5 z" />
<glyph unicode="&#xe15;" horiz-adv-x="960" d="M104 233v295q0 74 27 134.5t72 101.5q29 25 69.5 43t89.5 31l117 -119l115 119q49 -10 91 -30t71 -44q98 -88 98 -236v-528h-164v512q0 49 -15.5 90t-43.5 64l-90 -91q-25 -25 -61 -23.5t-58 23.5l-92 91q-29 -23 -44.5 -63t-15.5 -91v-276q0 -43 17.5 -66t64.5 -23h74 v-147h-88q-117 0 -175.5 63.5t-58.5 169.5z" />
<glyph unicode="&#xe16;" horiz-adv-x="913" d="M39 598q72 119 169 178.5t230 59.5q186 0 277.5 -85t91.5 -243v-508h-162v496q0 106 -54 150t-155 44q-53 0 -107.5 -19.5t-101.5 -68.5l28 -40l26 -38v-313q0 -29 10 -46.5t41 -17.5h82v-147h-99q-106 0 -151 55.5t-45 153.5v278z" />
<glyph unicode="&#xe17;" horiz-adv-x="886" d="M106 0v827h164v-94q45 55 101.5 80t117.5 25q66 0 120.5 -22.5t92 -64.5t58 -98.5t20.5 -124.5v-528h-168v504q0 98 -49 141t-119 43q-31 0 -61.5 -15.5t-55 -43t-39 -64.5t-14.5 -82v-483h-168z" />
<glyph unicode="&#xe18;" horiz-adv-x="837" d="M74 606q0 51 24.5 94t67.5 73t102.5 46.5t130.5 16.5q90 0 178.5 -30t165.5 -85l-112 -105q-57 37 -113.5 56.5t-118.5 19.5q-74 0 -118.5 -21.5t-44.5 -64.5q0 -63 129 -71l131 -13q55 -6 103 -22.5t85 -46t58.5 -74.5t21.5 -109q0 -59 -25.5 -110t-73 -89t-114 -59.5 t-150.5 -21.5q-51 0 -104 13t-97 40t-72 68t-28 96v164h162v-162q0 -33 43 -53.5t94 -20.5q98 0 149.5 38t51.5 97q0 41 -27.5 71t-87.5 34l-135 14q-131 12 -203.5 67.5t-72.5 149.5z" />
<glyph unicode="&#xe19;" horiz-adv-x="884" d="M106 299v528h168v-503q0 -98 48.5 -141.5t117.5 -43.5q31 0 61.5 15.5t55.5 43t39 64.5t14 82v483h168v-827h-164v94q-45 -55 -101 -79.5t-118 -24.5q-66 0 -119 22.5t-91 64.5t-58.5 98t-20.5 124z" />
<glyph unicode="&#xe1a;" horiz-adv-x="888" d="M106 307v520h166v-503q0 -92 42 -140.5t130 -48.5t130 48t42 141v503h166v-520q0 -154 -94 -234.5t-244 -80.5q-152 0 -245 80.5t-93 234.5z" />
<glyph unicode="&#xe1b;" horiz-adv-x="888" d="M106 307v520h166v-503q0 -92 42 -140.5t130 -48.5t130 48t42 141v901h166v-918q0 -154 -94 -234.5t-244 -80.5q-152 0 -245 80.5t-93 234.5z" />
<glyph unicode="&#xe1c;" horiz-adv-x="962" d="M106 299v295q0 106 58.5 169.5t175.5 63.5h88v-147h-74q-47 0 -64.5 -22.5t-17.5 -65.5v-277q0 -51 15.5 -91t44.5 -62l92 90q23 23 58.5 23.5t60.5 -23.5l90 -90q29 23 44 63.5t15 89.5v512h164v-528q0 -147 -98 -236q-29 -25 -71 -44t-91 -29l-115 119l-116 -119 q-49 12 -90.5 30.5t-69.5 42.5q-45 41 -72 101.5t-27 134.5z" />
<glyph unicode="&#xe1d;" horiz-adv-x="962" d="M106 299v295q0 106 58.5 169.5t175.5 63.5h88v-147h-74q-47 0 -64.5 -22.5t-17.5 -65.5v-277q0 -51 15.5 -91t44.5 -62l92 90q23 23 58.5 23.5t60.5 -23.5l90 -90q29 23 43 63.5t14 89.5v910h166v-926q0 -147 -98 -236q-29 -25 -71 -44t-91 -29l-115 116l-116 -116 q-49 12 -90.5 30.5t-69.5 42.5q-45 41 -72 101.5t-27 134.5z" />
<glyph unicode="&#xe1e;" horiz-adv-x="1114" d="M55 827h166l82 -557l197 557h114l197 -557l82 557h166l-141 -827h-144l-217 567l-217 -567h-145z" />
<glyph unicode="&#xe1f;" horiz-adv-x="1114" d="M55 827h166l82 -557l197 557h114l197 -557l150 955h165l-208 -1225h-144l-217 567l-217 -567h-145z" />
<glyph unicode="&#xe20;" horiz-adv-x="950" d="M45 145q43 -2 64.5 6.5t31 20.5t10.5 27.5t1 27.5v260l-78 111q72 119 169 178.5t230 59.5q186 0 277.5 -85t93.5 -243v-508h-166v496q0 106 -53.5 150t-153.5 44q-53 0 -106.5 -17.5t-100.5 -64.5l53 -78v-321q0 -72 -26.5 -113t-64.5 -62.5t-80 -27.5t-72 -6z" />
<glyph unicode="&#xe21;" horiz-adv-x="880" d="M104 0v827h168v-483q0 -45 14.5 -82t39 -64.5t55.5 -43t61 -15.5q70 0 118 43t48 142v503h168v-528q0 -68 -20.5 -124t-58.5 -98t-91 -64.5t-119 -22.5q-61 0 -117.5 24.5t-101.5 79.5v-94h-164z" />
<glyph unicode="&#xe22;" horiz-adv-x="901" d="M68 260q0 51 20.5 96t63.5 80q-41 29 -60.5 69t-23.5 89q0 96 59 164.5t174 68.5h127v-147h-111q-49 0 -67.5 -21.5t-18.5 -66.5q0 -41 46.5 -62.5t150.5 -23.5v-135q-104 -4 -150.5 -36t-46.5 -83q0 -49 54.5 -83t144.5 -34q117 0 157 58.5t40 150.5v483h168v-483 q0 -82 -19.5 -148.5t-62.5 -112.5t-113 -70.5t-170 -24.5q-117 0 -188.5 31.5t-110.5 76.5t-51 90t-12 74z" />
<glyph unicode="&#xe23;" horiz-adv-x="745" d="M25 131l102 111q53 -53 103.5 -80t127.5 -27q92 0 128 33t36 80t-36.5 70.5t-84.5 33.5l-65 15q-125 29 -195.5 77t-70.5 150q0 100 72.5 171t217.5 71q88 0 160 -29t144 -86l-111 -105q-47 37 -92 56.5t-101 19.5q-70 0 -99.5 -28.5t-29.5 -69.5q0 -33 35 -50.5 t94 -33.5l76 -18q51 -12 97.5 -31t81 -46.5t54 -68.5t19.5 -98q0 -51 -20.5 -97.5t-60.5 -82t-101.5 -57t-143.5 -21.5q-115 0 -189 33.5t-148 107.5z" />
<glyph unicode="&#xe24;" horiz-adv-x="911" d="M37 598q72 119 169 178.5t230 59.5q186 0 277.5 -85t91.5 -243v-817h-162v805q0 106 -54 150t-155 44q-53 0 -107.5 -19.5t-101.5 -68.5l28 -40l26 -38v-313q0 -29 10 -46.5t41 -17.5h82v-147h-99q-106 0 -151 55.5t-45 153.5v278z" />
<glyph unicode="&#xe25;" horiz-adv-x="829" d="M41 244q0 104 72.5 172.5t220.5 68.5h221v54q0 78 -43 116.5t-141 38.5q-68 0 -112 -20.5t-79 -55.5l-106 99q63 66 136 92.5t167 26.5q346 0 346 -283v-553h-168v360h-199q-152 0 -151 -114q0 -55 38 -86t117 -31v-139h-26q-59 0 -112.5 15t-93.5 47t-63.5 79t-23.5 113 z" />
<glyph unicode="&#xe26;" horiz-adv-x="948" d="M43 145q43 -2 64.5 6.5t30.5 20.5t10.5 27.5t1.5 27.5v260l-78 111q72 119 169 178.5t230 59.5q186 0 277.5 -85t93.5 -243v-815h-166v803q0 106 -53.5 150t-153.5 44q-53 0 -106.5 -17.5t-100.5 -64.5l53 -78v-321q0 -72 -26.5 -113t-64.5 -62.5t-80 -27.5t-72 -6z" />
<glyph unicode="&#xe27;" horiz-adv-x="720" d="M4 637q49 94 134 146.5t184 52.5q158 0 243.5 -92.5t85.5 -243.5v-170q0 -68 -19.5 -129.5t-59.5 -107.5t-102 -73.5t-148 -27.5q-74 0 -151 35.5t-132 103.5l117 94q33 -41 79 -63.5t87 -22.5q86 0 126.5 55.5t40.5 137.5v168q0 78 -38.5 133t-128.5 55 q-51 0 -98.5 -31.5t-76.5 -91.5z" />
<glyph unicode="&#xe28;" horiz-adv-x="935" d="M104 0v518q0 74 26 134.5t71 101.5q51 49 124.5 65.5t139.5 16.5q45 0 93 -7.5t93 -25.5l160 147l111 -110l-150 -138q25 -37 39 -84t14 -100v-518h-163v504q0 98 -52.5 142t-144.5 44t-143.5 -44t-53.5 -138v-25q27 6 68 6h137v-135h-121q-49 0 -66.5 -21.5t-17.5 -64.5 v-268h-164z" />
<glyph unicode="&#xe29;" horiz-adv-x="929" d="M104 307v520h166v-503q0 -92 47.5 -140.5t135.5 -48.5t135 48t47 141v51h-100q-29 0 -57.5 9t-52.5 31.5t-38 62.5t-14 102h151q0 -35 7.5 -50.5t17.5 -15.5h86v313h166v-313h102v-139h-102v-68q0 -72 -26.5 -131t-73 -100t-111 -63.5t-137.5 -22.5q-74 0 -136.5 21.5 t-108.5 61.5t-74 99t-30 135z" />
<glyph unicode="&#xe2a;" horiz-adv-x="829" d="M41 244q0 104 72.5 172.5t220.5 68.5h221v54q0 78 -43 116.5t-141 38.5q-68 0 -112 -20.5t-79 -55.5l-106 99q63 66 136 92.5t167 26.5q100 0 174 -25l143 139l115 -108l-131 -125q45 -63 45 -164v-553h-168v360h-199q-152 0 -151 -114q0 -55 38 -86t117 -31v-139h-26 q-59 0 -112.5 15t-93.5 47t-63.5 79t-23.5 113z" />
<glyph unicode="&#xe2b;" horiz-adv-x="905" d="M104 0v827h166v-333l459 358l94 -113l-149 -118q66 -39 96.5 -110t30.5 -149v-362h-164v348q0 135 -92 172l-275 -217v-303h-166z" />
<glyph unicode="&#xe2c;" horiz-adv-x="1124" d="M55 827h166l82 -557l197 557h114l197 -557l51 363q-2 27 -27.5 40t-82.5 15v139h106q35 0 54.5 17.5t27.5 42.5l29 88h168l-41 -131q-14 -43 -39 -74t-53 -51q31 -49 18 -107l-104 -612h-144l-217 567l-217 -567h-145z" />
<glyph unicode="&#xe2d;" horiz-adv-x="856" d="M66 680q78 78 154.5 118t189.5 40q186 0 283.5 -106.5t97.5 -317.5q0 -199 -95.5 -311.5t-265.5 -112.5q-125 0 -211 64.5t-125 174.5q-6 20 -10 52t-6 69t-3 75t-1 71h325v-136h-163q0 -29 2 -52t10 -42q16 -49 61 -89t121 -40q59 0 98 22.5t60.5 60.5t30 88t8.5 106 q0 49 -9.5 98t-34 89t-67.5 64.5t-110 24.5q-59 0 -110.5 -22.5t-109.5 -77.5z" />
<glyph unicode="&#xe2e;" horiz-adv-x="856" d="M66 680q78 78 154.5 118t189.5 40q96 0 174 -33l164 158l114 -109l-153 -143q82 -111 82 -297q0 -199 -95.5 -311.5t-265.5 -112.5q-125 0 -211 64.5t-125 174.5q-6 20 -10 52t-6 69t-3 75t-1 71h325v-136h-163q0 -29 2 -52t10 -42q16 -49 61 -89t121 -40q59 0 98 22.5 t60.5 60.5t30 88t8.5 106q0 49 -9.5 98t-34 89t-67.5 64.5t-110 24.5q-59 0 -110.5 -22.5t-109.5 -77.5z" />
<glyph unicode="&#xe2f;" horiz-adv-x="872" d="M70 584q0 104 58 173.5t175 69.5h88v-147h-74q-49 0 -66.5 -25.5t-17.5 -70.5q0 -72 47.5 -101.5t135.5 -29.5q182 0 182 178v196h168v-827h-168v362q-37 -29 -87 -42t-95 -13q-158 0 -252 68t-94 209z" />
<glyph unicode="&#xe30;" horiz-adv-x="550" d="M68 326h153q2 -33 8.5 -52.5t16.5 -19.5h215v-143h-232q-27 0 -55.5 10t-51 35.5t-37.5 67t-17 102.5zM68 725h153q2 -33 8.5 -52.5t16.5 -19.5h215v-143h-232q-27 0 -55.5 10t-51 36t-37.5 67t-17 102z" />
<glyph unicode="&#xe31;" d="M-516 1186h154q0 -76 26 -76h393v-129h-411q-29 0 -57.5 7t-51 29.5t-38 62.5t-15.5 106z" />
<glyph unicode="&#xe32;" horiz-adv-x="675" d="M8 682q47 74 118 114t161 40q141 0 211.5 -72t70.5 -207v-557h-163v553q0 63 -27 100t-92 37q-90 0 -148 -82z" />
<glyph unicode="&#xe33;" horiz-adv-x="675" d="M-377 1122q0 72 50.5 122t121.5 50q70 0 120 -50t50 -122q0 -70 -50 -120t-120 -50q-72 0 -122 50t-50 120zM-260 1122q0 -23 15.5 -38t39.5 -15q25 0 40 15.5t15 37.5q0 25 -15 40.5t-40 15.5t-40 -15.5t-15 -40.5zM8 682q47 74 118 114t161 40q141 0 211.5 -72 t70.5 -207v-557h-163v553q0 63 -27 100t-92 37q-90 0 -148 -82z" />
<glyph unicode="&#xe34;" d="M-782 981v129h676v-129h-676z" />
<glyph unicode="&#xe35;" d="M-782 981v129h516v125h160v-254h-676z" />
<glyph unicode="&#xe36;" d="M-782 981v129h370v18q0 68 47.5 115t112.5 47q68 0 115 -44t47 -111q0 -66 -47 -110t-115 -44h-530zM-299 1130q0 -20 14.5 -33.5t32.5 -13.5q23 0 37 13.5t14 33.5q0 23 -14 36.5t-37 13.5q-18 0 -32.5 -13.5t-14.5 -36.5z" />
<glyph unicode="&#xe37;" d="M-782 981v129h317v125h141v-125h76v125h142v-254h-676z" />
<glyph unicode="&#xe38;" d="M-350 -119h71q47 0 80 -7t53.5 -26.5t30 -54.5t9.5 -92v-147h-158v145q0 25 -5 31t-20 6h-61v145z" />
<glyph unicode="&#xe39;" d="M-541 -119h78q76 0 102.5 -30.5t26.5 -102.5v-10q0 -14 9.5 -28.5t33.5 -14.5q25 0 33 14.5t8 28.5v143h144v-143q0 -78 -52.5 -125t-132.5 -47q-86 0 -135 47t-49 125q0 12 -10 12h-56v131z" />
<glyph unicode="&#xe3a;" d="M-295 -227q0 43 29.5 72.5t72.5 29.5t73 -29.5t30 -72.5t-30 -73t-73 -30t-72.5 30t-29.5 73z" />
<glyph unicode="&#xe3e;" />
<glyph unicode="&#xe3f;" horiz-adv-x="980" d="M143 0v1030h291v115h129v-115q141 -4 221 -80t80 -202q0 -80 -40 -136.5t-89 -83.5q57 -25 101.5 -83t44.5 -152q0 -145 -88 -219t-230 -74v-119h-129v119h-291zM309 150h125v299h-125v-299zM309 598h125v283h-125v-283zM563 150q72 4 111 46t39 105q0 59 -39 101 t-111 47v-299zM563 598q61 8 98 44t37 97t-36.5 97t-98.5 43v-281z" />
<glyph unicode="&#xe40;" horiz-adv-x="405" d="M106 209v618h166v-616q0 -29 8.5 -46.5t38.5 -17.5h82v-147h-98q-106 0 -151.5 55.5t-45.5 153.5z" />
<glyph unicode="&#xe41;" horiz-adv-x="790" d="M106 209v618h166v-616q0 -29 8.5 -46.5t38.5 -17.5h82v-147h-98q-106 0 -151.5 55.5t-45.5 153.5zM492 209v618h165v-616q0 -29 8.5 -46.5t39.5 -17.5h81v-147h-98q-106 0 -151 55.5t-45 153.5z" />
<glyph unicode="&#xe42;" horiz-adv-x="454" d="M-31 1098l29 127h485v-138h-231q23 -29 30 -65.5t7 -63.5v-741q0 -29 7 -49.5t42 -20.5h80v-147h-96q-111 0 -154 60.5t-43 154.5v746q0 57 -38 97t-118 40z" />
<glyph unicode="&#xe43;" horiz-adv-x="456" d="M-31 1014q8 55 33 97t60.5 70.5t76.5 43t82 14.5q121 0 180.5 -54.5t59.5 -146.5q0 -31 -11.5 -57.5t-29 -51t-38.5 -46.5l-42 -45q-18 -18 -32.5 -40t-16.5 -59v-522q0 -29 6 -49.5t41 -20.5h82v-147h-98q-109 0 -153 59.5t-44 155.5v522q0 35 9 69t50 79l84 90 q27 29 31 43t4 20q0 33 -25.5 44.5t-56.5 11.5q-25 0 -56.5 -20.5t-47.5 -86.5z" />
<glyph unicode="&#xe44;" horiz-adv-x="481" d="M-43 1087v138h485l29 -127q-80 0 -118 -40t-38 -97v-746q0 -29 7.5 -48.5t42.5 -19.5h79v-147h-96q-111 0 -153.5 61.5t-42.5 155.5v741q0 27 7 64t29 65h-231z" />
<glyph unicode="&#xe45;" horiz-adv-x="675" d="M8 682q47 74 118 114t161 40q141 0 211.5 -72t70.5 -207v-866h-163v862q0 63 -27 100t-92 37q-90 0 -148 -82z" />
<glyph unicode="&#xe46;" horiz-adv-x="894" d="M96 598q0 100 44 155.5t159 84.5l150 -119l72 59l73 60q80 -23 137 -71t57 -134v-942h-165v940q0 10 -4.5 20.5t-8.5 18.5l-114 -90q-20 -16 -48 -15.5t-47 15.5l-122 96q-8 -6 -14.5 -21.5t-6.5 -56.5q0 -29 5 -56.5t40 -27.5h27v-135h-41q-43 0 -78 10t-60.5 36t-40 68 t-14.5 105z" />
<glyph unicode="&#xe47;" d="M-782 1196q0 35 13 69.5t40 64.5t62.5 48.5t82.5 20.5h475v-129h-464q-33 0 -49.5 -21.5t-18.5 -50.5q0 -41 27 -72l112 66q39 23 80 0l117 -66q10 10 14 33t-4 47h135q10 -45 1 -82t-32.5 -66.5t-56.5 -49t-71 -29.5l-119 74q-25 14 -45 0l-117 -76q-76 25 -129 78 t-53 141z" />
<glyph unicode="&#xe48;" d="M-264 1339v303h158v-303h-158z" />
<glyph unicode="&#xe49;" d="M-401 1339v109l63 16q29 6 29 37t-74 29v129q98 0 155.5 -33t57.5 -110q0 -12 -1 -22.5t-5 -23.5h246v-131h-471z" />
<glyph unicode="&#xe4a;" d="M-592 1491q0 70 32 106.5t62 53.5q23 14 52.5 14t58.5 -27l39 -36l37 36q29 29 56.5 27t43.5 -12q35 -16 67.5 -57.5t32.5 -104.5v-31h166v-121h-295v152q0 39 -12 51l-45 -55q-16 -18 -46 -19.5t-52 21.5l-54 51q-12 -10 -14 -20.5t-2 -26.5q0 -20 22.5 -33.5 t57.5 -13.5v-113h-41q-72 0 -119 46t-47 112z" />
<glyph unicode="&#xe4b;" d="M-367 1442v137h117v107h144v-107h116v-137h-116v-103h-144v103h-117z" />
<glyph unicode="&#xe4c;" d="M-258 1229q0 68 14.5 108.5t38 64t51 31t56.5 7.5h174v-140h-164q-16 0 -20.5 -18t-4.5 -53h-145z" />
<glyph unicode="&#xe4d;" d="M-338 1122q0 72 50 122t122 50q70 0 120 -50t50 -122q0 -70 -50 -120t-120 -50q-72 0 -122 50t-50 120zM-221 1122q0 -23 15.5 -38t39.5 -15q25 0 40 15.5t15 37.5q0 25 -15 40.5t-40 15.5t-40 -15.5t-15 -40.5z" />
<glyph unicode="&#xe4e;" d="M-256 989q0 104 24.5 145.5t65.5 49.5q8 29 24.5 44t37 23.5t43 9.5t41.5 1h86v-125h-82q-12 0 -14.5 -15.5t-2.5 -58.5h-63q-12 0 -14.5 -18.5t-2.5 -55.5h-143z" />
<glyph unicode="&#xe4f;" horiz-adv-x="1054" d="M72 410q0 94 34.5 177t96 144.5t143.5 96t174 34.5q94 0 177 -34.5t144.5 -96t96.5 -144.5t35 -177q0 -92 -35 -174t-96.5 -143.5t-144.5 -96.5t-177 -35q-92 0 -174 35t-143.5 96.5t-96 143.5t-34.5 174zM203 410q0 -66 25.5 -123.5t68.5 -100.5t100.5 -68.5 t122.5 -25.5q68 0 126.5 25.5t101.5 68.5t68.5 100.5t25.5 123.5q0 68 -25.5 126t-68.5 101t-101.5 68.5t-126.5 25.5q-66 0 -123 -25.5t-100 -68.5t-68.5 -101t-25.5 -126zM285 410q0 49 18.5 92t51 75.5t74.5 51t91 18.5t92 -18.5t76 -51t51.5 -75.5t18.5 -92t-18.5 -91.5 t-51.5 -75t-76 -51t-92 -18.5t-91 18.5t-74.5 51t-51 75t-18.5 91.5zM412 410q0 -45 31.5 -77t76.5 -32q47 0 79 32t32 77q0 47 -32 78.5t-79 31.5q-45 0 -76.5 -31.5t-31.5 -78.5z" />
<glyph unicode="&#xe50;" horiz-adv-x="974" d="M74 365q0 78 27.5 146.5t79.5 119.5t130 80.5t176 29.5t176 -29.5t130.5 -80.5t80 -120t27.5 -146q0 -80 -27.5 -149t-80 -120t-130 -80.5t-176.5 -29.5q-98 0 -176 29.5t-130 80.5t-79.5 120t-27.5 149zM240 365q0 -49 17 -92.5t50 -75t79 -51t101 -19.5t101.5 19.5 t79 51t50 74.5t17.5 93q0 96 -67.5 162.5t-180.5 68.5q-113 -2 -180 -68.5t-67 -162.5z" />
<glyph unicode="&#xe51;" horiz-adv-x="974" d="M66 354q0 86 31.5 156t88 120t134 77.5t167.5 27.5q94 0 172 -29.5t132.5 -84t84 -131t29.5 -168.5q0 -166 -83 -273.5t-242 -193.5l-86 118q123 63 185 145.5t62 205.5q0 61 -19.5 110t-54 85t-80.5 55.5t-100 19.5q-49 0 -95 -18.5t-82 -49t-56.5 -74.5t-20.5 -98 q0 -195 220 -198l4 -146q-106 0 -180 26.5t-121 73t-68.5 108.5t-21.5 136z" />
<glyph unicode="&#xe52;" horiz-adv-x="1054" d="M80 324v622h164v-620q0 -51 27.5 -88t71.5 -59.5t99.5 -34t108.5 -11.5t103.5 11.5t88 34t60 59t22.5 88.5v100q0 53 -14 93t-49 56l-90 -75q-25 -23 -59.5 -21t-57.5 25l-66 69q-39 -29 -57 -106l-145 47q23 102 87 158.5t154 81.5l90 -101l107 101q135 -35 198.5 -120 t63.5 -194v-114q0 -86 -32.5 -149.5t-90 -104.5t-138.5 -60.5t-175 -19.5t-179 18.5t-149.5 58.5t-103.5 103.5t-39 151.5z" />
<glyph unicode="&#xe53;" horiz-adv-x="1038" d="M68 365q0 133 76.5 233t189.5 152l182 -140l186 140q55 -25 104.5 -64t86.5 -88t57.5 -107.5t20.5 -123.5q0 -123 -49.5 -220.5t-110.5 -166.5l-141 71l47 63q25 34 44 73.5t32.5 83.5t13.5 94q0 66 -26.5 119t-67.5 83l-142 -106q-53 -41 -106 -2l-137 106 q-39 -31 -68 -83t-29 -117q0 -96 51.5 -164t157.5 -70v-141q-104 2 -174.5 36.5t-115 88t-63.5 119t-19 131.5z" />
<glyph unicode="&#xe54;" horiz-adv-x="1085" d="M70 367q0 80 24.5 147.5t72.5 116.5t119.5 76.5t168.5 27.5h352l162 156l108 -107l-196 -190h-426q-104 -2 -163 -65.5t-59 -161.5t58.5 -162t163.5 -64h82q-37 59 -37 127q0 123 72.5 179.5t207.5 56.5h45v-142h-37q-57 0 -91.5 -18t-34.5 -74q0 -66 41.5 -96.5 t119.5 -32.5h119v-141h-487q-96 0 -168 27.5t-120 77t-72.5 116t-24.5 146.5z" />
<glyph unicode="&#xe55;" horiz-adv-x="1085" d="M70 367q0 80 24.5 147.5t72.5 116.5t119.5 76.5t168.5 27.5h8q-2 8 -2 25q0 72 50 122t122 50q70 0 120 -50.5t50 -121.5q0 -6 -1 -12.5t-1 -12.5h6l162 156l108 -107l-196 -190h-426q-104 -2 -163 -65.5t-59 -161.5t58.5 -162t163.5 -64h82q-37 59 -37 127 q0 123 72.5 179.5t207.5 56.5h45v-142h-37q-57 0 -91.5 -18t-34.5 -74q0 -66 41.5 -96.5t119.5 -32.5h119v-141h-487q-96 0 -168 27.5t-120 77t-72.5 116t-24.5 146.5zM578 760q0 -23 15 -38t40 -15t40 15t15 38q0 25 -15.5 40t-39.5 15q-25 0 -40 -15t-15 -40z" />
<glyph unicode="&#xe56;" horiz-adv-x="1054" d="M14 784l111 103l199 -191q43 20 105.5 33.5t131.5 13.5q106 0 186 -29.5t132.5 -80.5t79 -121t26.5 -147q0 -80 -26.5 -149t-80 -118t-132 -77.5t-185.5 -28.5q-174 0 -275.5 75.5t-113.5 188.5q-6 53 9.5 92t41 66.5t55 45t50.5 27.5l80 -127q-23 -14 -48.5 -34.5 t-21.5 -59.5q2 -31 23.5 -55.5t54.5 -39.5t70.5 -23.5t74.5 -8.5q127 0 192.5 63.5t65.5 162.5q0 98 -66.5 165.5t-191.5 67.5q-84 0 -147.5 -15.5t-122.5 -62.5z" />
<glyph unicode="&#xe57;" horiz-adv-x="1077" d="M68 348q0 76 24.5 138.5t64.5 112.5t91 89t106 68l172 -144l168 140q31 -12 69 -35t71 -49v278h163v-596q0 -66 -19.5 -123t-47 -104t-59 -82t-58.5 -55l-131 73q23 23 48.5 52.5t48 66.5t37.5 79t15 91q0 70 -38.5 126t-83.5 91l-127 -104q-57 -45 -111 0l-127 104 q-41 -35 -76 -86t-35 -131q0 -104 60.5 -159.5t150.5 -55.5v-143q-100 2 -171.5 34.5t-116.5 83t-66.5 112.5t-21.5 128z" />
<glyph unicode="&#xe58;" horiz-adv-x="1050" d="M68 371q0 68 21.5 133t65.5 116.5t113.5 83t165.5 31.5h348l154 160l117 -104l-195 -197h-424q-94 -2 -147.5 -63.5t-53.5 -159.5q0 -59 32 -111.5t71 -87.5l135 107q25 20 53.5 21t57.5 -21l139 -113q57 31 57 104q0 29 -20.5 48.5t-48.5 35.5l41 140q86 -29 136 -85.5 t50 -140.5q0 -92 -56.5 -159.5t-174.5 -120.5l-179 141l-180 -141q-55 25 -106.5 62.5t-89 86.5t-60 108.5t-22.5 125.5z" />
<glyph unicode="&#xe59;" horiz-adv-x="1165" d="M70 365q0 78 26.5 146.5t77.5 119.5t125 80.5t170 29.5q80 0 144.5 -27.5t113.5 -80.5q25 47 74 73.5t129 26.5h190v-137h-176q-35 0 -54.5 -11.5t-28.5 -29.5t-11 -43t-2 -49l231 -416l-145 -61l-256 448q-94 162 -209 162q-53 0 -96 -18.5t-74 -49t-48.5 -72.5 t-17.5 -91q0 -98 76 -166t199 -70v-143q-104 0 -186 29.5t-137.5 80.5t-85 120t-29.5 149z" />
<glyph unicode="&#xe5a;" horiz-adv-x="1185" d="M90 584q0 104 58.5 173.5t175.5 69.5h88v-147h-74q-49 0 -66.5 -25.5t-17.5 -70.5q0 -72 47 -101.5t135 -29.5q182 0 182 178v196h168v-827h-168v362q-37 -29 -87 -42t-95 -13q-158 0 -252 68t-94 209zM911 0v827h168v-827h-168z" />
<glyph unicode="&#xe5b;" horiz-adv-x="1859" d="M100 422q0 94 31 164.5t79 117t108.5 70t119.5 23.5q82 0 135.5 -35t88.5 -66l-105 -118q-74 66 -123 65q-33 0 -64.5 -14.5t-56 -42t-40 -68.5t-15.5 -96q0 -68 24.5 -116t64.5 -78.5t92.5 -45t107.5 -14.5q61 0 116.5 28.5t96.5 75.5t65.5 107.5t24.5 124.5 q0 23 -4 51.5t-17 65.5l107 77q27 -29 58.5 -66.5l63.5 -79.5l61 -84q30 -42 52 -77l30 56l29 58l23 50l17 37l80 26l100 -135h317v-139h-387l-39 51l-42 -77l-48 -84l-48 -80l-42 -66l-37 70q-20 39 -44 79l-46 77l-43 69q-45 -170 -160.5 -267.5t-281.5 -97.5 q-113 0 -197 31t-140 85t-84 128t-28 160z" />
<glyph unicode="&#x2000;" horiz-adv-x="841" />
<glyph unicode="&#x2001;" horiz-adv-x="1685" />
<glyph unicode="&#x2002;" horiz-adv-x="841" />
<glyph unicode="&#x2003;" horiz-adv-x="1685" />
<glyph unicode="&#x2004;" horiz-adv-x="561" />
<glyph unicode="&#x2005;" horiz-adv-x="419" />
<glyph unicode="&#x2006;" horiz-adv-x="280" />
<glyph unicode="&#x2007;" horiz-adv-x="280" />
<glyph unicode="&#x2008;" horiz-adv-x="208" />
<glyph unicode="&#x2009;" horiz-adv-x="335" />
<glyph unicode="&#x200a;" horiz-adv-x="92" />
<glyph unicode="&#x200b;" />
<glyph unicode="&#x2010;" horiz-adv-x="688" d="M119 350v148h448v-148h-448z" />
<glyph unicode="&#x2011;" horiz-adv-x="688" d="M119 350v148h448v-148h-448z" />
<glyph unicode="&#x2012;" horiz-adv-x="688" d="M119 350v148h448v-148h-448z" />
<glyph unicode="&#x2013;" horiz-adv-x="829" d="M72 354v146h686v-146h-686z" />
<glyph unicode="&#x2014;" horiz-adv-x="1404" d="M119 354v146h1167v-146h-1167z" />
<glyph unicode="&#x2018;" horiz-adv-x="419" d="M121 905v170l174 133v-303h-174z" />
<glyph unicode="&#x2019;" horiz-adv-x="419" d="M121 817v305h174v-172z" />
<glyph unicode="&#x201c;" horiz-adv-x="710" d="M121 905v170l174 133v-303h-174zM416 905v170l174 133v-303h-174z" />
<glyph unicode="&#x201d;" horiz-adv-x="710" d="M121 817v305h174v-172zM416 817v305h174v-172z" />
<glyph unicode="&#x2022;" horiz-adv-x="919" d="M236 418q0 45 17 86t48 71.5t72 49t88 18.5q45 0 86 -18.5t71.5 -49t49 -71.5t18.5 -86q0 -47 -18.5 -88t-49 -72t-71.5 -48t-86 -17q-47 0 -88 17t-72 48t-48 72t-17 88z" />
<glyph unicode="&#x202f;" horiz-adv-x="335" />
<glyph unicode="&#x205f;" horiz-adv-x="419" />
<glyph unicode="&#x20ac;" horiz-adv-x="964" d="M39 332v127h96v55v64h-96v127h102q6 68 26.5 122t68.5 101q53 53 122.5 82.5t147.5 29.5q141 0 242.5 -84t130.5 -241h-172q-18 78 -67.5 125t-133.5 47q-43 0 -82 -14.5t-62 -43.5q-23 -23 -35 -50t-20 -74h209v-127h-215v-64v-55h215v-127h-209q6 -49 19.5 -78 t35.5 -51q23 -29 62 -45.5t82 -16.5q84 0 134 49.5t69 126.5h170q-29 -160 -130.5 -243.5t-242.5 -83.5q-80 0 -148.5 29.5t-121.5 82.5q-49 49 -71 103.5t-26 126.5h-100z" />
<glyph unicode="&#x2122;" horiz-adv-x="1275" d="M53 918v112h496v-112h-182v-525h-129v525h-185zM606 393v637h115l182 -330l180 330h117v-637h-127v355l-119 -205h-104l-117 209v-359h-127z" />
<glyph unicode="&#x25cc;" horiz-adv-x="1148" d="M279 492l77 38q-4 -23 -4 -43q0 -18 4 -34zM362 281l27 81q23 -33 55 -55zM373 700l78 -26q-33 -20 -56 -51zM535 709l40 77l37 -75q-18 2 -34 2q-23 0 -43 -4zM539 268q18 -4 39 -4q16 0 30 4l-33 -71zM702 674l86 26l-30 -79q-23 30 -56 53zM705 303q29 20 49 49 l20 -71zM797 457q4 14 4 30q0 18 -4 39l71 -39z" />
<glyph unicode="&#xe000;" horiz-adv-x="780" d="M0 780h780v-780h-780v780z" />
<glyph unicode="&#xf700;" horiz-adv-x="778" d="M-25 625q47 104 135.5 157.5t204.5 53.5q53 0 93.5 -8.5t80.5 -26.5l168 157l117 -106l-164 -150q55 -74 56 -184v-518h-166v258q0 43 -16.5 64.5t-63.5 21.5h-135v141h137q41 0 78 -18v47q-10 176 -185 176q-59 0 -110 -33.5t-76 -101.5z" />
<glyph unicode="&#xf701;" d="M-907 981v129h565v-129h-565z" />
<glyph unicode="&#xf702;" d="M-907 981v129h405v115h160v-244h-565z" />
<glyph unicode="&#xf703;" d="M-907 981v129h260v18q0 68 47 115t113 47q68 0 114.5 -44t46.5 -111q0 -66 -47 -110t-114 -44h-420zM-535 1130q0 -20 14.5 -33.5t33.5 -13.5q23 0 37 13.5t14 33.5q0 23 -14.5 36.5t-36.5 13.5q-18 0 -33 -13.5t-15 -36.5z" />
<glyph unicode="&#xf704;" d="M-907 981v129h207v115h141v-115h76v115h141v-244h-565z" />
<glyph unicode="&#xf705;" d="M-567 977v303h157v-303h-157z" />
<glyph unicode="&#xf706;" d="M-786 979v117l67 14q31 6 31 43q0 35 -78 29v139q104 0 165.5 -36t61.5 -118q0 -12 -1 -23t-5 -24h201v-141h-442z" />
<glyph unicode="&#xf707;" d="M-838 1135q0 68 33 106.5t64 56.5q25 12 55.5 13.5t56.5 -25.5l41 -37l39 37q29 29 57.5 26t45.5 -14q35 -16 68.5 -57t33.5 -106v-31h74v-125h-207v156q0 39 -12 51l-50 -56q-14 -18 -44.5 -19t-53.5 22l-53 51q-12 -10 -14.5 -20.5t-2.5 -24.5q0 -23 22.5 -37.5 t57.5 -14.5v-114h-39q-76 0 -124 47t-48 115z" />
<glyph unicode="&#xf708;" d="M-735 1083v142h121v110h149v-110h121v-142h-121v-106h-149v106h-121z" />
<glyph unicode="&#xf709;" d="M-678 997q0 68 14.5 109t38 64.5t51 30.5t56.5 7h174v-137h-164q-27 0 -27 -74h-143z" />
<glyph unicode="&#xf70a;" d="M-270 987v303h164v-303h-164z" />
<glyph unicode="&#xf70b;" d="M-535 987v117l68 16q31 6 31 41t-78 29v139q104 0 165.5 -36t61.5 -117q0 -12 -1 -23.5t-5 -24.5h264v-141h-506z" />
<glyph unicode="&#xf70c;" d="M-715 1147q0 72 33 111.5t68 58.5q25 14 56.5 15t59.5 -27l41 -39l39 39q31 31 60.5 27.5t46.5 -13.5q37 -18 71.5 -61.5t34.5 -110.5v-31h164v-129h-301v160q0 18 -3 33.5t-9 21.5l-54 -59q-16 -18 -45.5 -19.5t-52.5 21.5l-57 55q-12 -10 -15.5 -21.5t-3.5 -27.5 q0 -23 23.5 -37t62.5 -14v-119h-43q-76 0 -126 49t-50 117z" />
<glyph unicode="&#xf70d;" d="M-385 1094v141h121v111h149v-111h121v-141h-121v-107h-149v107h-121z" />
<glyph unicode="&#xf70e;" d="M-414 993q0 68 14.5 109t38 64.5t51 30.5t56.5 7h240v-137h-230q-29 0 -28 -74h-142z" />
<glyph unicode="&#xf70f;" horiz-adv-x="1388" d="M45 598q72 119 170 178.5t229 59.5q188 0 279.5 -86t91.5 -242v-182q0 -92 38 -141.5t110 -49.5q74 0 114.5 49t40.5 142v501h164v-518q0 -66 -17.5 -123t-56.5 -100t-98 -68.5t-143 -25.5q-158 0 -237 82t-79 235v187q0 106 -54 149t-155 43q-53 0 -107 -19.5 t-102 -66.5l56 -80v-311q0 -29 9 -46.5t40 -17.5h82v-147h-98q-106 0 -151.5 55.5t-45.5 153.5v278z" />
<glyph unicode="&#xf710;" d="M-631 1186h154q0 -72 26 -72h508v-139h-526q-29 0 -57.5 8t-51 31.5t-38 64.5t-15.5 107z" />
<glyph unicode="&#xf711;" d="M-688 1102q0 72 50 122t122 50q70 0 120 -50t50 -122q0 -70 -50 -120t-120 -50q-72 0 -122 50t-50 120zM-571 1102q0 -23 15 -38t40 -15t40 15t15 38q0 25 -15.5 40t-39.5 15q-25 0 -40 -15t-15 -40z" />
<glyph unicode="&#xf712;" d="M-911 1155q0 33 13 65.5t36.5 59.5t58.5 44t78 19h412v-118h-402q-31 0 -46 -20.5t-17 -47.5q0 -16 6 -34.5t18 -30.5l95 59q35 20 73 0l99 -59q10 10 14 30.5t-4 42.5h127q8 -43 0 -77.5t-29.5 -61.5t-52.5 -45t-68 -29l-102 70q-20 14 -39 0l-100 -72q-70 23 -120 73 t-50 132z" />
<glyph unicode="&#xf713;" d="M-500 1339v303h158v-303h-158z" />
<glyph unicode="&#xf714;" d="M-596 1339v109l64 16q29 6 28 37q0 31 -74 29v129q98 0 155.5 -33t57.5 -110q0 -12 -1 -22.5t-5 -23.5h246v-131h-471z" />
<glyph unicode="&#xf715;" d="M-772 1491q0 70 31.5 106.5t62.5 53.5q23 14 52.5 14t58.5 -27l39 -36l36 36q29 29 56.5 27t44.5 -12q35 -16 67.5 -57.5t32.5 -104.5v-31h166v-121h-295v152q0 39 -12 51l-45 -55q-16 -18 -46 -19.5t-52 21.5l-54 51q-12 -10 -14 -20.5t-2 -26.5q0 -20 22.5 -33.5 t57.5 -13.5v-113h-41q-72 0 -119 46t-47 112z" />
<glyph unicode="&#xf716;" d="M-602 1442v137h117v107h143v-107h117v-137h-117v-103h-143v103h-117z" />
<glyph unicode="&#xf717;" d="M-477 1229q0 68 14 108.5t38 64t51.5 31t56.5 7.5h194v-140h-184q-16 0 -20.5 -18t-4.5 -53h-145z" />
<glyph unicode="&#xf718;" d="M-350 -358h71q47 0 80 -7.5t53.5 -27t30 -54t9.5 -92.5v-147h-158v145q0 25 -5 31t-20 6h-61v146z" />
<glyph unicode="&#xf719;" d="M-541 -360h78q76 0 102.5 -31t26.5 -103v-10q0 -14 9.5 -28.5t33.5 -14.5q25 0 33 14.5t8 28.5v144h144v-144q0 -78 -52.5 -125t-132.5 -47q-86 0 -135 47t-49 125q0 12 -10 12h-56v132z" />
<glyph unicode="&#xf71a;" d="M-295 -457q0 43 29.5 73t72.5 30t73 -30t30 -73t-30 -72.5t-73 -29.5t-72.5 29.5t-29.5 72.5z" />
<glyph unicode="&#xf71d;" horiz-adv-x="1124" d="M55 827h166l82 -557l197 557h114l197 -557l51 363q-2 27 -27.5 40t-82.5 15v139h106q35 0 54.5 17.5t27.5 42.5l29 88h168l-41 -131q-14 -43 -39 -74t-53 -51q31 -49 18 -107l-104 -612h-144l-217 567l-217 -567h-145z" />
<glyph unicode="&#xf880;" horiz-adv-x="1046" d="M72 410q0 94 34.5 177t96 144.5t143.5 96t174 34.5q94 0 177 -34.5t144.5 -96t96.5 -144.5t35 -177q0 -92 -35 -174t-96.5 -143.5t-144.5 -96.5t-177 -35q-92 0 -174 35t-143.5 96.5t-96 143.5t-34.5 174zM203 410q0 -66 25.5 -123.5t68.5 -100.5t100.5 -68.5 t122.5 -25.5q68 0 126.5 25.5t101.5 68.5t68.5 100.5t25.5 123.5q0 68 -25.5 126t-68.5 101t-101.5 68.5t-126.5 25.5q-66 0 -123 -25.5t-100 -68.5t-68.5 -101t-25.5 -126zM285 410q0 49 18.5 92t51 75.5t74.5 51t91 18.5t92 -18.5t76 -51t51.5 -75.5t18.5 -92t-18.5 -91.5 t-51.5 -75t-76 -51t-92 -18.5t-91 18.5t-74.5 51t-51 75t-18.5 91.5zM317 1221h156l-12 -287h-131zM412 410q0 -45 31.5 -77t76.5 -32q47 0 79 32t32 77q0 47 -32 78.5t-79 31.5q-45 0 -76.5 -31.5t-31.5 -78.5zM565 1221h156l-12 -287h-131z" />
<glyph unicode="&#xf881;" horiz-adv-x="1574" d="M39 598q72 119 169 178.5t230 59.5q186 0 277.5 -85t91.5 -243v-817h-162v805q0 106 -54 150t-155 44q-53 0 -107.5 -19.5t-101.5 -68.5l28 -40l26 -38v-313q0 -29 10 -46.5t41 -17.5h82v-147h-99q-106 0 -151 55.5t-45 153.5v278zM907 682q47 74 118 114t161 40 q141 0 211.5 -72t70.5 -207v-866h-163v862q0 63 -27 100t-92 37q-90 0 -148 -82z" />
<glyph unicode="&#xf882;" horiz-adv-x="1611" d="M45 145q43 -2 64.5 6.5t31 20.5t10.5 27.5t1 27.5v260l-78 111q72 119 169 178.5t230 59.5q186 0 277.5 -85t93.5 -243v-815h-166v803q0 106 -53.5 150t-153.5 44q-53 0 -106.5 -17.5t-100.5 -64.5l53 -78v-321q0 -72 -26.5 -113t-64.5 -62.5t-80 -27.5t-72 -6zM944 682 q47 74 118 114t161 40q141 0 211.5 -72t70.5 -207v-866h-164v862q0 63 -26.5 100t-91.5 37q-90 0 -148 -82z" />
<glyph d="M-674 989q0 104 24.5 145.5t65.5 49.5q8 29 24.5 44t37 23.5t43 9.5t41.5 1h86v-125h-82q-12 0 -14.5 -15.5t-2.5 -58.5h-63q-12 0 -14 -18.5t-2 -55.5h-144z" />
<glyph horiz-adv-x="948" d="M43 145q43 -2 64.5 5.5t32 19.5t11.5 27.5t1 27.5v264l-78 111q141 236 399 236q186 0 277.5 -84t93.5 -242v-641q0 -37 -11.5 -63.5t-25.5 -45t-30.5 -29t-24.5 -14.5q-25 -10 -60 -11t-63 11l-178 78q-8 4 -15 0l-211 -102l-92 110l260 125q29 14 48.5 14.5t52.5 -14.5 l168 -71q4 -2 10 1t6 13v625q0 106 -53.5 151t-153.5 45q-53 0 -106.5 -18.5t-100.5 -65.5l53 -78v-323q0 -72 -26.5 -113t-64.5 -62.5t-80 -27.5t-72 -6zM657 -498q0 43 30 73t73 30t72.5 -30t29.5 -73t-29.5 -72.5t-72.5 -29.5t-73 29.5t-30 72.5z" />
<glyph horiz-adv-x="950" d="M43 147q43 -2 64.5 5.5t32 19.5t11.5 26.5t1 26.5v264l-78 111q141 236 399 236q186 0 277.5 -84t93.5 -242v-649q0 -31 -11.5 -60.5t-32 -53t-48 -38t-60.5 -14.5q-35 0 -67 18l-123 68q-12 6 -23 0l-112 -68q-33 -18 -60.5 -15t-50.5 17l-211 146l139 80l119 -82 q14 -10 31 0l102 63q29 18 54.5 16.5t52.5 -16.5l121 -67q6 -4 10 1t4 11v631q0 106 -53.5 150t-153.5 44q-53 0 -106.5 -18.5t-100.5 -65.5l53 -76v-325q0 -72 -26.5 -113t-64.5 -62.5t-80 -27.5t-72 -6zM657 -498q0 43 30 73t73 30t72.5 -30t29.5 -73t-29.5 -72.5 t-72.5 -29.5t-73 29.5t-30 72.5z" />
<glyph horiz-adv-x="950" d="M43 145q43 -2 64.5 5.5t32 19.5t11.5 27.5t1 27.5v264l-78 111q141 236 399 236q186 0 277.5 -84t93.5 -242v-641q0 -37 -11.5 -63.5t-25.5 -45t-30.5 -29t-24.5 -14.5q-25 -10 -60 -11t-63 11l-178 78q-8 4 -15 0l-211 -102l-92 110l260 125q29 14 48.5 14.5t52.5 -14.5 l168 -71q4 -2 10 1t6 13v625q0 106 -53.5 151t-153.5 45q-53 0 -106.5 -18.5t-100.5 -65.5l53 -78v-323q0 -72 -26.5 -113t-64.5 -62.5t-80 -27.5t-72 -6zM600 -399h72q47 0 79.5 -7.5t53 -27t30 -54t9.5 -92.5v-147h-158v147q0 25 -5 31t-19 6h-62v144z" />
<glyph horiz-adv-x="950" d="M43 147q43 -2 64.5 5.5t32 19.5t11.5 26.5t1 26.5v264l-78 111q141 236 399 236q186 0 277.5 -84t93.5 -242v-649q0 -31 -11.5 -60.5t-32 -53t-48 -38t-60.5 -14.5q-35 0 -67 18l-123 68q-12 6 -23 0l-112 -68q-33 -18 -60.5 -15t-50.5 17l-211 146l139 80l119 -82 q14 -10 31 0l102 63q29 18 54.5 16.5t52.5 -16.5l121 -67q6 -4 10 1t4 11v631q0 106 -53.5 150t-153.5 44q-53 0 -106.5 -18.5t-100.5 -65.5l53 -76v-325q0 -72 -26.5 -113t-64.5 -62.5t-80 -27.5t-72 -6zM598 -399h72q47 0 79.5 -7.5t53 -27t30 -54t9.5 -92.5v-147h-158 v147q0 25 -5 31t-20 6h-61v144z" />
<glyph horiz-adv-x="675" d="M-709 1102q0 72 50.5 122t121.5 50q70 0 120 -50t50 -122q0 -70 -50 -120t-120 -50q-72 0 -122 50t-50 120zM-592 1102q0 -23 15.5 -38t39.5 -15q25 0 40.5 15t15.5 38q0 25 -15.5 40t-40.5 15t-40 -15t-15 -40zM8 682q47 74 118 114t161 40q141 0 211.5 -72t70.5 -207 v-557h-163v553q0 63 -27 100t-92 37q-90 0 -148 -82z" />
<glyph horiz-adv-x="675" d="M-709 1102q0 72 50.5 122t121.5 50q70 0 120 -50t50 -122q0 -70 -50 -120t-120 -50q-72 0 -122 50t-50 120zM-592 1102q0 -23 15.5 -38t39.5 -15q25 0 40.5 15t15.5 38q0 25 -15.5 40t-40.5 15t-40 -15t-15 -40zM8 682q47 74 118 114t161 40q141 0 211.5 -72t70.5 -207 v-557h-163v553q0 63 -27 100t-92 37q-90 0 -148 -82z" />
<glyph horiz-adv-x="950" d="M43 145q43 -2 64.5 5.5t32 19.5t11.5 27.5t1 27.5v264l-78 111q141 236 399 236q186 0 277.5 -84t93.5 -242v-641q0 -37 -11.5 -63.5t-25.5 -45t-30.5 -29t-24.5 -14.5q-25 -10 -60 -11t-63 11l-178 78q-8 4 -15 0l-211 -102l-92 110l260 125q29 14 48.5 14.5t52.5 -14.5 l168 -71q4 -2 10 1t6 13v625q0 106 -53.5 151t-153.5 45q-53 0 -106.5 -18.5t-100.5 -65.5l53 -78v-323q0 -72 -26.5 -113t-64.5 -62.5t-80 -27.5t-72 -6zM395 -401h84q78 0 106.5 -32t28.5 -108v-10q0 -12 7.5 -24.5t29.5 -12.5q23 0 29 12.5t6 24.5v150h156v-150 q0 -80 -53.5 -129t-137.5 -49q-88 0 -139 49t-51 129q0 4 -1 8t-9 4h-56v138z" />
<glyph horiz-adv-x="950" d="M43 147q43 -2 64.5 5.5t32 19.5t11.5 26.5t1 26.5v264l-78 111q141 236 399 236q186 0 277.5 -84t93.5 -242v-649q0 -31 -11.5 -60.5t-32 -53t-48 -38t-60.5 -14.5q-35 0 -67 18l-123 68q-12 6 -23 0l-112 -68q-33 -18 -60.5 -15t-50.5 17l-211 146l139 80l119 -82 q14 -10 31 0l102 63q29 18 54.5 16.5t52.5 -16.5l121 -67q6 -4 10 1t4 11v631q0 106 -53.5 150t-153.5 44q-53 0 -106.5 -18.5t-100.5 -65.5l53 -76v-325q0 -72 -26.5 -113t-64.5 -62.5t-80 -27.5t-72 -6zM395 -401h84q78 0 106.5 -32t28.5 -108v-10q0 -12 7.5 -24.5 t29.5 -12.5q23 0 29 12.5t6 24.5v150h156v-150q0 -80 -53.5 -129t-137.5 -49q-88 0 -139 49t-51 129q0 4 -1 8t-9 4h-56v138z" />
<glyph d="M-719 981v129h613v-129h-613z" />
<glyph d="M-717 981v129h451v125h160v-254h-611z" />
<glyph d="M-719 981v129h307v18q0 68 47.5 115t112.5 47q68 0 115 -44t47 -111q0 -66 -47 -110t-115 -44h-467zM-299 1133q0 -20 14.5 -34t32.5 -14q23 0 37 13.5t14 34.5q0 23 -14 36t-37 13q-18 0 -32.5 -13t-14.5 -36z" />
<glyph d="M-719 981v129h254v125h141v-125h76v125h142v-254h-613z" />
<glyph d="M-1034 981v129h737v-129h-737z" />
<glyph d="M-1034 981v129h577v115h160v-244h-737z" />
<glyph d="M-1034 981v129h438v18q0 68 47 115t113 47q68 0 115 -44t47 -111q0 -66 -47.5 -110t-114.5 -44h-598zM-483 1130q0 -20 14 -33.5t33 -13.5q23 0 37 13.5t14 33.5q0 23 -14.5 36.5t-36.5 13.5q-18 0 -32.5 -13.5t-14.5 -36.5z" />
<glyph d="M-1034 981v129h379v115h141v-115h76v115h141v-244h-737z" />
<glyph d="M-455 1339v303h158v-303h-158z" />
<glyph d="M-653 1339v109l63 16q29 6 29 37t-74 29v129q98 0 155.5 -33t57.5 -110q0 -12 -1 -22.5t-5 -23.5h246v-131h-471z" />
<glyph d="M-782 1491q0 70 31.5 106.5t62.5 53.5q23 14 52.5 14t57.5 -27l39 -36l37 36q29 29 56.5 27t44.5 -12q35 -16 67.5 -57.5t32.5 -104.5v-31h166v-121h-295v152q0 39 -12 51l-45 -55q-16 -18 -46 -19.5t-53 21.5l-53 51q-12 -10 -14 -20.5t-2 -26.5q0 -20 22.5 -33.5 t57.5 -13.5v-113h-41q-72 0 -119 46t-47 112z" />
<glyph d="M-563 1442v137h117v107h143v-107h117v-137h-117v-103h-143v103h-117z" />
<glyph d="M-1030 981v129h924v-129h-924z" />
<glyph d="M-1030 981v129h764v125h160v-254h-924z" />
<glyph d="M-1030 981v137h618v19q0 68 47.5 114.5t112.5 46.5q68 0 115 -46t47 -113q0 -66 -47 -112t-115 -46h-778zM-299 1137q0 -20 14.5 -33.5t32.5 -13.5q23 0 37 13t14 34q0 23 -14 36t-37 13q-18 0 -32.5 -13t-14.5 -36z" />
<glyph d="M-1030 981v137h565v125h141v-125h76v125h142v-262h-924z" />
<glyph d="M-264 1339v303h158v-303h-158z" />
<glyph d="M-401 1341v109l63 16q29 6 29 37t-74 29v129q98 0 155.5 -33t57.5 -110q0 -12 -1 -22.5t-5 -22.5h246v-132h-471z" />
<glyph d="M-592 1491q0 70 32 106.5t62 53.5q23 14 52.5 14t58.5 -27l39 -36l37 36q29 29 56.5 27t43.5 -12q35 -16 67.5 -57.5t32.5 -104.5v-31h166v-121h-295v152q0 39 -12 51l-45 -55q-16 -18 -46 -19.5t-52 21.5l-54 51q-12 -10 -14 -20.5t-2 -26.5q0 -20 22.5 -33.5 t57.5 -13.5v-113h-41q-72 0 -119 46t-47 112z" />
<glyph d="M-373 1442v137h117v107h143v-107h117v-137h-117v-103h-143v103h-117z" />
<glyph d="M-827 981v129h696v-129h-696z" />
<glyph d="M-827 981v129h536v125h160v-254h-696z" />
<glyph d="M-467 938q0 68 14.5 108.5t38 64.5t51 31t56.5 7h239v-139h-229q-16 0 -20.5 -18.5t-4.5 -53.5h-145z" />
<glyph horiz-adv-x="768" d="M100 272v283q0 66 22.5 118t60.5 89t90.5 56.5t111.5 19.5q57 0 109.5 -19.5t90.5 -56.5t60.5 -89t22.5 -118v-283q0 -66 -22.5 -118t-60.5 -88.5t-90.5 -56t-109.5 -19.5q-59 0 -111.5 19.5t-90.5 56t-60.5 88.5t-22.5 118zM256 276q0 -66 34 -105.5t95 -39.5 q59 0 93 40t34 105v275q0 66 -34 105.5t-93 39.5q-61 0 -95 -40t-34 -105v-275z" />
<glyph horiz-adv-x="702" d="M127 477v174l207 176h155v-827h-159v649z" />
<glyph horiz-adv-x="768" d="M90 0v137l330 295q43 39 66.5 77t23.5 79q0 53 -36 87t-93 34q-51 0 -91 -36t-40 -106h-160q0 63 22.5 115.5t61.5 90.5t92 58.5t115 20.5q63 0 115.5 -19.5t90.5 -53.5t59.5 -83t21.5 -106q0 -78 -43 -138.5t-109 -121.5l-203 -187h377v-143h-600z" />
<glyph horiz-adv-x="768" d="M45 84h160q4 -82 53 -118t111 -36q70 0 116.5 43t46.5 121q0 76 -40.5 118t-126.5 42h-31v141h31q78 0 114.5 41t36.5 111q0 72 -44 110.5t-103 38.5q-63 0 -104.5 -39t-45.5 -104h-162q2 68 28 121t67 90t96 56.5t121 19.5q68 0 124 -20.5t97 -59.5t63.5 -92.5 t22.5 -116.5q0 -78 -34 -133.5t-87 -85.5q66 -29 102.5 -88.5t36.5 -153.5q0 -76 -25.5 -133t-70.5 -95t-103.5 -57.5t-125.5 -19.5q-63 0 -121 17.5t-103 54.5t-71.5 93t-28.5 134z" />
<glyph horiz-adv-x="768" d="M35 0v147l371 732h172l-365 -727h244v237h155v-237h113v-152h-113v-152h-155v152h-422z" />
<glyph horiz-adv-x="768" d="M82 72h158q10 -68 44.5 -105t100.5 -37q31 0 58.5 9.5t48.5 29.5q31 31 39 77t8 97q0 45 -6.5 83t-23.5 67t-46 45t-72 16q-59 0 -96 -27.5t-47 -66.5h-144v567h570v-139h-426v-252q29 23 70.5 37t95.5 14q80 0 135 -28.5t89 -76.5t48 -110.5t14 -128.5q0 -74 -17 -139 t-54 -113.5t-97.5 -77t-146.5 -28.5q-141 0 -220 79t-83 208z" />
<glyph horiz-adv-x="768" d="M53 317q0 66 23.5 130.5t58.5 136.5l225 446h183l-205 -401q18 6 38.5 8t41.5 2q61 0 114.5 -21.5t94.5 -62.5t64.5 -99.5t23.5 -129.5q0 -78 -24.5 -139.5t-68.5 -105.5t-105.5 -67.5t-133.5 -23.5q-145 0 -237.5 86.5t-92.5 240.5zM215 322q0 -86 48 -135.5t120 -49.5 t120 49.5t48 135.5q0 74 -46 125t-122 51q-72 0 -120 -46t-48 -130z" />
<glyph horiz-adv-x="768" d="M74 526v301h631v-135l-351 -895h-172l350 891h-305v-162h-153z" />
<glyph horiz-adv-x="768" d="M57 297q0 86 42 145.5t94 92.5q-47 29 -83 84t-36 135q0 66 24.5 119t65.5 89.5t97 57t122 20.5t122 -20.5t98 -57t66.5 -90t24.5 -118.5q0 -80 -35.5 -135.5t-83.5 -83.5q51 -33 93.5 -92.5t42.5 -145.5q0 -72 -26 -128t-70 -96t-104 -61.5t-128 -21.5t-127 21.5 t-103 61.5t-70 96t-26 128zM219 297q0 -68 47 -116t117 -48q72 0 119 48t47 116t-47 116t-119 48q-70 0 -117 -48t-47 -116zM233 750q0 -68 42 -109t108 -41q68 0 108.5 41t40.5 109q0 61 -40.5 105t-108.5 44q-66 0 -108 -44t-42 -105z" />
<glyph horiz-adv-x="768" d="M53 502q0 76 24.5 138t68.5 106.5t104.5 68t132.5 23.5t133.5 -22.5t105.5 -65.5t68.5 -103.5t24.5 -136.5q0 -66 -23.5 -130.5t-58.5 -135.5l-225 -447h-185l207 402q-18 -6 -38.5 -8.5t-41.5 -2.5q-61 0 -114.5 21.5t-94.5 62.5t-64.5 99.5t-23.5 130.5zM217 506 q0 -74 46 -126t122 -52q72 0 120 46t48 132q0 84 -48 134t-120 50t-120 -50t-48 -134z" />
<glyph d="M-690 1180q0 33 13 65.5t37 59t58.5 44t77.5 19.5h412v-119h-402q-31 0 -46 -20.5t-17 -46.5q0 -16 6 -35t19 -31l94 60q35 20 73 0l99 -60q10 10 14 30.5t-4 43.5h127q8 -43 0 -78t-29.5 -61.5t-52.5 -45t-68 -28.5l-102 70q-20 14 -39 0l-100 -72q-70 23 -120 73 t-50 132z" />
<glyph d="M-631 1186h154q0 -76 26 -76h551v-129h-569q-29 0 -57.5 7t-51 29.5t-38 62.5t-15.5 106z" />
<glyph d="M-500 1257v304h158v-304h-158z" />
<glyph d="M-791 1257v109l64 16q29 6 29 37t-74 29v129q98 0 155.5 -33t57.5 -110q0 -12 -1 -22.5t-5 -22.5h225v-132h-451z" />
<glyph d="M-901 1409q0 70 31.5 106.5t62.5 53.5q23 14 52.5 14t58.5 -27l39 -36l36 36q29 29 56.5 27t44.5 -12q35 -16 67.5 -57t32.5 -105v-31h86v-121h-215v152q0 39 -12 51l-45 -55q-16 -18 -46 -19.5t-53 21.5l-53 51q-12 -10 -14 -20.5t-2 -26.5q0 -20 22.5 -33.5t57.5 -13.5 v-113h-41q-72 0 -119 46t-47 112z" />
<glyph d="M-602 1360v137h117v107h143v-107h117v-137h-117v-103h-143v103h-117z" />
<glyph d="M-264 1257v304h158v-304h-158z" />
<glyph d="M-401 1257v109l63 16q29 6 29 37t-74 29v129q98 0 155.5 -33t57.5 -110q0 -12 -1 -22.5t-5 -22.5h246v-132h-471z" />
<glyph d="M-592 1409q0 70 32 106.5t62 53.5q23 14 52.5 14t58.5 -27l39 -36l37 36q29 29 56.5 27t43.5 -12q35 -16 67.5 -57t32.5 -105v-31h166v-121h-295v152q0 39 -12 51l-45 -55q-16 -18 -46 -19.5t-52 21.5l-54 51q-12 -10 -14 -20.5t-2 -26.5q0 -20 22.5 -33.5t57.5 -13.5 v-113h-41q-72 0 -119 46t-47 112z" />
<glyph d="M-367 1360v137h117v107h144v-107h116v-137h-116v-103h-144v103h-117z" />
</font>
</defs>
</svg>
