<?xml version="1.0" standalone="no"?>
<!DOCTYPE svg PUBLIC "-//W3C//DTD SVG 1.1//EN" "http://www.w3.org/Graphics/SVG/1.1/DTD/svg11.dtd" >
<svg xmlns="http://www.w3.org/2000/svg">
<metadata>
This is a custom SVG webfont generated by Font Squirrel.
Designer    : Prinya Rojarayanont
Foundry     : Prinya R. nont
Foundry URL : http://www.dbfonts.biz
</metadata>
<defs>
<font id="webfontVprF7BHC" horiz-adv-x="0" >
<font-face units-per-em="1000" ascent="800" descent="-200" />
<missing-glyph horiz-adv-x="250" />
<glyph unicode=" "  horiz-adv-x="250" />
<glyph unicode="&#x09;" horiz-adv-x="250" />
<glyph unicode="&#xa0;" horiz-adv-x="250" />
<glyph unicode="!" horiz-adv-x="266" d="M167 131h-65l-22 414h110zM186 47q0 -26 -16.5 -39.5t-36 -13.5t-35.5 13.5t-16 39.5t16 39t35.5 13t36 -13t16.5 -39z" />
<glyph unicode="&#x22;" horiz-adv-x="294" d="M108 274h-47l-15 271h77zM234 274h-48l-15 271h78z" />
<glyph unicode="#" horiz-adv-x="463" d="M291 338h-100l-20 -128h99zM434 338h-87l-20 -128h87l-10 -52h-84h-2l-24 -157h-58l25 157h-1h-96l-25 -157h-57l24 157h-86l7 52h88l3 18q3 17 6 40l7 42l4 28h-87l9 52h86l12 76q5 33 12 75h58l-23 -151h93q3 0 3 4l24 147h59l-26 -151h87z" />
<glyph unicode="$" horiz-adv-x="394" d="M354 150q0 -60 -34.5 -102t-91.5 -55q3 -29 3 -67h-63v35q0 18 2 32q-22 3 -40 7.5t-34 11.5t-31 17t-31 24l28 76q46 -41 84.5 -53.5t66.5 -6.5t44 25t16 41q0 34 -16.5 54.5t-41 35t-53.5 26.5t-53.5 30.5t-41 46.5t-16.5 75q0 28 10 52t27 42t38 30t44 16q-2 11 -2 23 v29h63v-27q0 -13 -2 -25q19 -4 34 -8.5t27.5 -11t25 -15.5t26.5 -22l-42 -61q-29 30 -58.5 41t-54 6.5t-40 -24t-15.5 -50.5q0 -16 6 -28t15.5 -22t22 -17.5t24.5 -13.5l54 -28q27 -14 49.5 -32t36.5 -43.5t14 -63.5z" />
<glyph unicode="%" horiz-adv-x="569" d="M201 -1h-58l224 549h58zM273 408q-3 -35 -16.5 -60t-33.5 -41t-44 -22t-48 -4t-46.5 12.5t-39 28.5t-25.5 43t-7 57q3 45 25 73.5t52.5 41.5t64.5 11t61.5 -18.5t44 -47t12.5 -74.5zM554 137q1 -32 -9 -56.5t-27 -42.5t-40 -28t-47 -12t-48 4t-43 21.5t-31 40.5t-13 60 q-2 47 16 78.5t46 47t61 15.5t62.5 -14.5t50 -43t22.5 -70.5zM475 133q-2 42 -19 60t-34 16q-18 -1 -33.5 -20.5t-12.5 -60.5q2 -40 18.5 -57.5t34.5 -16t32.5 22t13.5 56.5zM146 493q-24 2 -37.5 -22t-14.5 -54.5t10.5 -56.5t36.5 -27t38 23t14 54t-10.5 55.5t-36.5 27.5z " />
<glyph unicode="&#x26;" horiz-adv-x="521" d="M498 4l-8 4l-7 6q-13 8 -27 18l-39 26q-52 -38 -105 -52.5t-98.5 -13t-79.5 15.5t-48 32q-26 35 -32 68t4.5 64.5t36 60.5t62.5 56q-18 24 -29.5 42.5t-19 34t-11 28.5t-3.5 27q-1 25 8.5 48.5t28 41.5t46.5 29t64 11q32 0 57.5 -10.5t43 -28.5t27 -41.5t9.5 -49.5 q0 -29 -28 -65t-91 -74l35 -34q16 -16 33 -30l37 -29q19 -15 46 -32l22 26l15 20l55 -40q-5 -8 -12.5 -18t-25.5 -31q23 -19 40 -31l30 -20zM305 427q-4 34 -26 50.5t-48 14.5t-44.5 -23t-15.5 -55q2 -21 13.5 -39.5t35.5 -44.5q40 26 63.5 47t21.5 50zM361 102 q-51 35 -93 72t-67 69q-42 -38 -50 -70t3.5 -56t35.5 -37.5t48 -13.5q12 0 22.5 1t23.5 5t31 11t46 19z" />
<glyph unicode="'" horiz-adv-x="169" d="M108 274h-47l-15 271h77z" />
<glyph unicode="(" horiz-adv-x="236" d="M233 644q-62 -80 -92.5 -170.5t-31 -183.5t29.5 -184t90 -171l-56 -38q-134 194 -134 392.5t134 393.5z" />
<glyph unicode=")" horiz-adv-x="236" d="M66 683q134 -195 134 -393.5t-134 -392.5l-55 38q60 80 89.5 171t29.5 184t-31 183.5t-93 170.5z" />
<glyph unicode="*" horiz-adv-x="405" d="M272 392q-11 -3 -18.5 -4t-15.5 -1q11 -6 25 -23l74 -89l-60 -43l-60 98q-12 18 -15 31q-2 -8 -5.5 -15.5t-8.5 -16.5l-62 -98l-59 44l75 89q12 15 24 22q-7 -1 -16 0.5t-18 3.5l-112 29l23 69l107 -43q10 -4 17 -8t13 -9q-6 15 -8 33l-8 116h73l-7 -116 q-1 -9 -2.5 -17.5t-4.5 -15.5l15 10q7 5 16 9l108 43l22 -69z" />
<glyph unicode="+" horiz-adv-x="453" d="M277 217q-8 0 -11 0.5t-10 2.5q2 -7 2 -10v-12v-155h-64v155q0 8 0.5 11.5t2.5 10.5q-8 -2 -11 -2.5t-11 -0.5h-151v60h151q8 0 11 -0.5t11 -2.5q-2 8 -2.5 11t-0.5 11v155h64v-155v-11q0 -3 -2 -11q7 2 10 2.5t11 0.5h152v-60h-152z" />
<glyph unicode="," horiz-adv-x="142" d="M118 31q-1 -19 -8 -38.5t-16 -37.5t-18 -32.5t-14 -23.5l-50 27q12 20 21.5 39t13 34t-1.5 24.5t-21 9.5l12 64q14 3 29.5 0.5t27.5 -10.5t19 -22t6 -34z" />
<glyph unicode="-" horiz-adv-x="314" d="M12 217v60h290v-60h-290z" />
<glyph unicode="." horiz-adv-x="142" d="M115 53q0 -24 -14.5 -35.5t-32 -11.5t-32 11.5t-14.5 35.5q0 23 14.5 34.5t32 11.5t32 -11.5t14.5 -34.5z" />
<glyph unicode="/" horiz-adv-x="341" d="M84 -82h-79l252 711h79z" />
<glyph unicode="0" horiz-adv-x="430" d="M397 238q0 -123 -49 -183.5t-133 -60.5t-133 60.5t-49 183.5q0 62 14 108.5t38 78t57.5 47t72.5 15.5q84 0 133 -61.5t49 -187.5zM312 238q0 51 -9 86.5t-23.5 57t-31.5 31.5t-33 10q-15 0 -32 -10t-31.5 -32t-24 -57.5t-9.5 -85.5t8.5 -84.5t22 -55.5t31 -30t35.5 -9 t35 8.5t31 28.5t22.5 54.5t8.5 87.5z" />
<glyph unicode="1" horiz-adv-x="430" d="M195 0v348v12q0 5 0.5 9t0.5 9l2 13q-26 -14 -44 -20t-36 -13l-19 61q17 5 41.5 17.5t47.5 25.5l56 32l35 -17v-477h-84z" />
<glyph unicode="2" horiz-adv-x="430" d="M378 0h-322l-8 42q41 28 87.5 64t85 75t62.5 78.5t20 74.5q-4 36 -29 55t-59.5 20.5t-73 -15t-69.5 -50.5l-30 74q34 32 72 49t76.5 21.5t73.5 -4t62.5 -28.5t44 -51t17.5 -72q1 -33 -13.5 -68t-40 -68t-59.5 -63t-73 -55v-2q8 2 20 4.5t17 2.5h152z" />
<glyph unicode="3" horiz-adv-x="430" d="M395 124q-3 -36 -23 -61.5t-50.5 -42t-68 -22.5t-76.5 -2.5t-76 16t-66 35.5l29 72q42 -29 85 -39.5t78.5 -6.5t58.5 21t25 43q1 19 -7 33t-21.5 23t-30 13.5t-32.5 4.5h-96v80h86q15 0 30.5 5t28 14t20.5 20.5t8 24.5q0 23 -15 37.5t-42 18t-65.5 -6t-84.5 -34.5l-31 70 q61 37 119 45.5t103 -4t72.5 -42.5t27.5 -69q0 -15 -2.5 -31.5t-10.5 -32t-22.5 -29t-38.5 -23.5v-3q51 -13 72 -47t16 -80z" />
<glyph unicode="4" horiz-adv-x="430" d="M405 77h-52q-6 0 -10.5 0.5t-10.5 2.5q2 -5 2.5 -12.5t0.5 -13.5v-54h-84v54q0 6 0.5 13.5t2.5 12.5q-6 -2 -10 -2.5t-11 -0.5h-189l-24 84l249 333l66 -18v-305q0 -6 -0.5 -12.5t-2.5 -11.5q6 2 11 2h10h60zM254 147q-2 7 -2.5 11.5t-0.5 12.5v169v11q0 5 2 10h-1 q-9 -16 -30 -47l-44 -64l-46 -62q-21 -28 -32 -40l1 -1q10 2 11 2h5h116h9q5 0 12 -2z" />
<glyph unicode="5" horiz-adv-x="430" d="M398 166q0 -56 -34.5 -96.5t-87.5 -59.5t-118 -14.5t-126 39.5l15 75q34 -19 78.5 -30t85 -7.5t70.5 24t35 65.5q3 30 -13.5 53.5t-48.5 39t-77.5 21.5t-99.5 1l38 210h260l-5 -78h-151q-5 0 -17 0.5t-21 3.5q1 -3 -0.5 -14t-3.5 -23.5t-4 -23.5t-3 -14q46 0 87 -9.5 t72.5 -30.5t50 -53.5t18.5 -78.5z" />
<glyph unicode="6" horiz-adv-x="430" d="M399 166q0 -36 -12 -67.5t-34.5 -54.5t-56 -36.5t-75.5 -13.5q-46 0 -81.5 17t-59 44.5t-35 61.5t-9.5 68q3 54 24 103.5t59 90t91 70t121 43.5l45 -56q-63 -16 -116 -42t-85 -72l2 -2q12 4 23 6.5t27 2.5q38 0 69.5 -11.5t54.5 -33t35.5 -51.5t12.5 -67zM319 171 q-2 30 -15.5 50.5t-33 32.5t-43 15.5t-44 -0.5t-37 -16t-21.5 -31q-8 -27 -4.5 -55.5t17 -51.5t35 -37.5t49.5 -13.5q23 1 41.5 10t31 23.5t18.5 33.5t5 40h1z" />
<glyph unicode="7" horiz-adv-x="430" d="M193 -8l-86 15l168 361q4 9 9 17q4 7 10 15l10 14q-15 -3 -32.5 -4t-28.5 -1h-209l15 78h320l23 -57z" />
<glyph unicode="8" horiz-adv-x="430" d="M399 140q0 -24 -10.5 -50t-33 -47t-57 -35t-82.5 -14q-51 0 -86 13t-57 34t-31.5 48t-9.5 55q0 15 6 33t18 34t29.5 28.5t41.5 17.5v3q-42 17 -58 45t-16 54q0 23 9.5 46t29.5 41.5t49.5 30t70.5 11.5q43 0 74 -11t51.5 -29t30.5 -41.5t10 -48.5q0 -29 -22.5 -58.5 t-55.5 -40.5v-2q23 -3 41.5 -15.5t31 -29.5t19.5 -36t7 -36zM295 358q0 37 -22.5 52.5t-56.5 15.5q-14 0 -28 -3.5t-25 -11.5t-18.5 -20.5t-7.5 -30.5q0 -23 21 -45.5t75 -36.5q38 19 50 39.5t12 40.5zM315 140q0 35 -25 60.5t-85 35.5q-17 -5 -32.5 -12.5t-28 -19.5 t-20 -27.5t-7.5 -36.5q0 -32 28.5 -54.5t70.5 -22.5q19 0 37 6t32 16t22 24t8 31z" />
<glyph unicode="9" horiz-adv-x="430" d="M396 297q-3 -54 -24 -103.5t-59 -90t-91.5 -70.5t-120.5 -43l-44 56q63 16 115.5 42t84.5 72l-2 2q-12 -4 -23 -6.5t-27 -2.5q-38 0 -69.5 11.5t-54 33t-35 51.5t-12.5 67q0 36 12 67.5t34.5 54.5t56 36.5t75.5 13.5q46 0 81.5 -17t58.5 -44.5t34.5 -61.5t9.5 -68z M308 260q8 27 4.5 55.5t-17 51.5t-35.5 37.5t-50 13.5q-23 -1 -41 -10t-31 -23.5t-19 -33.5t-5 -40q1 -30 14.5 -50.5t33.5 -32.5t43 -15.5t44 0.5t37 16t22 31z" />
<glyph unicode=":" horiz-adv-x="142" d="M115 321q0 -24 -14.5 -36t-32 -12t-32 12t-14.5 36q0 23 14.5 34.5t32 11.5t32 -11.5t14.5 -34.5zM115 82q0 -24 -14.5 -36t-32 -12t-32 12t-14.5 36q0 23 14.5 34.5t32 11.5t32 -11.5t14.5 -34.5z" />
<glyph unicode=";" horiz-adv-x="142" d="M118 31q-1 -19 -8 -38.5t-16 -37.5t-18 -32.5t-14 -23.5l-50 27q12 20 21.5 39t13 34t-1.5 24.5t-21 9.5l12 64q14 3 29.5 0.5t27.5 -10.5t19 -22t6 -34zM115 321q0 -24 -14.5 -36t-32 -12t-32 12t-14.5 36q0 23 14.5 34.5t32 11.5t32 -11.5t14.5 -34.5z" />
<glyph unicode="&#x3c;" horiz-adv-x="364" d="M36 215v71l292 172v-72l-198 -117q-23 -14 -40 -17v-2q17 -4 40 -17l198 -117v-72z" />
<glyph unicode="=" horiz-adv-x="364" d="M28 281v62h307v-62h-307zM28 150v62h307v-62h-307z" />
<glyph unicode="&#x3e;" horiz-adv-x="364" d="M35 44v72l198 117q11 7 21.5 11t18.5 6v2q-8 2 -18.5 6t-21.5 11l-198 117v72l292 -172v-71z" />
<glyph unicode="?" horiz-adv-x="343" d="M309 412q0 -46 -18 -79.5t-38 -62.5l-37 -52q-18 -28 -18 -60v-48h-76v62q0 37 16 66t35.5 55.5t35.5 53t16 58.5q0 26 -15.5 46t-40 25.5t-54.5 -7t-60 -50.5l-33 67q41 46 91 58.5t93.5 -0.5t73 -48t29.5 -84zM209 37q0 -25 -15.5 -37.5t-34 -12.5t-34 12.5t-15.5 37.5 t15.5 37t34 12t34 -12t15.5 -37z" />
<glyph unicode="@" horiz-adv-x="600" d="M578 305q0 -36 -11.5 -70t-31.5 -60.5t-46.5 -42.5t-56.5 -16q-48 0 -64 36q-24 -28 -60 -36t-69.5 3t-58 42t-26.5 82q-2 37 9.5 68.5t32.5 55t48.5 37t58.5 13.5q28 0 50.5 -10.5t33.5 -27.5v1l5 28h62l-33 -198q-3 -17 7.5 -21.5t24.5 6.5q7 5 16.5 15t18.5 24.5 t15 34.5t6 45q0 45 -17.5 78.5t-46 56t-64.5 33.5t-73 11q-40 0 -79 -14t-70 -41t-50 -67.5t-19 -94.5q0 -80 37 -131.5t95 -73t127.5 -14.5t135.5 44l16 -62q-50 -28 -104 -39.5t-107 -7.5t-101 24t-84 55t-57.5 85.5t-21.5 116.5q0 69 25 121.5t65.5 87.5t91.5 52.5 t104 17.5q48 0 95.5 -14.5t85.5 -45t61.5 -77t23.5 -110.5zM365 261q3 19 2 36t-8 30.5t-18.5 21.5t-29.5 8t-32.5 -7.5t-25.5 -20t-18.5 -28.5t-10.5 -33q-7 -44 11 -68.5t44 -27t51.5 19t34.5 69.5z" />
<glyph unicode="A" horiz-adv-x="537" d="M436 1l-65 166h-204l-66 -166h-95l235 544h58l234 -544h-97zM342 235l-16 39l-20 50l-20 54q-10 27 -17 48l-17 -48q-9 -27 -20 -54l-20 -50l-15 -39q14 1 33 1h39h39q19 0 34 -1z" />
<glyph unicode="B" horiz-adv-x="444" d="M411 154q-2 -38 -14.5 -67.5t-39 -50t-67 -31.5t-98.5 -11q-23 0 -35.5 0.5t-23.5 1.5q-11 2 -27 3.5t-51 3.5v539q35 3 55 4.5t32 2t20.5 1t20.5 0.5q84 1 136 -33t52 -107q0 -34 -16.5 -66.5t-51.5 -51.5q24 -5 44.5 -18.5t35 -32t22 -41.5t6.5 -46zM286 403 q0 17 -6.5 33t-24 26.5t-46.5 15t-74 -0.5q2 -10 2 -13v-128v-8q0 -4 -2 -9q5 1 8.5 1.5t7.5 0.5h58q11 0 24.5 5t25 15.5t19.5 25.5t8 36zM323 159q0 17 -8 33.5t-24 29t-40 20.5t-56 8h-44q-10 0 -15 1q0 -4 0.5 -7t0.5 -8v-148q0 -5 -0.5 -8t-1.5 -8q12 -1 24.5 -1.5 t22.5 -1.5q11 -1 23 -1q55 -2 86.5 22t31.5 69z" />
<glyph unicode="C" horiz-adv-x="464" d="M465 46q-46 -33 -97 -46t-100.5 -8.5t-94 26t-79 57.5t-54.5 85.5t-20 111.5q0 61 19.5 111t53 86t77.5 57.5t93.5 25.5t101 -10.5t99.5 -49.5l-34 -65q-51 36 -108.5 43t-105.5 -13t-79.5 -66.5t-31.5 -117.5q0 -70 32.5 -117t81.5 -68.5t106.5 -15.5t107.5 44z" />
<glyph unicode="D" horiz-adv-x="551" d="M525 267q0 -49 -16.5 -98.5t-54 -88.5t-98.5 -63t-151 -22q-20 0 -36.5 0.5t-33 1.5t-36 1.5t-44.5 2.5v544q38 2 68.5 2t50.5 1q24 0 42 1q54 1 109 -14t99.5 -49t72.5 -88t28 -131zM438 264q0 62 -21.5 102.5t-54.5 64.5t-72 33.5t-73 9.5l-82 -2q1 -6 1 -13v-12v-348 v-11q0 -6 -2 -14q11 -1 22.5 -1t21.5 -1q11 -1 22 -1q47 -2 90 9.5t76 36.5t52.5 62t19.5 85z" />
<glyph unicode="E" horiz-adv-x="449" d="M372 0h-317v545h298l6 -72h-213h-5q-3 0 -6 1q1 -3 1 -6v-4v-130q0 -6 -1 -10h11h188l5 -73h-193h-4q-3 0 -7 1q1 -3 1 -6v-4v-160v-4q0 -3 -1 -6q3 0 6 0.5t5 0.5h236z" />
<glyph unicode="F" horiz-adv-x="405" d="M146 473h-11q2 -8 2 -10v-138q0 -2 -0.5 -5t-0.5 -6q3 1 6 1h4h173l4 -73h-177h-4q-3 0 -7 1q2 -8 2 -11v-232h-82v545h290l6 -72h-205z" />
<glyph unicode="G" horiz-adv-x="543" d="M503 66q-42 -40 -93.5 -59t-105.5 -19q-52 0 -101.5 18t-88 53.5t-62 87t-23.5 118.5q0 70 23.5 123.5t62.5 90t89 55t103 18.5q51 0 101.5 -17.5t93.5 -53.5l-40 -62q-35 28 -75 42.5t-81 14.5q-37 0 -71.5 -12.5t-61 -38.5t-42.5 -65.5t-16 -93.5q0 -50 17 -87.5 t45 -62.5t62.5 -37t70.5 -12q30 0 58 9t51 26q-1 5 -1 11v118q0 7 1 11q-4 -1 -7 -1h-4h-104l5 73h194v-248z" />
<glyph unicode="H" horiz-adv-x="545" d="M408 0v229v9q0 5 1 10q-5 -1 -9 -1h-9h-238h-9q-4 0 -9 1q1 -5 1 -10v-9v-229h-81v545h81v-209v-8q0 -5 -1 -10h18h238h18q-1 5 -1 10v8v209h81v-545h-81z" />
<glyph unicode="I" horiz-adv-x="192" d="M55 0v545h83v-545h-83z" />
<glyph unicode="J" horiz-adv-x="343" d="M288 151q0 -70 -29 -106t-72 -47t-91.5 0t-88.5 35l20 68q49 -22 83 -27t55 2t30.5 24t9.5 39v406h83v-394z" />
<glyph unicode="K" horiz-adv-x="550" d="M379 0l-190 256l-53 -55l1 -201h-82v545h81v-194v-23q0 -8 -2 -19l10 13q6 7 12 13l205 218l87 -19l-204 -220l248 -314h-113z" />
<glyph unicode="L" horiz-adv-x="389" d="M371 0h-316v545h82v-446q0 -7 -1 -16t-2 -14q7 1 17 2t13 1h212z" />
<glyph unicode="M" horiz-adv-x="670" d="M557 0q-1 6 -6 38l-12 78l-15 97q-7 52 -11 97q-2 16 -3 37.5t-1 34.5q-5 -14 -10 -37.5t-11 -40.5l-37 -99l-37 -99l-30 -75q-13 -30 -13 -31h-73l-25 64l-29 76l-32 82q-16 42 -30 83q-6 17 -11 40t-10 38q-1 -13 -2 -35.5t-3 -39.5q-5 -45 -12 -96l-14 -96 q-6 -45 -12 -78l-6 -38h-86l84 545h68l70 -188l26 -71l24 -62l17 -48q7 -18 9 -22l5 -18l6 -21q2 10 5 21l5 18q1 4 8 22l17 48l24 62l27 71l70 188h69l84 -545h-87z" />
<glyph unicode="N" horiz-adv-x="548" d="M442 -9l-135 180l-51 69l-48 62l-37 49l-20 27q-3 4 -7 11l-10 15q1 -9 1.5 -21t0.5 -21v-362h-81v538l55 15l130 -173l50 -66l46 -62l38 -50l23 -30q2 -3 5 -9.5t7 -12.5q-1 8 -1 20v20v355h81v-539z" />
<glyph unicode="O" horiz-adv-x="576" d="M554 272q0 -66 -20 -119t-56 -90t-85 -56.5t-107 -19.5q-63 0 -112 22t-82.5 60t-51.5 90.5t-18 112.5q0 62 18.5 114.5t53 90t83.5 58.5t109 21q63 0 113 -22.5t84.5 -61.5t52.5 -90.5t18 -109.5zM467 271q0 47 -13.5 85.5t-37.5 66t-56.5 42.5t-69.5 15 q-38 0 -71 -12.5t-57.5 -38t-38.5 -64t-14 -89.5q0 -47 14.5 -86t39 -66.5t57.5 -43t70 -15.5q36 0 68 13t56.5 39t38.5 64.5t14 89.5z" />
<glyph unicode="P" horiz-adv-x="439" d="M217 209q-15 0 -40.5 1t-41.5 2q2 -5 2 -8v-8v-196h-82v542q21 0 43 1l44 2q20 1 36.5 2t25.5 1q69 1 113.5 -23.5t66 -62t20.5 -82t-23 -82t-63.5 -63t-100.5 -25.5v-1zM315 379q0 18 -6.5 35t-20 30.5t-33.5 21.5t-47 8q-11 0 -32 -0.5t-41 -2.5q1 -6 1.5 -10.5 t0.5 -8.5v-148q0 -4 -0.5 -9t-1.5 -10q21 -2 41.5 -2.5t28.5 -0.5q28 0 49 8.5t34.5 22t20 31t6.5 35.5z" />
<glyph unicode="Q" horiz-adv-x="576" d="M535 -107q-21 6 -44.5 16.5t-46.5 24.5t-43.5 30t-36.5 34q-36 -12 -79 -12q-63 0 -112 21.5t-82.5 59.5t-51.5 90t-18 114q0 63 18.5 115t53 89.5t83.5 58.5t109 21q63 0 112.5 -22.5t84 -61t53 -90.5t18.5 -110q0 -46 -8.5 -81.5t-23.5 -64t-36 -50.5t-46 -41 q13 -12 31 -23.5t38.5 -22t40 -19t35.5 -12.5zM465 270q0 47 -13.5 85.5t-37 66t-56 42.5t-69.5 15q-39 0 -72 -12.5t-57 -38t-38 -64t-14 -89.5q0 -47 14.5 -86t39 -66.5t57.5 -43t70 -15.5q36 0 68 13t56 39t38 64.5t14 89.5z" />
<glyph unicode="R" horiz-adv-x="453" d="M336 0l-123 212h-19q-10 0 -21 0.5t-21 1t-17 1.5q1 -5 1 -9v-8v-198h-81v542q21 0 43.5 1t42.5 2t36.5 2t25.5 1q61 1 102.5 -18t65 -49t30 -67.5t-3.5 -73.5t-35.5 -66.5t-65.5 -46.5l140 -227h-100zM314 379q0 18 -6.5 35t-20 30.5t-33 21.5t-46.5 8q-11 0 -32.5 -0.5 t-41.5 -2.5q2 -6 2 -11v-8v-148v-9q0 -5 -2 -10q22 -2 42.5 -2.5t27.5 -0.5q28 0 49 8.5t34.5 22t20 31t6.5 35.5z" />
<glyph unicode="S" horiz-adv-x="438" d="M405 160q0 -58 -32.5 -100t-86 -60t-121.5 -8t-140 56l28 83q63 -43 112.5 -52.5t84 1t52 33.5t16.5 46q-1 18 -9 30t-20 21t-27 14l-28 11l-66 21q-33 10 -60.5 27.5t-45 44.5t-17.5 72q0 54 31 91.5t80.5 52.5t112 5t125.5 -52l-34 -75q-45 31 -87 43t-74 6.5 t-50 -25.5t-16 -52q1 -15 10 -25.5t21.5 -18t27.5 -12.5l26 -9l66 -21q34 -11 60.5 -29t43.5 -46t17 -73z" />
<glyph unicode="T" horiz-adv-x="452" d="M284 472q-2 0 -7.5 0.5t-11.5 1.5q1 -6 1 -12v-7v-455h-80v455v9q0 5 1 10q-5 -1 -11 -1.5t-8 -0.5h-149l5 73h404l5 -73h-149z" />
<glyph unicode="U" horiz-adv-x="544" d="M489 205q0 -43 -15 -82t-43 -68.5t-68.5 -47t-90.5 -17.5q-48 0 -88.5 16.5t-69 46t-44.5 69t-16 84.5v339h82v-347q0 -27 11 -50.5t29.5 -41.5t43.5 -28t52 -10t52 10t43.5 28t29.5 41.5t11 50.5v347h81v-340z" />
<glyph unicode="V" horiz-adv-x="521" d="M296 1h-72l-219 533l83 20l158 -391q10 -23 14 -41l6 20q3 10 8 21l159 391l82 -20z" />
<glyph unicode="W" horiz-adv-x="791" d="M567 0h-72l-100 242q-2 -8 -5 -16l-7 -16l-28 -68l-28 -68l-30 -74h-72l-219 533l83 20l158 -391q10 -22 16 -46q3 11 7.5 21.5t9.5 24.5l73 182l-77 189l83 20l158 -391q5 -11 8 -21l6 -21q2 10 5.5 20t8.5 22l158 391l83 -20z" />
<glyph unicode="X" horiz-adv-x="535" d="M437 -16l-144 191q-8 10 -15.5 20.5t-13.5 21.5q-5 -11 -12 -21l-14 -19l-146 -193l-86 27l205 273l-189 247l87 25l129 -170q8 -11 14 -22l12 -21q11 24 26 43l129 170l88 -25l-189 -247l204 -273z" />
<glyph unicode="Y" horiz-adv-x="487" d="M285 242v-242h-82v242l-200 295l84 22l129 -193l14 -23q8 -12 14 -25q6 13 14 25l14 23l129 193l83 -23z" />
<glyph unicode="Z" horiz-adv-x="481" d="M454 0h-419l-16 36l289 405q3 5 11.5 14.5t16.5 19.5q-11 -2 -22 -2h-17h-261l9 72h396l16 -37l-286 -399q-6 -8 -15 -19l-17 -20q10 1 20 1.5t21 0.5h288z" />
<glyph unicode="[" horiz-adv-x="237" d="M57 -134v811h168l10 -57h-97q-9 0 -16 3q1 -4 2 -7.5t1 -9.5v-660q0 -6 -0.5 -13t-1.5 -13q5 1 11.5 2t12.5 1h78l10 -57h-178z" />
<glyph unicode="\" horiz-adv-x="341" d="M258 -82l-253 711h79l252 -711h-78z" />
<glyph unicode="]" horiz-adv-x="237" d="M12 -134l-9 57h97q7 0 16 -3q-2 4 -3 8t-1 9v660q0 14 3 26l-12 -2q-6 -1 -13 -1h-78l-9 57h177v-811h-168z" />
<glyph unicode="^" horiz-adv-x="351" d="M275 294l-73 140q-7 13 -15 26.5t-11 26.5h-2q-5 -13 -11 -26t-14 -27l-73 -140h-76l146 259h58l147 -259h-76z" />
<glyph unicode="_" horiz-adv-x="475" d="M0 -141v58h475v-58h-475z" />
<glyph unicode="`" horiz-adv-x="149" d="M111 387l-111 161h68l87 -161h-44z" />
<glyph unicode="a" horiz-adv-x="420" d="M397 -1q-9 -6 -23.5 -8t-29.5 2t-28.5 16t-20.5 35q-38 -36 -84 -47.5t-87 -1.5t-68.5 39t-27.5 75q0 45 20 76t55.5 50t83 27t101.5 8q-4 8 -4 24v19q0 15 -16.5 29t-46 19.5t-70.5 -0.5t-89 -29l-18 59q29 16 64 26.5t70.5 14t68.5 -1t59 -19t41.5 -39t15.5 -60.5v-226 q0 -38 45 -38zM289 223q-94 -9 -137 -34.5t-43 -70.5q0 -24 15 -38.5t40 -19t56.5 2t63.5 23.5v116q0 8 5 21z" />
<glyph unicode="b" horiz-adv-x="473" d="M445 215q0 -43 -10 -84t-35 -72.5t-67.5 -50.5t-106.5 -17q-18 0 -35 5.5t-31 13t-23.5 15.5t-12.5 14q-7 -20 -20 -31t-28 -15t-29.5 -2t-23.5 8l-11 49q25 0 35 12.5t10 35.5v521h80v-180v-11q0 -3 -0.5 -5.5t-1.5 -5t-3 -9.5q28 16 49 21.5t50 5.5q45 0 84 -15 t68 -43.5t45.5 -68.5t16.5 -91zM229 60q43 0 72 22.5t43.5 56t15 73t-14 73t-44.5 56t-76 23.5q-18 0 -46 -6t-48 -25q3 -12 4 -18t1 -14v-165q0 -4 -0.5 -12.5t-3.5 -17.5q14 -18 39.5 -32t57.5 -14z" />
<glyph unicode="c" horiz-adv-x="399" d="M380 48q-31 -29 -69 -43.5t-77 -14.5t-76 14t-66 41.5t-46.5 67.5t-17.5 92q0 81 35.5 133.5t88 76t113 17t110.5 -42.5l-37 -55q-35 25 -75 30.5t-73.5 -10t-56 -52t-22.5 -95.5q0 -48 23 -83t58 -51.5t77.5 -11t81.5 38.5z" />
<glyph unicode="d" horiz-adv-x="473" d="M450 -1q-9 -6 -23 -8t-29 1.5t-28.5 14.5t-20.5 32q-3 -6 -12.5 -14t-23.5 -15.5t-31 -13t-35 -5.5q-65 -2 -107 17t-67 50.5t-35 72.5t-10 84q0 51 16.5 91t45.5 68.5t68 43.5t84 15q29 0 50 -5.5t49 -21.5q-2 7 -3 9.5t-1.5 5t-0.5 5.5v11v180h80v-531q0 -38 45 -38z M342 105q-4 16 -4.5 19.5t-0.5 11.5v165q0 8 1 14t4 18q-20 19 -48 25t-46 6q-45 0 -75 -23t-45 -56.5t-14.5 -73t15 -73t43.5 -56t72 -22.5q32 0 58 13.5t40 31.5z" />
<glyph unicode="e" horiz-adv-x="443" d="M388 208h-278q0 -61 30 -96.5t72 -46t85.5 3t70.5 51.5l38 -53q-23 -32 -59.5 -51.5t-78.5 -24.5t-85 5.5t-77.5 37t-56 70.5t-21.5 107q0 42 12.5 81.5t38 71t64.5 50.5t93 19q48 0 83 -15.5t57 -41t32.5 -57.5t10.5 -66zM345 264q-4 30 -17.5 49.5t-30.5 30.5t-34 15.5 t-29 4.5q-24 0 -44.5 -8.5t-36 -23t-25 -32.5t-11.5 -36h228z" />
<glyph unicode="f" horiz-adv-x="239" d="M241 558q-27 0 -46 -8.5t-31 -23t-17.5 -33.5t-5.5 -40v-12q0 -12 -4 -20q5 2 10.5 2.5t9.5 0.5h67v-61h-67q-7 0 -20 3q4 -12 4 -24v-343h-79v343q0 5 1 11.5t3 12.5q-12 -3 -21 -3h-42v61h42q9 0 21 -3q-3 5 -3.5 10.5t-0.5 11.5v11q0 12 3 28t9 33t16 33.5t24 30.5 q23 21 58 33.5t76 3.5z" />
<glyph unicode="g" horiz-adv-x="451" d="M428 369q-5 -2 -15 -2t-22 1t-24.5 3t-21.5 4l-8 -6q23 -21 33 -49.5t8.5 -58.5t-16 -58.5t-41 -48.5t-65 -28.5t-89.5 1.5q-10 -6 -18.5 -16t-8 -20t14 -20t46.5 -16l80 -15q38 -8 67 -21.5t47 -35t20 -58.5q3 -45 -25.5 -77t-72.5 -50t-96.5 -21.5t-98.5 8.5t-77 39.5 t-33 72.5q-1 19 7.5 37.5t23.5 33.5t36.5 25.5t46.5 15.5q-1 1 -1 2q0 2 1 3q-34 6 -50.5 24.5t-17 40t14 41t43.5 28.5q-14 9 -28 20.5t-25 27.5t-18.5 35.5t-7.5 43.5q0 43 16.5 73.5t42.5 49t59 27t66 8.5q26 0 46.5 -7.5t33.5 -14.5q9 4 25.5 4.5t34 2t32 6t20.5 16.5z M208 176q32 0 52.5 15t29.5 38t8 49t-11.5 49t-30.5 38t-48 15q-31 0 -51 -15t-29.5 -38t-9.5 -49t10.5 -49t30.5 -38t49 -15zM338 -88q-3 28 -18 42t-36.5 21.5t-45.5 11t-43 9.5q-51 -14 -77 -42.5t-25 -55.5q1 -25 20 -40t47 -21t60 -4t59 12t44 27t15 40z" />
<glyph unicode="h" horiz-adv-x="464" d="M338 0v271q0 44 -21.5 67.5t-53 26t-66.5 -15t-61 -55.5v-294h-79v617h79v-213q0 -7 -0.5 -19.5t-4.5 -33.5l3 -1q35 52 83.5 71t92.5 10t75 -43t31 -88v-300h-78z" />
<glyph unicode="i" horiz-adv-x="193" d="M96 520q-26 0 -38.5 15.5t-12.5 34.5t12.5 34.5t38.5 15.5q25 0 37.5 -15.5t12.5 -34.5t-12.5 -34.5t-37.5 -15.5zM57 0v424h79v-424h-79z" />
<glyph unicode="j" horiz-adv-x="193" d="M96 520q-26 0 -38.5 15.5t-12.5 34.5t12.5 34.5t38.5 15.5q25 0 37.5 -15.5t12.5 -34.5t-12.5 -34.5t-37.5 -15.5zM136 -12q0 -43 -10 -73.5t-26 -50.5t-37 -31t-42.5 -16t-42.5 -5.5t-38 1.5l13 66q10 0 27.5 1t34.5 11t29.5 34t12.5 69v430h79v-436z" />
<glyph unicode="k" horiz-adv-x="426" d="M338 0l-150 182q-5 4 -7 10q-1 3 -2 5q-2 -3 -3 -5q-2 -2 -2.5 -3.5t-2.5 -3.5l-35 -31v-154h-79v617h79v-357q0 -5 -1 -14t-3 -19l8 10q3 4 6.5 8t5.5 6l184 183l64 -26l-152 -152q-3 -3 -7 -6l-7 -4q-4 -3 -8 -5q8 -3 12 -9l10 -11l184 -221h-94z" />
<glyph unicode="l" horiz-adv-x="193" d="M57 0v617h79v-617h-79z" />
<glyph unicode="m" horiz-adv-x="710" d="M583 0v276q0 37 -18 60t-45.5 27t-60 -12t-60.5 -55v-296h-79v276q0 37 -18 60t-45.5 27t-60 -12t-60.5 -55v-296h-79v326q0 20 -6 30t-14 14.5t-16 4.5h-12l11 50q24 9 45 8t36.5 -9.5t25 -23.5t9.5 -36l3 -2q26 41 63 57t74 13t67.5 -23t43.5 -50h4q19 28 46.5 46 t57.5 24t60 1t53.5 -22.5t38.5 -46.5t15 -71v-290h-79z" />
<glyph unicode="n" horiz-adv-x="464" d="M337 0v282q0 34 -19.5 56t-49 26.5t-65 -11.5t-67.5 -57v-296h-79v326q0 20 -6 30t-14 14.5t-16 4.5h-12l11 50q24 9 45 8t36.5 -9.5t25 -23.5t9.5 -36l3 -2q19 27 47.5 44t59 23t61 1t55 -21.5t39.5 -44.5t15 -68v-296h-79z" />
<glyph unicode="o" horiz-adv-x="489" d="M246 -9q-74 0 -122.5 32.5t-72 82t-22.5 106.5t25.5 106.5t72 82t117.5 32.5q71 0 119.5 -32.5t72.5 -82t25 -106.5t-23 -106.5t-72 -82t-120 -32.5zM253 55q45 0 73.5 23.5t41 58t10 75.5t-19 75.5t-46.5 58t-73 23.5q-46 0 -75 -23.5t-42 -58t-11 -75.5t19 -75.5 t48 -58t75 -23.5z" />
<glyph unicode="p" horiz-adv-x="473" d="M445 209q0 -51 -16.5 -91t-45.5 -68.5t-68 -43.5t-84 -15q-29 0 -50 5.5t-49 21.5q2 -7 3 -10t1.5 -5t0.5 -5v-11v-177h-80v518q0 23 -10 35t-35 12l11 50q9 6 23.5 8t29.5 -2t28 -15t20 -31q3 6 12.5 14t23.5 15.5t31 13t35 5.5q64 2 106.5 -17t67.5 -50.5t35 -72.5 t10 -84zM229 364q-32 0 -57.5 -14t-39.5 -33q3 -8 3.5 -16.5t0.5 -12.5v-165q0 -8 -1 -14.5t-4 -18.5q10 -9 22.5 -15t25.5 -9.5t25 -4.5t21 -1q46 0 76 23t44.5 56.5t14 73t-15 73t-43.5 56t-72 22.5z" />
<glyph unicode="q" horiz-adv-x="473" d="M461 375q-45 0 -45 -47v-518h-80v177v11q0 3 0.5 5t1.5 5t3 10q-28 -16 -49 -21.5t-50 -5.5q-45 0 -84 15t-68 43.5t-45.5 68.5t-16.5 91q0 43 10 84t35 72.5t67 50.5t107 17q18 0 35 -5.5t31 -13t23.5 -15.5t12.5 -14q7 21 20.5 31.5t28.5 14.5t29 2t23 -8zM342 90 q-3 12 -4 18.5t-1 14.5v165q0 17 5 30q-14 19 -40 32.5t-58 13.5q-43 0 -72 -22.5t-43.5 -56t-15 -73t14.5 -73t44.5 -56.5t75.5 -23q9 0 21 1t25 4.5t25.5 9.5t22.5 15z" />
<glyph unicode="r" horiz-adv-x="309" d="M294 348q-35 16 -61.5 10t-46 -22.5t-32.5 -37t-22 -33.5q2 -10 3 -15.5t1 -13.5v-236h-79v318q0 25 -11 41t-34 16l11 50q9 6 27 8.5t36.5 -5t32 -27.5t13.5 -60l3 -1l21 33q14 22 35.5 38.5t52 21t69.5 -18.5z" />
<glyph unicode="s" horiz-adv-x="391" d="M341 116q-3 -50 -32 -80t-73 -40.5t-99 -1.5t-109 38l24 63q32 -20 67.5 -28.5t65.5 -6t50.5 16t23.5 38.5q2 23 -14.5 37.5t-42 25.5t-55.5 22t-54 27.5t-38.5 41.5t-8.5 64q5 37 29 62t62 34t87 0t105 -40l-16 -55q-28 13 -59.5 22.5t-58.5 10t-45.5 -9t-21.5 -34.5 q-3 -22 12.5 -35t40 -23t53.5 -20t53.5 -25.5t40 -40t13.5 -63.5z" />
<glyph unicode="t" horiz-adv-x="258" d="M261 9q-58 -21 -97 -20t-63 16.5t-34 43t-10 60.5v229q0 6 1.5 16t5.5 15q-5 -2 -14 -2.5t-15 -0.5h-32v44q31 1 47 8.5t24.5 22.5t12 38.5t9.5 57.5h43l-2 -103q0 -2 -1.5 -9.5t-3.5 -9.5l8 2q10 2 15 2h85v-53h-86h-10q-5 0 -12 2q2 -3 3 -13.5t1 -16.5v-217 q0 -41 25.5 -56.5t87.5 2.5z" />
<glyph unicode="u" horiz-adv-x="464" d="M444 -1q-24 -9 -45 -8.5t-36.5 9t-25 24t-9.5 36.5l-3 2q-19 -27 -47.5 -44t-59.5 -23t-61.5 -1t-55 21.5t-39.5 44t-15 67.5v297h79v-282q0 -35 19.5 -57t49.5 -26t65.5 11.5t67.5 56.5v297h79v-326q0 -20 6 -30t14 -14.5t15.5 -5t11.5 -0.5z" />
<glyph unicode="v" horiz-adv-x="427" d="M250 0h-77l-164 414l76 19l110 -278q10 -26 11.5 -41t5.5 -30q4 15 5.5 30t12.5 41l112 278l76 -19z" />
<glyph unicode="w" horiz-adv-x="659" d="M482 0h-77l-83 209q-2 -8 -5 -17q-2 -8 -4.5 -17t-5.5 -17l-18 -49l-19 -51q-11 -28 -21 -58h-77l-163 414l75 19l118 -301q8 -19 10 -32l6 -29q4 15 7.5 33.5t11.5 37.5l57 147l-53 125l71 19l113 -288q10 -26 11.5 -40.5t5.5 -30.5q3 15 5 30t13 41l114 288l76 -19z " />
<glyph unicode="x" horiz-adv-x="416" d="M331 -9l-103 139q-11 15 -15.5 23.5t-6.5 13.5h-5q-2 -6 -6 -14.5t-15 -22.5l-100 -139l-71 21l152 208l-142 193l74 22l87 -126l12 -19q8 -15 10 -21h5q1 3 4.5 9t7.5 12l7 12q4 5 6 7l85 126l70 -22l-139 -193l159 -208z" />
<glyph unicode="y" horiz-adv-x="413" d="M218 -44q-36 -88 -90 -124.5t-137 -16.5l16 71q30 -10 51.5 -6t37 16t26 29.5t18.5 34.5l10 24l14 32l-155 398l76 19l100 -265q2 -5 8 -23.5t11 -38.5h3q5 20 10 37.5t8 25.5l105 264l74 -20z" />
<glyph unicode="z" horiz-adv-x="408" d="M370 0h-333l-9 34l218 297q8 11 18.5 21t12.5 13l-2 3l-16 -2q-7 -1 -13.5 -1.5t-9.5 -0.5h-197l7 60h308l13 -41l-208 -286q-7 -9 -18.5 -21.5t-17.5 -17.5l3 -3q19 2 29.5 3.5t24.5 1.5h199z" />
<glyph unicode="{" horiz-adv-x="228" d="M193 -140q-47 0 -76.5 33t-29.5 90v213q0 32 -10 47.5t-30 22.5v44q20 6 30 21.5t10 48.5v182q0 57 29.5 90t76.5 33l18 -52q-17 0 -27.5 -6.5t-16.5 -18t-8.5 -26t-2.5 -29.5v-176q0 -32 -9 -54t-35 -34v-2q26 -12 35 -34t9 -54v-209q0 -15 2.5 -29t8.5 -25.5t16.5 -18 t27.5 -6.5z" />
<glyph unicode="|" horiz-adv-x="167" d="M47 -134v812h73v-812h-73z" />
<glyph unicode="}" horiz-adv-x="228" d="M180 266q-20 -7 -29.5 -22.5t-9.5 -47.5v-213q0 -57 -29.5 -90t-76.5 -33l-18 51q17 0 27.5 6.5t16.5 18t8.5 25.5t2.5 29v209q0 32 9 54t35 34v2q-26 12 -35 34t-9 54v177q0 15 -2.5 29t-8.5 25.5t-16.5 18t-27.5 6.5l18 53q47 0 76.5 -33t29.5 -90v-183 q0 -33 9.5 -48.5t29.5 -21.5v-44z" />
<glyph unicode="~" horiz-adv-x="407" d="M378 265q-28 -27 -56 -32.5t-55 1t-53 18.5t-51.5 19t-50.5 3.5t-49 -28.5l-35 54q33 32 63.5 40t58.5 3.5t53.5 -16.5t49.5 -20.5t46.5 -8.5t43.5 21z" />
<glyph unicode="&#xa2;" horiz-adv-x="399" d="M346 137q-23 -22 -49.5 -33t-53.5 -13q1 -16 2 -38.5t1 -38.5h-62q0 15 1 39.5t2 41.5q-51 13 -87.5 55.5t-36.5 112.5q0 37 10 67t26.5 52t39 36.5t48.5 21.5q-1 17 -2 42t-1 40h62q0 -16 -1 -38.5t-2 -37.5q25 -2 50 -10.5t50 -25.5l-31 -45q-29 19 -62 24t-60.5 -7 t-45.5 -41t-18 -77q0 -42 18.5 -69.5t47 -39.5t63 -6.5t67.5 31.5z" />
<glyph unicode="&#xa3;" horiz-adv-x="400" d="M342 460q-49 22 -83 27t-55.5 -2.5t-31 -25t-9.5 -40.5v-79h112v-66h-112v-208h197v-66h-332v66h56v208h-56v66h56v67q0 69 28.5 105.5t70.5 47.5t90.5 0t87.5 -35z" />
<glyph unicode="&#xa5;" horiz-adv-x="487" d="M308 277l-23 -35v-42h173v-63h-173v-137h-82v137h-174v63h174v42l-24 35h-150v63h107l-133 197l84 22l81 -123l46 -69q16 -24 21.5 -33.5t8.5 -15.5q3 6 8.5 15.5t21.5 33.5l45 69l82 123l83 -23l-133 -196h107v-63h-150z" />
<glyph unicode="&#xa9;" horiz-adv-x="684" d="M616 270q0 -57 -21.5 -106.5t-59 -86t-88 -58t-107.5 -21.5t-106.5 21.5t-87 58t-59 86t-21.5 106.5q0 56 21.5 105.5t59 86t87 57.5t106.5 21t107 -21t87.5 -57.5t59.5 -86t22 -105.5zM564 270q0 47 -17.5 88t-48 72t-71.5 48.5t-87 17.5t-86.5 -17.5t-71 -48.5t-48 -72 t-17.5 -88t17.5 -88t48 -72t71 -48.5t86.5 -17.5t87 17.5t71.5 48.5t48 72t17.5 88zM443 164q-22 -18 -47 -28t-49 -10q-26 0 -50.5 9.5t-44 28t-31 45t-11.5 60.5q0 37 12 65.5t32 48t45 29t52 9.5q47 0 88 -27l-21 -34q-33 21 -67 21q-18 0 -35 -6.5t-30 -20t-21 -34.5 t-8 -50q0 -50 28.5 -76.5t66.5 -26.5q36 0 74 27z" />
<glyph unicode="&#xaa;" horiz-adv-x="420" d="M397 -1q-9 -6 -23.5 -8t-29.5 2t-28.5 16t-20.5 35q-38 -36 -84 -47.5t-87 -1.5t-68.5 39t-27.5 75q0 45 20 76t55.5 50t83 27t101.5 8q-4 8 -4 24v19q0 15 -16.5 29t-46 19.5t-70.5 -0.5t-89 -29l-18 59q29 16 64 26.5t70.5 14t68.5 -1t59 -19t41.5 -39t15.5 -60.5v-226 q0 -38 45 -38zM289 223q-94 -9 -137 -34.5t-43 -70.5q0 -24 15 -38.5t40 -19t56.5 2t63.5 23.5v116q0 8 5 21z" />
<glyph unicode="&#xab;" horiz-adv-x="302" d="M257 166l-117 118l117 118l36 -35l-69 -69q-3 -3 -7 -6l-9 -8q5 -3 8 -6l8 -8l69 -69zM124 166l-117 118l117 118l36 -35l-69 -69q-3 -3 -7 -6l-9 -8q5 -3 9 -7l7 -7l69 -69z" />
<glyph unicode="&#xad;" horiz-adv-x="314" d="M12 217v60h290v-60h-290z" />
<glyph unicode="&#xae;" horiz-adv-x="642" d="M598 270q0 -57 -21.5 -106.5t-59 -86t-88 -58t-107.5 -21.5t-106.5 21.5t-87 58t-59 86t-21.5 106.5q0 56 21.5 105.5t59 86t87 57.5t106.5 21t107 -21t87.5 -57.5t59.5 -86t22 -105.5zM546 270q0 47 -17.5 88t-48 72t-71.5 48.5t-87 17.5t-86.5 -17.5t-71 -48.5t-48 -72 t-17.5 -88t17.5 -88t48 -72t71 -48.5t86.5 -17.5t87 17.5t71.5 48.5t48 72t17.5 88zM388 133l-56 97q-9 -1 -19 -1q-8 0 -17 0.5t-14 2.5q1 -9 2 -15t1 -9v-6v-69h-64v273q5 0 10.5 0.5t13.5 0.5l87 4q25 1 44 -5.5t32 -18.5t19.5 -28t6.5 -33q0 -23 -15 -45t-46 -36 q11 -2 28 -25l34 -46l21 -32q9 -15 14 -15v6h-82zM334 277q22 0 32.5 13.5t10.5 28.5q0 16 -11 30t-32 14q-11 -1 -21 -1h-17q-9 0 -14 2q2 -11 2.5 -19.5t0.5 -26.5q0 -20 -0.5 -27.5t-2.5 -17.5q6 2 15 3t17 1h20z" />
<glyph unicode="&#xb1;" horiz-adv-x="453" d="M277 287q-8 0 -11 0.5t-10 2.5q2 -7 2 -10v-12v-155h-64v155q0 8 0.5 11.5t2.5 10.5q-8 -2 -11 -2.5t-11 -0.5h-151v60h151q8 0 11 -0.5t11 -2.5q-2 8 -2.5 11t-0.5 11v155h64v-155v-11q0 -3 -2 -11q7 2 10 2.5t11 0.5h152v-60h-152zM24 0v60h405v-60h-405z" />
<glyph unicode="&#xb2;" horiz-adv-x="430" d="M378 0h-322l-8 42q41 28 87.5 64t85 75t62.5 78.5t20 74.5q-4 36 -29 55t-59.5 20.5t-73 -15t-69.5 -50.5l-30 74q34 32 72 49t76.5 21.5t73.5 -4t62.5 -28.5t44 -51t17.5 -72q1 -33 -13.5 -68t-40 -68t-59.5 -63t-73 -55v-2q8 2 20 4.5t17 2.5h152z" />
<glyph unicode="&#xb3;" horiz-adv-x="430" d="M395 124q-3 -36 -23 -61.5t-50.5 -42t-68 -22.5t-76.5 -2.5t-76 16t-66 35.5l29 72q42 -29 85 -39.5t78.5 -6.5t58.5 21t25 43q1 19 -7 33t-21.5 23t-30 13.5t-32.5 4.5h-96v80h86q15 0 30.5 5t28 14t20.5 20.5t8 24.5q0 23 -15 37.5t-42 18t-65.5 -6t-84.5 -34.5l-31 70 q61 37 119 45.5t103 -4t72.5 -42.5t27.5 -69q0 -15 -2.5 -31.5t-10.5 -32t-22.5 -29t-38.5 -23.5v-3q51 -13 72 -47t16 -80z" />
<glyph unicode="&#xb9;" horiz-adv-x="430" d="M195 0v348v12q0 5 0.5 9t0.5 9l2 13q-26 -14 -44 -20t-36 -13l-19 61q17 5 41.5 17.5t47.5 25.5l56 32l35 -17v-477h-84z" />
<glyph unicode="&#xba;" horiz-adv-x="489" d="M246 -9q-74 0 -122.5 32.5t-72 82t-22.5 106.5t25.5 106.5t72 82t117.5 32.5q71 0 119.5 -32.5t72.5 -82t25 -106.5t-23 -106.5t-72 -82t-120 -32.5zM253 55q45 0 73.5 23.5t41 58t10 75.5t-19 75.5t-46.5 58t-73 23.5q-46 0 -75 -23.5t-42 -58t-11 -75.5t19 -75.5 t48 -58t75 -23.5z" />
<glyph unicode="&#xbb;" horiz-adv-x="302" d="M178 166l-36 35l69 69l7 7q4 4 9 7l-9 8q-4 3 -7 6l-69 69l36 35l117 -118zM45 166l-36 35l69 69l8 8q3 3 8 6l-9 8q-4 3 -7 6l-69 69l36 35l117 -118z" />
<glyph unicode="&#xbc;" horiz-adv-x="569" d="M164 0h-72l293 485h73zM522 39h-35h-1v-4v-35h-61v35v4h-1h-106l-15 53l136 175l47 -11v-161v-2h1h41zM425 95v67l-27 -37q-15 -20 -25 -32h51q2 0 0.5 0.5t0.5 -0.5v2zM95 227v191q-7 -3 -10.5 -4t-5.5 -2l-22 -6l-15 46q10 3 22 8.5l24 11.5l20 11l14 8q1 0 5 2 q2 1 3 1l26 -11v-256h-61z" />
<glyph unicode="&#xbd;" horiz-adv-x="569" d="M154 0h-72l293 485h73zM95 227v191q-7 -3 -10.5 -4t-5.5 -2l-22 -6l-15 46q10 3 22 8.5l24 11.5l20 11l14 8q1 0 5 2q2 1 3 1l26 -11v-256h-61zM527 0h-181l-5 34q22 15 46.5 33.5t44 38t31.5 38t10 34.5q-5 32 -41 32q-16 0 -35 -9.5t-39 -30.5l-22 55q23 23 49 33 t51 10q39 0 68 -23t30 -66q1 -30 -21 -61.5t-55 -57.5h79z" />
<glyph unicode="&#xbe;" horiz-adv-x="570" d="M204 0h-72l293 485h73zM542 39h-35h-1v-4v-35h-61v35v4h-1h-106l-15 53l136 175l47 -11v-161v-2h1h41zM445 95v67l-27 -37q-15 -20 -25 -32h51q2 0 0.5 0.5t0.5 -0.5v2zM231 293q-3 -37 -34 -55t-71 -18q-26 0 -51.5 7.5t-46.5 24.5l21 53q22 -16 41.5 -22.5t35.5 -6.5 q20 0 32 7t13 18q2 14 -11 22t-27 8h-57v57h52q13 0 24.5 7t11.5 17q0 8 -7.5 14.5t-21.5 6.5q-26 0 -73 -25l-23 50q26 16 50.5 23t45.5 7q38 0 63.5 -19.5t25.5 -49.5q0 -16 -4.5 -31t-23.5 -27q21 -10 29 -28t6 -40z" />
<glyph unicode="&#xe01;" horiz-adv-x="466" d="M335 0v303q0 38 -26 59.5t-62 25.5t-72.5 -9t-57.5 -44q16 -11 19.5 -26.5t3.5 -22.5v-286h-83v258q0 23 -2 37.5t-6 24t-10 15.5t-13 12q22 39 59.5 62.5t81 33.5t88.5 5.5t81 -21.5t59 -46.5t23 -70.5v-310h-83z" />
<glyph unicode="&#xe02;" horiz-adv-x="388" d="M340 149q0 -34 -10.5 -62.5t-30 -49.5t-48.5 -32.5t-66 -11.5q-73 0 -116.5 38t-43.5 107q0 46 10.5 73.5t22.5 48.5l24 38q10 18 10 45q0 13 -6 22.5t-15.5 14t-20.5 5t-21 -3.5l8 54q18 11 43.5 14t48 -3.5t38.5 -24.5t16 -50q0 -33 -11 -56.5t-24.5 -47.5t-24.5 -54.5 t-11 -77.5q0 -38 19.5 -59t53.5 -22q28 -1 50 18.5t22 58.5v312h83v-294z" />
<glyph unicode="&#xe03;" horiz-adv-x="389" d="M341 149q0 -34 -10.5 -62.5t-30 -49.5t-48.5 -32.5t-66 -11.5q-73 0 -116.5 38t-43.5 107q0 39 12.5 66.5t28 48t29.5 36.5t17 34q0 2 0.5 3.5t0.5 3.5v3q-43 -5 -71 21.5t-25 77.5l91 17v-23q0 -12 8 -17.5t17 -5.5t17 5.5t8 17.5t8 18t17.5 6t17.5 -6t8 -18v-32 q0 -45 -15 -77t-33 -60t-33 -56.5t-15 -65.5q0 -38 19 -59t53 -22q28 -1 50 18.5t22 58.5v312h83v-294z" />
<glyph unicode="&#xe04;" horiz-adv-x="497" d="M366 0v281q0 25 -10 45t-26.5 33.5t-38 20.5t-45.5 7q-23 0 -48.5 -8.5t-46.5 -28.5t-34.5 -51.5t-12.5 -77.5q0 -30 6.5 -53.5t15 -40t18 -26.5t17.5 -14l27 147q3 18 14 30.5t26.5 18t34.5 3t40 -15.5l-7 -63q-11 8 -24.5 2.5t-16.5 -24.5l-30 -185q-38 -11 -74 0 t-65 40.5t-47 75.5t-19 105q-1 56 16.5 99t48 72t72.5 43.5t90 14.5q46 0 83.5 -14t63.5 -37.5t40.5 -53.5t14.5 -63v-282h-83z" />
<glyph unicode="&#xe05;" horiz-adv-x="497" d="M366 0v288q0 36 -18 59t-39 33q-8 -8 -22 -16t-42 -8t-42.5 7.5t-21.5 15.5q-35 -15 -57 -56t-22 -104q0 -26 6 -48.5t14.5 -40t19 -29.5t19.5 -16l26 143q4 22 15 35.5t27 19t35 2.5t39 -15l-7 -62q-12 7 -25 1t-16 -23l-30 -186q-37 -12 -73.5 -0.5t-65.5 41.5 t-47.5 75.5t-18.5 102.5q0 54 12.5 94t35 68t53 44.5t65.5 24.5q5 -8 14 -14q7 -5 18 -9.5t27 -4.5t26.5 4.5t17.5 9.5q8 6 12 14q72 -16 110 -61t38 -107v-282h-83z" />
<glyph unicode="&#xe06;" horiz-adv-x="466" d="M418 117q0 -44 -25.5 -75t-66 -42t-91.5 1.5t-101 54.5q-4 -28 -18 -41.5t-30.5 -18t-32.5 -2t-25 5.5l-12 57q12 -5 24 3.5t12 27.5v112q0 22 8 39.5t18 32.5l21 28q10 13 14 25q0 1 0.5 2.5t0.5 3.5v3q-48 -8 -77.5 20t-26.5 78l91 17v-24q0 -12 8 -18.5t17.5 -6.5 t17.5 6.5t8 18.5t8.5 18.5t18 6.5t18 -6t8.5 -19v-31q0 -51 -11 -80t-24 -49l-24 -37q-11 -17 -11 -43v-51q43 -44 79.5 -57t63.5 -8t42 22t15 34v318h83v-326z" />
<glyph unicode="&#xe07;" horiz-adv-x="408" d="M392 222q0 -59 -22 -108t-61.5 -80t-95.5 -39.5t-125 15.5l-78 363l74 18l69 -314q34 -13 63 -5.5t50 29t33 54t12 68.5q0 51 -13.5 83t-33.5 50t-45 22.5t-47 0.5l13 67q40 8 77 -2.5t66 -39t46.5 -74.5t17.5 -108z" />
<glyph unicode="&#xe08;" horiz-adv-x="418" d="M397 229q0 -74 -25 -125t-65.5 -78.5t-91 -31.5t-101.5 16l-29 176q-3 17 -16 23t-25 -1l-7 62q20 12 39 15t35 -2.5t27 -19t15 -35.5l28 -154q26 -8 50.5 -0.5t43.5 27t30.5 50.5t11.5 72q0 60 -22 97.5t-61 51.5t-91.5 4.5t-112.5 -42.5l-14 69q81 40 151 45.5 t121 -18.5t80 -75t29 -126z" />
<glyph unicode="&#xe09;" horiz-adv-x="456" d="M432 0q-9 -3 -25.5 -5.5t-33.5 2.5t-30.5 19t-16.5 44q-48 -47 -97 -59.5t-89 -1t-64.5 43.5t-23.5 76l2 78q1 16 -6.5 24.5t-20.5 6.5l12 57q10 5 26.5 7.5t33 -2t28 -18.5t10.5 -42l-2 -99q0 -23 14 -41.5t39 -22t60 12t77 61.5v141q0 47 -26.5 71.5t-68.5 28 t-94.5 -11.5t-103.5 -46l-14 69q60 35 128.5 49.5t126.5 3t96.5 -49.5t38.5 -108v-200q0 -19 12 -27.5t24 -3.5z" />
<glyph unicode="&#xe0a;" horiz-adv-x="386" d="M365 444q0 -33 -11 -58.5t-25 -43.5q-16 -21 -35 -36q13 -11 25 -24.5t21 -30.5t14.5 -39t5.5 -50q0 -46 -14.5 -78t-38 -52.5t-53.5 -29.5t-62 -9q-48 0 -80.5 13.5t-52 35.5t-28 50t-8.5 58q0 36 10.5 61.5t23 46t23 40.5t10.5 46q0 10 -4.5 18.5t-13 14.5t-20 7.5 t-25.5 -3.5l8 54q19 11 44 14t47.5 -3.5t38.5 -24.5t16 -50q0 -33 -11 -57.5t-24.5 -48.5t-24.5 -51.5t-11 -66.5q0 -47 23 -70t59 -23q16 0 31.5 5t27.5 16.5t19 31.5t7 50q0 29 -8 52.5t-19.5 42t-24.5 31t-23 20.5q20 17 37 40q14 20 26 47.5t12 64.5z" />
<glyph unicode="&#xe0b;" horiz-adv-x="396" d="M375 444q0 -33 -11 -58.5t-25 -43.5q-16 -21 -35 -36q28 -23 47 -56.5t19 -87.5q0 -46 -14 -78t-37.5 -52.5t-53.5 -29.5t-62 -9q-33 0 -63.5 8t-53.5 26t-37 46.5t-14 68.5q0 37 11 63.5t24.5 47t26 36.5t15.5 34q0 2 0.5 3.5t0.5 3.5v3q-21 -2 -41.5 2.5t-36 16.5 t-23.5 32t-5 48l91 17v-27q0 -15 8.5 -22t19 -7t19 7.5t8.5 21.5q0 13 8.5 20.5t19 7.5t19.5 -7t9 -21v-28q0 -45 -13.5 -77t-29.5 -60t-29.5 -55.5t-13.5 -62.5q0 -24 7.5 -40.5t19.5 -26t26 -14t27 -4.5q16 0 31.5 5t27 16.5t18.5 31.5t7 50q0 29 -8 52.5t-19.5 42 t-24.5 31t-23 20.5q20 17 37 40q14 20 26 47.5t12 64.5z" />
<glyph unicode="&#xe0c;" horiz-adv-x="704" d="M656 125q0 -48 -25 -80.5t-63.5 -44t-85 1t-89.5 54.5l-1 -56h-72v305q0 26 -12 44t-31 27.5t-42 12t-45.5 -3t-42 -18t-30.5 -32.5q16 -11 19.5 -26.5t3.5 -22.5v-198q0 -19 12 -27.5t24 -3.5l-12 -57q-9 -4 -27 -6t-35.5 4t-31 23.5t-13.5 53.5v183q0 23 -2 37.5t-6 24 t-10 15.5t-13 12q24 39 61.5 62.5t79 33.5t84 5.5t76 -21.5t55 -46.5t21.5 -70.5v-184q37 -36 68.5 -48.5t54 -8.5t35 21t12.5 40v313h83v-318z" />
<glyph unicode="&#xe0d;" horiz-adv-x="704" d="M656 138q0 -48 -25 -80t-62 -48t-81 -16.5t-81 15t-62 47t-25 78.5v171q0 26 -12 44t-31 27.5t-42 12t-45.5 -3t-42 -18t-30.5 -32.5q16 -11 19.5 -26.5t3.5 -22.5v-198q0 -19 12 -27.5t24 -3.5l-12 -57q-9 -4 -27 -6t-35.5 4t-31 23.5t-13.5 53.5v183q0 23 -2 37.5 t-6 24t-10 15.5t-13 12q24 39 61.5 62.5t79 33.5t84 5.5t76 -21.5t55 -46.5t21.5 -70.5v-176q0 -41 26.5 -61t58.5 -20t58.5 20t26.5 61v309h83v-305zM664 -34q-9 -13 -25.5 -26t-39 -24t-52 -18t-64.5 -7q-20 0 -42 2.5t-43 8t-40 13t-34 17.5l29 55q35 -25 71 -31.5 t59 -6.5q18 0 39 2.5t41.5 9.5t39.5 18t33 28z" />
<glyph unicode="&#xe0e;" horiz-adv-x="466" d="M418 -66q0 -43 -24.5 -73.5t-59.5 -42.5t-74 -2t-67 49l-57 -56l-45 46l67 68q6 -1 13 -2q6 -1 13 -1h12h12q6 0 11 1q6 1 13 2q4 -23 21 -33t35 -8.5t32.5 14.5t14.5 37v369q0 23 -12 40.5t-31.5 28.5t-43.5 15t-48 0t-46 -17t-37 -35q16 -11 19.5 -26.5t3.5 -22.5v-211 q0 -36 -13.5 -53.5t-31 -23.5t-35.5 -4t-27 6l-12 57q12 -5 24 3.5t12 27.5v170q0 23 -2 37.5t-6 24t-10 15.5t-13 12q22 39 59.5 62.5t81 33.5t88.5 5.5t81 -21.5t59 -46.5t23 -70.5v-375z" />
<glyph unicode="&#xe0f;" horiz-adv-x="466" d="M418 -66q0 -43 -24.5 -73.5t-59.5 -42.5t-74 -2t-67 49l-46 -46h-70l-59 59l46 46l47 -47l46 46l14 -2q6 -1 13 -1h12h12q6 0 11 1q6 1 13 2q4 -23 21 -33t35 -8.5t32.5 14.5t14.5 37v369q0 23 -12 40.5t-31.5 28.5t-43.5 15t-48 0t-46 -17t-37 -35q16 -11 19.5 -26.5 t3.5 -22.5v-211q0 -36 -13.5 -53.5t-31 -23.5t-35.5 -4t-27 6l-12 57q12 -5 24 3.5t12 27.5v170q0 23 -2 37.5t-6 24t-10 15.5t-13 12q22 39 59.5 62.5t81 33.5t88.5 5.5t81 -21.5t59 -46.5t23 -70.5v-375z" />
<glyph unicode="&#xe10;" horiz-adv-x="420" d="M430 405q-15 -11 -33.5 -19t-41.5 -10h-1q43 -57 43 -147q0 -74 -25 -125t-65.5 -78.5t-91 -31.5t-101.5 16l-29 176q-3 17 -16 23t-25 -1l-7 62q20 12 39 15t35 -2.5t27 -19t15 -35.5l28 -154q26 -8 50.5 -0.5t43.5 27t30.5 50.5t11.5 72q0 60 -22 97.5t-61 51.5 t-91.5 4.5t-112.5 -42.5l-14 69q79 38 147 45t119 -15q23 -1 60 3.5t69 23.5zM398 -66q0 -43 -24.5 -73.5t-59.5 -42.5t-74 -2t-67 49l-46 -46h-70l-59 59l46 46l47 -47l46 46l14 -2q6 -1 13 -1h12h12q6 0 11 1q6 1 13 2q7 -22 24.5 -30.5t34.5 -5t30.5 17.5t13.5 38v40h83 v-49z" />
<glyph unicode="&#xe11;" horiz-adv-x="466" d="M335 0v338q0 12 -11.5 24t-31 13t-46 -14.5t-56.5 -58.5q-8 -20 -18 -34l-18 -26q-8 -12 -13.5 -25.5t-5.5 -31.5v-185h-83v200q0 22 8 39.5t18 32.5l21 28q10 13 14 25q0 1 0.5 2.5t0.5 3.5v3q-48 -8 -77.5 20t-26.5 78l91 17v-24q0 -12 8 -18.5t17.5 -6.5t17.5 6.5 t8 18.5t8.5 18.5t18 6.5t18 -6t8.5 -19v-31v-9q33 43 70.5 56.5t69 5t52.5 -35t21 -63.5v-348h-83z" />
<glyph unicode="&#xe12;" horiz-adv-x="721" d="M673 125q0 -47 -23.5 -78.5t-60 -44t-81 -3t-86.5 45.5l-2 -45h-70v288q0 30 -14.5 54.5t-42.5 34.5q-6 -8 -21 -15.5t-37 -7.5q-20 0 -36 7.5t-22 15.5q-15 -9 -28.5 -20t-24 -29t-16.5 -44.5t-6 -64.5q0 -30 7 -54.5t17.5 -42.5t22 -28.5t20.5 -13.5l40 124 q6 18 -6.5 27.5t-26.5 7.5l20 59q21 5 40.5 0t34 -17t20.5 -29.5t0 -38.5l-66 -213q-36 -12 -73 -0.5t-66 41.5t-47.5 75.5t-18.5 102.5q0 54 12 93t33 66.5t50 44.5t64 27q4 -9 12 -16q6 -6 16.5 -10.5t26.5 -4.5t26.5 4.5t17.5 10.5q8 6 13 15q72 -18 107 -61.5t35 -105.5 v-8q0 -8 -0.5 -20t-0.5 -27v-30v-82q35 -31 64 -41t50 -5t32.5 22t11.5 39v313h83v-318z" />
<glyph unicode="&#xe13;" horiz-adv-x="704" d="M680 2q-5 -4 -20.5 -7t-33.5 1.5t-33 20t-17 48.5q-44 -49 -89.5 -63.5t-82.5 -3t-60.5 45t-23.5 80.5v181q0 26 -12 44t-31 27.5t-42 12t-45.5 -3t-42 -18t-30.5 -32.5q16 -11 19.5 -26.5t3.5 -22.5v-198q0 -19 12 -27.5t24 -3.5l-12 -57q-9 -4 -27 -6t-35.5 4t-31 23.5 t-13.5 53.5v183q0 23 -2 37.5t-6 24t-10 15.5t-13 12q24 39 61.5 62.5t79 33.5t84 5.5t76 -21.5t55 -46.5t21.5 -70.5v-182q0 -24 13 -41.5t36 -20.5t54 12.5t67 57.5v307h83v-363q0 -11 5 -16.5t12 -7.5q8 -3 18 -2z" />
<glyph unicode="&#xe14;" horiz-adv-x="498" d="M367 0v281q0 48 -34 77t-88 29q-35 0 -62.5 -13.5t-45.5 -37t-27 -54.5t-7 -65q1 -33 8.5 -57t17.5 -40.5t21 -26t20 -13.5l40 125q6 19 -6.5 27.5t-26.5 6.5l20 59q21 5 40.5 0.5t34 -16.5t20.5 -29.5t0 -38.5l-66 -214q-41 -12 -77.5 0.5t-64 43t-45 75t-18.5 96.5 q-2 52 13 95t44.5 74t71 48.5t94.5 17.5q49 0 87.5 -14.5t64.5 -38t40 -54t14 -61.5v-282h-83z" />
<glyph unicode="&#xe15;" horiz-adv-x="498" d="M367 0v288q0 35 -18 58t-38 32q-7 -8 -22 -16t-43 -8t-43.5 8t-22.5 16q-30 -14 -53.5 -50.5t-23.5 -107.5q0 -31 7 -55.5t17.5 -42.5t22 -28.5t20.5 -13.5l40 125q6 18 -6.5 27t-26.5 7l20 59q21 5 40.5 0t34 -17t20.5 -29.5t0 -37.5l-66 -214q-37 -12 -73.5 -0.5 t-65.5 41.5t-47 75.5t-19 102.5q-1 53 11.5 93t35 68t53.5 45t66 25q5 -9 14 -15q7 -6 18 -10.5t27 -4.5t27 4.5t18 10.5q8 6 13 15q66 -14 106 -59t40 -109v-282h-83z" />
<glyph unicode="&#xe16;" horiz-adv-x="466" d="M335 0v302q0 23 -12 40.5t-31.5 28.5t-43.5 15t-48 0t-46 -17t-37 -35q16 -11 19.5 -26.5t3.5 -22.5v-198q0 -19 12 -27.5t24 -3.5l-12 -57q-9 -4 -27 -6t-35.5 4t-31 23.5t-13.5 53.5v183q0 23 -2 37.5t-6 24t-10 15.5t-13 12q22 39 59.5 62.5t81 33.5t88.5 5.5 t81 -21.5t59 -46.5t23 -70.5v-309h-83z" />
<glyph unicode="&#xe17;" horiz-adv-x="466" d="M335 0v321q0 20 -13.5 38t-39.5 21.5t-63 -14t-84 -68.5v-298h-83v355q0 19 -12 27.5t-24 3.5l12 57q9 4 27 6t35.5 -4t31 -23.5t13.5 -53.5q49 54 99 70.5t91 7t67 -40t26 -69.5v-336h-83z" />
<glyph unicode="&#xe18;" horiz-adv-x="395" d="M372 135q0 -50 -25.5 -83t-70 -47t-105 -9t-129.5 31v180h83v-129q76 -25 119.5 -7.5t43.5 63.5q0 28 -18 43t-45.5 24.5t-59.5 16t-59.5 19t-45.5 33.5t-18 58q0 45 26 74.5t70 41t101.5 3.5t119.5 -38l-18 -64q-36 18 -73.5 28.5t-69 10t-51.5 -13.5t-20 -41 q0 -17 18 -26t45 -16l60 -15q31 -7 58.5 -23t45.5 -43t18 -71z" />
<glyph unicode="&#xe19;" horiz-adv-x="466" d="M442 0q-12 -6 -30 -7t-34.5 5.5t-29 21t-13.5 40.5q-51 -48 -101.5 -60.5t-91 -0.5t-65.5 44t-25 74l1 238q0 19 -12 27.5t-24 3.5l12 57q9 4 27 6t35.5 -4t31 -23.5t13.5 -53.5l-1 -246q0 -20 15 -37.5t41.5 -21.5t63 10.5t80.5 59.5v310h83v-355q0 -19 12 -27.5 t24 -3.5z" />
<glyph unicode="&#xe1a;" horiz-adv-x="466" d="M418 142q0 -49 -27 -82t-68 -49.5t-88.5 -16.5t-88 16.5t-67.5 49t-27 81.5l1 214q0 19 -12 27.5t-24 3.5l12 57q9 4 27 6t35.5 -4t31 -23.5t13.5 -53.5l-1 -223q0 -30 14.5 -50.5t37 -30.5t48.5 -10t48 10t37 30.5t15 50.5v298h83v-301z" />
<glyph unicode="&#xe1b;" horiz-adv-x="466" d="M418 142q0 -49 -27.5 -82t-68 -49.5t-88 -16.5t-88.5 16.5t-68 49t-26 81.5l2 214q0 19 -12 27.5t-24 3.5l12 57q9 4 27 6t36 -4t31 -23.5t13 -53.5l-2 -223q0 -30 14.5 -50.5t37 -30.5t48.5 -10t48 10t37 30.5t15 50.5v432h83v-435z" />
<glyph unicode="&#xe1c;" horiz-adv-x="583" d="M535 146q0 -45 -15 -76.5t-38.5 -49.5t-52.5 -23.5t-56.5 1t-50 24.5t-34.5 48q-16 -38 -45.5 -57.5t-67.5 -19.5q-46 0 -74.5 20.5t-44 53.5t-20.5 74t-5 82q0 74 17 121.5t43 73t57 30.5t59 -5l11 -56q-17 4 -35.5 -0.5t-33.5 -22t-24.5 -51.5t-9.5 -90q0 -47 4 -77 t13 -48t23 -25t33 -7q33 0 47.5 25.5t14.5 62.5v186h77v-186q0 -39 15.5 -63.5t47.5 -24.5q27 0 44.5 17.5t17.5 55.5v304h83v-297z" />
<glyph unicode="&#xe1d;" horiz-adv-x="583" d="M535 146q0 -45 -15 -76.5t-38.5 -49.5t-52.5 -23.5t-56.5 1t-50 24.5t-34.5 48q-16 -38 -45.5 -57.5t-67.5 -19.5q-46 0 -74.5 20.5t-44 53.5t-20.5 74t-5 82q0 74 17 121.5t43 73t57 30.5t59 -5l11 -56q-17 4 -35.5 -0.5t-33.5 -22t-24.5 -51.5t-9.5 -90q0 -47 4 -77 t13 -48t23 -25t33 -7q33 0 47.5 25.5t14.5 62.5v186h77v-186q0 -39 15.5 -63.5t47.5 -24.5q27 0 44.5 17.5t17.5 55.5v438h83v-431z" />
<glyph unicode="&#xe1e;" horiz-adv-x="594" d="M545 146q0 -45 -14.5 -76.5t-37 -50t-50.5 -24t-55.5 1t-51.5 25t-38 48.5q-14 -30 -38 -48.5t-51.5 -25t-55.5 -1t-50.5 24t-37 50t-13.5 76.5l2 209q0 19 -12 27.5t-24 3.5l12 57q9 4 27 6t36 -4t31 -23.5t13 -53.5l-2 -229q0 -38 17.5 -55t44.5 -17q32 0 47.5 24 t15.5 63v289h77v-289q0 -39 15.5 -63t47.5 -24q27 0 44.5 17t17.5 55v304h83v-297z" />
<glyph unicode="&#xe1f;" horiz-adv-x="593" d="M545 146q0 -45 -14.5 -76.5t-37 -50t-50.5 -24t-55.5 1t-51.5 25t-38 48.5q-14 -30 -38 -48.5t-51.5 -25t-55.5 -1t-50.5 24t-37 50t-13.5 76.5l2 209q0 19 -12 27.5t-24 3.5l12 57q9 4 27 6t36 -4t31 -23.5t13 -53.5l-2 -229q0 -38 17.5 -55t44.5 -17q32 0 47.5 24 t15.5 63v289h77v-289q0 -39 15.5 -63t47.5 -24q27 0 44.5 17t17.5 55v438h83v-431z" />
<glyph unicode="&#xe20;" horiz-adv-x="466" d="M335 0v302q0 23 -12 40.5t-31.5 28.5t-43.5 15t-48 0t-46 -17t-37 -35q16 -11 19.5 -26.5t3.5 -22.5v-211q0 -36 -13.5 -53.5t-31 -23.5t-35.5 -4t-27 6l-12 57q12 -5 24 3.5t12 27.5v170q0 23 -2 37.5t-6 24t-10 15.5t-13 12q22 39 59.5 62.5t81 33.5t88.5 5.5t81 -21.5 t59 -46.5t23 -70.5v-309h-83z" />
<glyph unicode="&#xe21;" horiz-adv-x="466" d="M418 117q0 -42 -25 -74t-65.5 -44t-91 0.5t-101.5 60.5q-2 -26 -14 -40.5t-28.5 -21t-34.5 -5.5t-30 7l-12 57q12 -5 24 3.5t12 27.5l1 267q0 19 -12 27.5t-24 3.5l12 57q9 4 27 6t35.5 -4t31 -23.5t13.5 -53.5l-1 -235q44 -45 80.5 -59.5t63 -10.5t41.5 21.5t15 37.5 v321h83v-326z" />
<glyph unicode="&#xe22;" horiz-adv-x="456" d="M408 145q0 -49 -27.5 -82.5t-69.5 -50.5t-90 -18t-90 15t-69.5 48t-27.5 82q0 47 20.5 72.5t50.5 31.5v5q-30 5 -49.5 29.5t-19.5 71.5q0 42 31 71.5t88 29.5q9 0 19 -2.5t17 -6.5l11 -54q-12 2 -26 1t-26 -7t-19.5 -17.5t-7.5 -31.5q1 -28 19 -42t54 -20l5 -36 q-38 -10 -58 -33.5t-19 -50.5q0 -30 15.5 -51t37.5 -31.5t48 -11t48.5 9.5t37 31t14.5 54v292h83v-298z" />
<glyph unicode="&#xe23;" horiz-adv-x="400" d="M371 125q0 -52 -33 -83.5t-84.5 -43t-113 -1.5t-118.5 40l24 72q39 -22 81.5 -32.5t78 -9t58.5 15.5t23 41q0 24 -18 38.5t-45.5 24.5t-59.5 19.5t-59.5 24t-45.5 37.5t-18 60q0 45 26 74.5t70 41t101.5 3.5t119.5 -38l-18 -64q-36 18 -73.5 28.5t-69 10t-51.5 -13.5 t-20 -41q0 -17 18 -26.5t46 -18.5l58 -19q32 -10 59.5 -27.5t45.5 -44t18 -68.5z" />
<glyph unicode="&#xe24;" horiz-adv-x="466" d="M335 -160v462q0 23 -12 40.5t-31.5 28.5t-43.5 15t-48 0t-46 -17t-37 -35q16 -11 19.5 -26.5t3.5 -22.5v-198q0 -19 12 -27.5t24 -3.5l-12 -57q-9 -4 -27 -6t-35.5 4t-31 23.5t-13.5 53.5v183q0 23 -2 37.5t-6 24t-10 15.5t-13 12q22 39 59.5 62.5t81 33.5t88.5 5.5 t81 -21.5t59 -46.5t23 -70.5v-469h-83z" />
<glyph unicode="&#xe25;" horiz-adv-x="466" d="M335 0v218q-102 4 -155.5 -20t-47.5 -82q2 -18 12.5 -28.5t24.5 -15.5t28.5 -5t25.5 3l-13 -67q-26 -12 -55 -9t-54 18t-41.5 41.5t-17.5 61.5q-2 51 21 83.5t63.5 50t94.5 22.5t115 2l-1 9q1 46 -24.5 70t-66.5 28.5t-93 -9t-104 -43.5l-15 67q66 38 134.5 49.5 t124.5 -1t91.5 -49.5t35.5 -96v-298h-83z" />
<glyph unicode="&#xe26;" horiz-adv-x="466" d="M335 -160v462q0 23 -12 40.5t-31.5 28.5t-43.5 15t-48 0t-46 -17t-37 -35q16 -11 19.5 -26.5t3.5 -22.5v-211q0 -36 -13.5 -53.5t-31 -23.5t-35.5 -4t-27 6l-12 57q12 -5 24 3.5t12 27.5v170q0 23 -2 37.5t-6 24t-10 15.5t-13 12q22 39 59.5 62.5t81 33.5t88.5 5.5 t81 -21.5t59 -46.5t23 -70.5v-469h-83z" />
<glyph unicode="&#xe27;" horiz-adv-x="387" d="M367 215q0 -76 -35 -127.5t-88.5 -75t-116.5 -16.5t-120 48l34 58q43 -30 86.5 -34.5t78.5 12t57 52t22 85.5q0 63 -25 100.5t-62.5 52.5t-80 8t-77.5 -32l-31 53q57 40 120 48.5t116 -15t87.5 -78t34.5 -139.5z" />
<glyph unicode="&#xe28;" horiz-adv-x="497" d="M366 0v281q0 27 -11 47.5t-28.5 33.5t-39.5 19t-43 6q-20 0 -44.5 -7t-46.5 -25t-36.5 -50.5t-14.5 -83.5q0 -30 6.5 -53.5t15.5 -40.5t19 -28t18 -15l26 145q4 22 15.5 35.5t27 18.5t34.5 2t39 -15l-7 -63q-11 8 -24.5 2.5t-16.5 -24.5l-30 -185q-38 -12 -74.5 0 t-65.5 42t-47 76t-18 103t17 99.5t47.5 71.5t72 43.5t89.5 14.5q33 0 63 -8t51 -20q8 11 12 31.5t3 32.5l66 -17q0 -9 -2.5 -20.5t-6.5 -23.5t-9.5 -23.5t-11.5 -19.5q15 -16 26.5 -43.5t11.5 -56.5v-282h-83z" />
<glyph unicode="&#xe29;" horiz-adv-x="468" d="M460 277q-23 -11 -42 -18v-117q0 -49 -27 -82t-68 -49.5t-88.5 -16.5t-88 16.5t-67.5 49t-27 81.5l1 214q0 19 -12 27.5t-24 3.5l12 57q9 4 27 6t35.5 -4t31 -23.5t13.5 -53.5l-1 -223q0 -30 14.5 -50.5t37 -30.5t48.5 -10t48 10t37 30.5t15 50.5v90q-64 -10 -91.5 9.5 t-27.5 55.5l76 32l2 -14q1 -6 5.5 -11t12.5 -8t23 -2v146h83v-123l16 6l18 8z" />
<glyph unicode="&#xe2a;" horiz-adv-x="460" d="M416 469q0 -17 -10.5 -41.5t-24.5 -38.5q32 -38 32 -101v-288h-83v218q-106 3 -156.5 -20.5t-46.5 -81.5q1 -17 11.5 -27.5t24.5 -15.5t29 -6t26 2l-13 -66q-27 -12 -56 -8.5t-53.5 19t-41 42t-17.5 61.5q-2 52 22.5 84t66 49t95 21.5t109.5 2.5v8q0 47 -26.5 71t-68 28 t-93 -10t-100.5 -44l-15 67q37 22 78 36t81 18.5t77.5 -0.5t67.5 -20q8 11 14 28t5 30z" />
<glyph unicode="&#xe2b;" horiz-adv-x="466" d="M423 443q2 -41 -14 -74.5t-58 -65.5q14 -5 26.5 -15.5t21.5 -25t14 -31.5t5 -35v-196h-83v201q0 22 -11 43.5t-35 26.5q-14 -7 -34 -13.5t-42 -12t-43 -10t-35 -6.5v-229h-83v355q0 19 -12 27.5t-24 3.5l12 57q9 4 27 6t35.5 -4t31 -23.5t13.5 -53.5v-79q57 11 96 26 t63 34t35 42t11 52h83z" />
<glyph unicode="&#xe2c;" horiz-adv-x="593" d="M545 146q0 -45 -14.5 -76.5t-37 -50t-50.5 -24t-55.5 1t-51.5 25t-38 48.5q-14 -30 -38 -48.5t-51.5 -25t-55.5 -1t-50.5 24t-37 50t-13.5 76.5l2 209q0 19 -12 27.5t-24 3.5l12 57q9 4 27 6t36 -4t31 -23.5t13 -53.5l-2 -229q0 -38 17.5 -55t44.5 -17q32 0 47.5 24 t15.5 63v186h77v-186q0 -39 15.5 -63t47.5 -24q27 0 44.5 17t17.5 55v209q0 15 -7 26t-17.5 18t-23 10t-24.5 3l8 37q6 3 14 4.5t16 2.5q12 3 23 12.5t11 22.5v93h83v-79q0 -29 -15 -47.5t-36 -20.5v-4q22 -11 36.5 -28t14.5 -49v-203z" />
<glyph unicode="&#xe2d;" horiz-adv-x="466" d="M232 -7q-69 0 -113.5 24.5t-66.5 61t-23.5 77.5t16.5 74t54.5 51t88.5 8l5 -64q-27 4 -44 -6.5t-24 -28.5t-4 -40.5t16 -42t37 -33t58 -13.5q43 0 72 23t43.5 58t14.5 76t-15 76.5t-46 60t-77 26.5q-36 2 -87 -10.5t-98 -47.5l-20 67q27 21 57 33t57.5 18t51.5 7.5 t41 1.5q73 0 122 -34.5t74 -85t25.5 -109.5t-23 -110t-72 -84.5t-120.5 -33.5z" />
<glyph unicode="&#xe2e;" horiz-adv-x="466" d="M459 407q-31 -26 -65 -32q27 -33 40.5 -73.5t13.5 -83t-13.5 -83t-40.5 -72t-67.5 -51t-94.5 -19.5q-69 0 -113.5 24.5t-66.5 61t-23.5 77.5t16.5 74t54.5 51t88.5 8l5 -64q-27 4 -44 -6.5t-24 -28.5t-4 -40.5t16 -42t37 -33t58 -13.5q43 0 72 23t43.5 58t14.5 76 t-15 76.5t-46 60t-77 26.5q-36 2 -87 -10.5t-98 -47.5l-20 67q27 21 57 33t57.5 18t51.5 7.5t41 1.5q55 0 99 -22q19 -3 37.5 -0.5t34.5 7.5t28 11t17 10z" />
<glyph unicode="&#xe2f;" horiz-adv-x="336" d="M290 98q0 -27 -6 -47.5t-14 -34.5t-17.5 -22t-15.5 -12l-66 35q11 10 23.5 28.5t12.5 43.5v269q-23 -23 -52.5 -27.5t-55.5 6t-43.5 34.5t-16.5 57l88 22v-18q0 -17 12 -29.5t29 -12.5q14 0 25 8t16 21q4 13 14.5 22t24.5 9q17 0 29.5 -12.5t12.5 -29.5v-310z" />
<glyph unicode="&#xe30;" horiz-adv-x="220" d="M217 341q-63 -36 -106 -44.5t-67.5 1t-31.5 33.5t3 53l74 13q-4 -12 0.5 -21t18.5 -10.5t36.5 5t54.5 25.5zM217 91q-63 -36 -106 -44.5t-67.5 1t-31.5 33.5t3 53l74 13q-4 -12 0.5 -21t18.5 -10.5t36.5 5t54.5 25.5z" />
<glyph unicode="&#xe31;" d="M42 595q-21 -19 -55 -35t-72 -25.5t-75 -11.5t-63.5 8.5t-37.5 33.5t3 64l81 16q-10 -30 9 -41t51.5 -8.5t70.5 16.5t67 33z" />
<glyph unicode="&#xe32;" horiz-adv-x="296" d="M165 0v321q0 21 -7.5 37.5t-25.5 24t-48 5.5t-76 -18l-15 52q42 18 87.5 25t82.5 -1.5t61 -34t24 -71.5v-340h-83z" />
<glyph unicode="&#xe33;" horiz-adv-x="296" d="M-11 595q0 -32 -23.5 -51.5t-59.5 -19.5t-60 19.5t-24 51.5q0 34 23.5 52t60.5 18t60 -18.5t23 -51.5zM-62 597q0 13 -11 19t-22 6t-21.5 -6t-10.5 -19q0 -14 10 -20.5t22 -6.5q11 0 22 6.5t11 20.5zM165 0v321q0 21 -7.5 37.5t-25.5 24t-48 5.5t-76 -18l-15 52 q42 18 87.5 25t82.5 -1.5t61 -34t24 -71.5v-340h-83z" />
<glyph unicode="&#xe34;" d="M-48 519q-43 7 -92 11.5t-99.5 5t-98.5 -3.5t-88 -13l-5 64q43 9 93 14t101 5.5t101 -4.5t92 -15z" />
<glyph unicode="&#xe35;" d="M-48 521q-92 14 -191.5 14.5t-182.5 -16.5l-5 64q33 7 70.5 12t76.5 6.5t78.5 0.5t75.5 -6v67h78v-142z" />
<glyph unicode="&#xe36;" d="M-34 592q-1 -13 -6.5 -25.5t-16 -22t-25.5 -15t-36 -4.5q-2 0 -7.5 0.5t-7.5 1.5q-30 5 -65 8t-72 3t-74.5 -3t-72.5 -10l-5 62q24 4 52.5 7t58.5 3.5t59 0t52 -3.5q-5 30 18.5 50.5t66.5 20.5q36 0 59.5 -20.5t21.5 -52.5zM-86 596q0 10 -8 17.5t-23 7.5q-17 0 -24.5 -7 t-7.5 -18q0 -25 32 -25q14 0 22.5 7t8.5 18z" />
<glyph unicode="&#xe37;" d="M-48 521q-49 7 -99 10.5t-98 3t-93 -4t-84 -9.5l-5 64q53 11 110.5 15.5t104.5 0.5v62h61v-66l42 -4v70h61v-142z" />
<glyph unicode="&#xe38;" d="M-131 -181v63q0 11 -5.5 16.5t-12.5 7.5q-8 3 -17 2l11 52q5 4 22.5 7.5t36 -1.5t33.5 -21.5t15 -50.5v-75h-83z" />
<glyph unicode="&#xe39;" d="M-48 -103q0 -30 -15.5 -47.5t-37 -26t-43.5 -11t-35 -2.5t-35 1.5t-43.5 8t-37 20.5t-15.5 38v4q0 11 -5.5 16.5t-12.5 7.5q-8 3 -17 2l11 52q12 2 30 4.5t35.5 -0.5t29.5 -14t12 -36v-25q0 -11 10 -22.5t38 -11.5t38 11.5t10 22.5v73h83v-65z" />
<glyph unicode="&#xe3a;" d="M-40 -82q0 -20 -14.5 -34.5t-34.5 -14.5t-34.5 14.5t-14.5 34.5t14.5 34.5t34.5 14.5t34.5 -14.5t14.5 -34.5z" />
<glyph unicode="&#xe3e;" />
<glyph unicode="&#xe3f;" horiz-adv-x="466" d="M316 403q0 45 -40.5 63.5t-140.5 10.5q2 -10 2 -13v-128v-8q0 -4 -2 -9q5 1 8.5 1.5t7.5 0.5h88q11 0 24.5 5t25 15.5t19.5 25.5t8 36zM353 159q0 17 -8 33.5t-24 29t-40 20.5t-56 8h-74q-10 0 -15 1q0 -4 0.5 -7t0.5 -8v-148q0 -5 -0.5 -8t-1.5 -8q12 -1 29 -1.5 t33 -1.5q18 -1 38 -1q55 -2 86.5 22t31.5 69zM263 -64h-71l1 58l-60 2q-11 2 -27 3.5t-51 3.5v539q55 4 85.5 5.5t51.5 1.5l-1 57h72l-2 -59q64 -8 102 -41.5t38 -95.5q0 -34 -16.5 -66.5t-51.5 -51.5q24 -5 44.5 -18.5t35 -32t22 -41.5t6.5 -46q-4 -69 -45 -110t-135 -48z " />
<glyph unicode="&#xe40;" horiz-adv-x="179" d="M48 0v443h83v-443h-83z" />
<glyph unicode="&#xe41;" horiz-adv-x="334" d="M48 0v443h83v-443h-83zM203 0v443h83v-443h-83z" />
<glyph unicode="&#xe42;" horiz-adv-x="179" d="M205 664q-5 0 -11 0.5t-14 0.5t-17 -3.5t-16.5 -9.5t-12.5 -15.5t-5 -21.5q0 -18 1 -33q0 -14 0.5 -26.5t0.5 -20.5v-535h-83v536q0 10 -0.5 21.5t-0.5 22.5v24q0 34 11 58t29 38.5t40.5 21t43.5 5.5q14 -1 21 -1h10q4 0 3 -1l11 -61h-11z" />
<glyph unicode="&#xe43;" horiz-adv-x="184" d="M173 599l-12 -19q-7 -10 -13.5 -22t-11.5 -25t-5 -27v-506h-83v515q0 13 5 25.5t12 24.5t14 22t11 18q0 24 -15.5 34.5t-31.5 10.5q-15 0 -31 -10.5t-16 -33.5l-57 33q5 32 34.5 54.5t74.5 24.5q21 1 43.5 -5t40.5 -20t29.5 -37t11.5 -57z" />
<glyph unicode="&#xe44;" horiz-adv-x="179" d="M132 604q-1 -12 -1 -24v-44v-536h-83v535v21q0 12 1 26q0 15 1 33q0 12 -5 21.5t-12.5 15.5t-16.5 9.5t-17 3.5t-14.5 -0.5t-11.5 -0.5h-10l11 61q-1 1 3 1h10q7 0 21 1q21 1 43.5 -5.5t40.5 -21t29 -38.5t11 -58z" />
<glyph unicode="&#xe45;" horiz-adv-x="296" d="M165 -160v481q0 21 -7.5 37.5t-25.5 24t-48 5.5t-76 -18l-15 52q42 18 87.5 25t82.5 -1.5t61 -34t24 -71.5v-500h-83z" />
<glyph unicode="&#xe46;" horiz-adv-x="504" d="M459 -26q0 -29 -5 -49t-11.5 -34t-14 -22.5t-12.5 -12.5l-67 35q11 10 22 28.5t11 43.5v298q0 34 -26 46q-13 -17 -30 -23t-36 -6q-17 0 -35 6.5t-29 21.5q-12 -8 -14.5 -20t-2.5 -25l-87 13q-2 33 8.5 56.5t27.5 37.5t37.5 20t38.5 5q5 -16 20 -29.5t36 -13.5 q22 0 36 12t20 30q19 1 39 -4.5t36.5 -19t27 -34.5t10.5 -51v-309z" />
<glyph unicode="&#xe47;" d="M-25 724q-3 -11 -9.5 -24.5t-18 -24t-28.5 -16t-41 -2.5l-70 11q-30 4 -50 6t-33 0.5t-21 -7.5q-20 -17 -21.5 -39.5t9.5 -41.5q11 11 24.5 14.5t26 3t23.5 -4t17 -6.5q59 -26 85 -24.5t33 38.5l55 -27q-5 -29 -30 -50.5t-56 -21.5q-52 0 -110 26q-20 9 -45.5 3 t-45.5 -29q-18 7 -33 29t-21 50.5t0 59t30 54.5q21 21 49.5 26.5t59 4t59.5 -7t52 -8.5q41 -4 51 34z" />
<glyph unicode="&#xe48;" d="M-124 710v105h71v-105h-71z" />
<glyph unicode="&#xe49;" d="M44 813q-6 -17 -20.5 -36t-36.5 -35.5t-50.5 -27t-61.5 -10.5q-30 0 -53 5.5t-37 13.5q10 10 14.5 24t4 28t-6 26t-14.5 18l82 21q7 -5 12 -13.5t7.5 -19t2 -21t-4.5 -18.5q9 -1 24 2t31.5 11t32 23t25.5 38z" />
<glyph unicode="&#xe4a;" d="M46 831q0 -21 -6 -43t-17 -40t-27 -29.5t-36 -11.5h-12q-7 0 -21 2q16 20 11.5 36t-18.5 21q-17 7 -29.5 -1.5t-16.5 -18.5h-4q-4 11 -16.5 19t-29.5 -1q-8 -5 -12 -12t-4.5 -15t2.5 -15t8 -10l-62 -8q-14 23 -14 43.5t8.5 36t24 26t32.5 12.5t34 -4.5t30 -23.5 q15 21 36 26t39.5 -0.5t30 -19t5.5 -30.5l1 -1q0 -1 1 -1q4 5 6.5 14.5t3 19.5t0 19.5t-2.5 15.5z" />
<glyph unicode="&#xe4b;" d="M-49 740v-35h-71v35h-53v55h53v35h71v-35h53v-55h-53z" />
<glyph unicode="&#xe4c;" d="M6 733q-11 -20 -22 -29l-20 -16q-9 -8 -14.5 -19.5t-5.5 -37.5l-77 8q1 36 13 52.5t28 24.5l32 17q17 8 26 28z" />
<glyph unicode="&#xe4d;" d="M-11 595q0 -32 -23.5 -51.5t-59.5 -19.5t-60 19.5t-24 51.5q0 34 23.5 52t60.5 18t60 -18.5t23 -51.5zM-62 597q0 13 -11 19t-22 6t-21.5 -6t-10.5 -19q0 -14 10 -20.5t22 -6.5q11 0 22 6.5t11 20.5z" />
<glyph unicode="&#xe4e;" d="M-27 738q-9 2 -22.5 3t-26.5 -2.5t-21.5 -12.5t-8.5 -27q0 -21 15.5 -31t41.5 -15l-4 -19q-26 -5 -39.5 -14.5t-13.5 -30.5q0 -15 5.5 -23.5t14 -13t18.5 -5.5t19 0l-7 -35q-5 -2 -11.5 -4t-12.5 -2q-41 0 -62.5 21t-21.5 50q0 28 13.5 45.5t36.5 21.5q-23 4 -36.5 24 t-13.5 43q0 20 9.5 34t24.5 22.5t33.5 12t36.5 2.5q6 -1 13.5 -3.5t12.5 -4.5z" />
<glyph unicode="&#xe4f;" horiz-adv-x="562" d="M529 244q0 -51 -19.5 -96t-53 -78.5t-78.5 -53t-96 -19.5t-96 19.5t-78.5 53t-53 78.5t-19.5 96t19.5 96t53 78.5t78.5 53t96 19.5t96 -19.5t78.5 -53t53 -78.5t19.5 -96zM479 244q0 42 -15.5 78.5t-42.5 63.5t-62.5 42.5t-75.5 15.5t-75.5 -15.5t-62.5 -42.5 t-42.5 -63.5t-15.5 -78.5t15.5 -78.5t42.5 -63.5t62.5 -42.5t75.5 -15.5t75.5 15.5t62.5 42.5t42.5 63.5t15.5 78.5zM403 244q0 -25 -9.5 -47t-26 -38.5t-38.5 -26t-47 -9.5t-47 9.5t-38.5 26t-26 38.5t-9.5 47t9.5 47t26 38.5t38.5 26t47 9.5t47 -9.5t38.5 -26t26 -38.5 t9.5 -47zM352 244q0 29 -20.5 49.5t-49.5 20.5t-49.5 -20.5t-20.5 -49.5t20.5 -49.5t49.5 -20.5t49.5 20.5t20.5 49.5z" />
<glyph unicode="&#xe50;" horiz-adv-x="580" d="M291 347q-81 0 -121.5 -41t-40.5 -104q0 -69 44.5 -106.5t113.5 -37.5q75 0 119.5 35.5t44.5 101.5q0 76 -44 114t-116 38zM286 -8q-52 0 -96 14t-76 41t-50 66t-18 88q0 48 17.5 87t49.5 66.5t77.5 42.5t102.5 15q51 0 94.5 -14.5t76 -42t51 -67.5t18.5 -90 q0 -48 -18 -86t-50.5 -64.5t-78 -41t-100.5 -14.5z" />
<glyph unicode="&#xe51;" horiz-adv-x="580" d="M530 196q0 -44 -18 -81.5t-51.5 -64.5t-80.5 -42.5t-105 -15.5q-41 0 -88 8t-86 34l22 64q21 -16 41.5 -24.5t40 -12.5t37.5 -5t33 -1q39 0 70 12t52 31.5t32.5 45t11.5 52.5q0 40 -12 69t-33.5 48t-51 28t-65.5 9q-64 0 -101.5 -27.5t-37.5 -69.5q0 -37 19.5 -52.5 t45.5 -15.5q17 0 30.5 10t7.5 33l58 21q10 -19 8.5 -41.5t-14.5 -41.5t-37 -32t-60 -13q-23 0 -49 6t-48 20.5t-36.5 40t-14.5 64.5q0 36 17.5 65.5t48.5 51t73 33t91 11.5q59 0 105.5 -16t78.5 -44.5t49 -68.5t17 -88z" />
<glyph unicode="&#xe52;" horiz-adv-x="593" d="M550 207q0 -62 -14 -102t-38.5 -64t-56.5 -33.5t-68 -9.5h-148q-53 0 -87 14t-54.5 39.5t-30.5 60t-15 75.5q-5 36 -4.5 71.5t-1.5 65.5t-7.5 50t-22.5 27l30 83q56 -22 74 -84.5t15 -159.5q-2 -97 26 -139t82 -42h142q46 0 69 32.5t23 112.5q0 69 -10 106t-36 37 q-17 0 -30.5 -21t-17.5 -67h-50q-3 43 -16 65.5t-33 22.5q-14 0 -21.5 -8.5t-11.5 -20.5t-4.5 -25t-0.5 -22q0 -17 1 -33t5 -28t12 -19t22 -7q9 0 16.5 6t15.5 23l44 -28q-9 -26 -31.5 -41t-46.5 -15q-56 0 -82 40t-26 101q0 29 6 55t18 45t30.5 30t43.5 11q37 0 56.5 -19 t28.5 -42q9 23 29.5 42t58.5 19q56 0 86.5 -47t30.5 -157z" />
<glyph unicode="&#xe53;" horiz-adv-x="580" d="M538 205q0 -43 -8.5 -76.5t-23.5 -60t-34.5 -47t-41.5 -36.5l-57 30q36 29 58 77t22 111q0 45 -6.5 72t-17.5 42t-25 20t-29 5q-22 0 -37.5 -24.5t-21.5 -65.5h-61q-5 41 -21 65.5t-46 24.5q-11 0 -21.5 -6t-19 -20t-14 -38.5t-5.5 -60.5t4 -66t12 -52.5t20 -35t29 -12.5 q9 0 16.5 6t16.5 23l44 -33q-6 -21 -25 -37.5t-54 -15.5q-36 1 -63.5 17.5t-46.5 45.5t-29 69t-10 90q0 51 12 87.5t32 60.5t45.5 35t51.5 11q41 0 66.5 -20t36.5 -45q11 26 37.5 45.5t68.5 19.5q24 0 49.5 -8.5t47 -31t35.5 -62.5t14 -103z" />
<glyph unicode="&#xe54;" horiz-adv-x="580" d="M563 436q-14 -30 -42.5 -48t-63 -27.5t-72.5 -12.5t-71 -3q-86 0 -129.5 -38.5t-43.5 -110.5q0 -21 8 -44.5t24 -44.5t39.5 -35.5t54.5 -17.5q14 -2 26 -1.5t26 0.5q-34 16 -52 43t-18 64q0 24 9.5 43.5t24.5 32.5t34 20t38 7q29 0 53 -11.5t37 -41.5l-47 -27 q-8 15 -16.5 19.5t-18.5 4.5q-15 0 -28 -12.5t-13 -36.5q0 -17 9 -33.5t26.5 -29.5t42 -20.5t55.5 -6.5h17q8 0 17.5 0.5t20.5 1.5l20 -69q-55 0 -88 -0.5t-59 -2t-51.5 -2.5t-65.5 -1q-36 0 -74 12.5t-69 37.5t-50.5 63t-19.5 89q0 98 62.5 155.5t181.5 57.5q46 0 80 2 t59 10.5t43 25.5t34 46z" />
<glyph unicode="&#xe55;" horiz-adv-x="580" d="M564 439q-20 -32 -52.5 -51t-68 -28.5t-71 -12t-61.5 -2.5q-88 0 -129 -40t-41 -109q0 -21 8 -44.5t24 -44.5t39.5 -35.5t54.5 -17.5q14 -2 26 -1.5t26 0.5q-34 16 -52 43t-18 64q0 24 9.5 43.5t24.5 32.5t34 20t38 7q29 0 53 -11.5t37 -41.5l-47 -27q-8 15 -17 19.5 t-18 4.5q-16 0 -28.5 -12.5t-12.5 -36.5q0 -17 9 -33.5t26.5 -29.5t42 -20.5t55.5 -6.5h17q8 0 17.5 0.5t20.5 1.5l20 -69q-55 0 -88 -0.5t-59 -2t-51.5 -2.5t-65.5 -1q-36 0 -74 12.5t-69 37.5t-50.5 63t-19.5 89q0 46 13 80t34 58t48.5 38.5t57.5 22.5q-7 9 -8.5 19 t-1.5 19q0 16 8 29.5t21.5 23t31.5 15t37 5.5q37 0 64.5 -20.5t27.5 -52.5q0 -4 0.5 -8t-1.5 -9q26 4 45 10t34 15.5t26.5 24t22.5 34.5zM333 425q0 15 -9.5 24.5t-29.5 9.5q-21 0 -31.5 -9.5t-10.5 -24.5q0 -11 10 -19.5t33 -8.5q20 0 29 8t9 20z" />
<glyph unicode="&#xe56;" horiz-adv-x="580" d="M533 206q0 -41 -15 -79.5t-44 -68t-73.5 -47.5t-102.5 -18q-53 0 -92.5 11t-65.5 29.5t-38.5 44t-12.5 54.5q0 22 8.5 42.5t24 36t38 25t50.5 9.5q31 0 53 -12t36 -47l-46 -25q-5 14 -15 21.5t-21 7.5q-24 0 -36 -18.5t-12 -41.5q0 -27 32.5 -50.5t94.5 -23.5 q30 0 57 10.5t47 30.5t31.5 48t11.5 64q0 27 -9.5 52.5t-28 45t-47 31t-65.5 11.5q-54 0 -92.5 -18.5t-47.5 -50.5h-69q-2 37 -24 71.5t-61 50.5l55 82q31 -26 48.5 -58.5t22.5 -64.5q16 17 58.5 34.5t110.5 17.5q48 0 91 -13.5t76 -40t52.5 -65t19.5 -88.5z" />
<glyph unicode="&#xe57;" horiz-adv-x="580" d="M609 465q-20 -22 -34 -53t-23.5 -66.5t-14 -72.5t-4.5 -70q0 -41 -8.5 -73.5t-22 -59t-31 -46t-36.5 -33.5l-57 30q33 29 51.5 72t18.5 107q0 45 -7.5 72.5t-19 43t-25 21t-26.5 5.5q-22 0 -37.5 -24.5t-21.5 -65.5h-61q-5 41 -21 65.5t-46 24.5q-11 0 -21.5 -6t-19 -20 t-13.5 -38t-5 -60q0 -72 15.5 -119t47.5 -47q10 0 17.5 6t16.5 23l44 -33q-6 -21 -25 -37t-54 -16q-36 0 -63.5 16.5t-47 45.5t-29.5 69.5t-10 90.5q0 51 12.5 87.5t32.5 60.5t45 35t51 11q41 0 66.5 -20t37.5 -46q11 26 36.5 46t68.5 20q35 0 60.5 -18t37.5 -44 q2 38 9.5 72t27.5 62z" />
<glyph unicode="&#xe58;" horiz-adv-x="580" d="M559 435q-17 -42 -75 -69.5t-143 -26.5h-43q-17 0 -32.5 0.5t-19.5 0.5q-51 0 -85 -34t-34 -103q0 -68 24.5 -104t56.5 -36q28 0 46 19t23 71h63q5 -49 26.5 -69.5t53.5 -20.5q22 0 38 10t16 35t-10.5 38t-37.5 14l-15 51q31 8 56.5 3t43.5 -19.5t28 -36.5t10 -48 q0 -32 -10 -54.5t-27 -36t-40.5 -19.5t-51.5 -6q-43 0 -70 19t-39 45q-11 -26 -37.5 -45t-73.5 -19q-27 0 -55.5 11t-52 35t-38.5 63.5t-15 96.5q0 62 19 103t48.5 65t66 33.5t71.5 9.5q5 0 23 -0.5t38 -0.5q24 -1 52 -1q54 -1 91.5 21.5t57.5 64.5z" />
<glyph unicode="&#xe59;" horiz-adv-x="580" d="M581 434q-26 -38 -48 -49.5t-42 -9.5q-11 2 -28 7.5t-27 3.5q-11 -2 -18 -9.5t-10 -16.5t-2.5 -18.5t3.5 -15.5l158 -294l-73 -41l-159 291q-14 25 -34.5 43t-58.5 18q-26 0 -48.5 -10.5t-39.5 -29.5t-27 -44t-10 -55q0 -27 8.5 -51.5t24 -43t36.5 -29.5t47 -11 q10 0 20 0.5t20.5 4.5t20.5 13t19 27l62 -43q-9 -23 -21.5 -38t-29 -23.5t-38 -11.5t-48.5 -3q-46 0 -84.5 16t-66.5 44.5t-43.5 66.5t-15.5 82t15 82.5t42 67t65 45t85 16.5q23 0 51 -8t53 -28q5 23 22.5 43.5t39.5 28.5q20 7 37.5 4t37.5 -4q12 -1 21.5 6.5t15.5 42.5z " />
<glyph unicode="&#xe5a;" horiz-adv-x="496" d="M450 98q0 -27 -6 -47.5t-14 -34.5t-17.5 -22t-15.5 -12l-66 35q11 10 23.5 28.5t12.5 43.5v318q0 17 12 30t29 13t29.5 -12.5t12.5 -29.5v-310zM290 98q0 -27 -6 -47.5t-14 -34.5t-17.5 -22t-15.5 -12l-66 35q11 10 23.5 28.5t12.5 43.5v269q-23 -23 -52.5 -27.5t-55.5 6 t-43.5 34.5t-16.5 57l88 22v-18q0 -17 12 -29.5t29 -12.5q14 0 25 8t16 21q4 13 14.5 22t24.5 9q17 0 29.5 -12.5t12.5 -29.5v-310z" />
<glyph unicode="&#x2000;" horiz-adv-x="421" />
<glyph unicode="&#x2001;" horiz-adv-x="842" />
<glyph unicode="&#x2002;" horiz-adv-x="421" />
<glyph unicode="&#x2003;" horiz-adv-x="842" />
<glyph unicode="&#x2004;" horiz-adv-x="280" />
<glyph unicode="&#x2005;" horiz-adv-x="210" />
<glyph unicode="&#x2006;" horiz-adv-x="140" />
<glyph unicode="&#x2007;" horiz-adv-x="140" />
<glyph unicode="&#x2008;" horiz-adv-x="105" />
<glyph unicode="&#x2009;" horiz-adv-x="168" />
<glyph unicode="&#x200a;" horiz-adv-x="46" />
<glyph unicode="&#x2010;" horiz-adv-x="314" d="M12 217v60h290v-60h-290z" />
<glyph unicode="&#x2011;" horiz-adv-x="314" d="M12 217v60h290v-60h-290z" />
<glyph unicode="&#x202f;" horiz-adv-x="168" />
<glyph unicode="&#x205f;" horiz-adv-x="210" />
<glyph unicode="&#xf705;" d="M-252 527v115h73v-115h-73z" />
<glyph unicode="&#xf706;" d="M-105 632q-6 -17 -20.5 -36t-36.5 -35.5t-50.5 -27t-61.5 -10.5q-30 0 -53 5.5t-37 13.5q10 10 14.5 24t4 28t-6 26t-14.5 18l82 21q7 -5 12 -13.5t7.5 -19t2 -21t-4.5 -18.5q9 -1 24 2t31.5 11t32 23t25.5 38z" />
<glyph unicode="&#xf707;" d="M-136 649q0 -21 -4.5 -43t-15 -40t-27 -29.5t-39.5 -11.5h-12q-7 0 -21 2q16 20 11.5 36t-18.5 21q-17 7 -29.5 -1.5t-16.5 -18.5h-4q-4 11 -16.5 19t-29.5 -1q-8 -5 -12 -12t-4.5 -15t2.5 -15t8 -10l-62 -8q-13 23 -13.5 43.5t8 36t24 26t32.5 12.5t34 -4.5t30 -23.5 q15 21 36 26t39.5 -0.5t30 -19t5.5 -30.5l1 -1q0 -1 1 -1q4 5 6.5 14.5t3 19.5t0 19.5t-2.5 15.5z" />
<glyph unicode="&#xf708;" d="M-226 572v-45h-63v45h-66v65h66v45h63v-45h65v-65h-65z" />
<glyph unicode="&#xf709;" d="M-134 626q-11 -20 -23 -28l-23 -16q-10 -8 -16.5 -19.5t-6.5 -37.5l-76 12q1 36 12.5 52.5t27 25.5t31 17t24.5 28z" />
<glyph unicode="&#xf70a;" d="M-127 527v115h74v-115h-74z" />
<glyph unicode="&#xf70b;" d="M25 634q-6 -17 -20.5 -36t-36.5 -35.5t-50.5 -27t-61.5 -10.5q-30 0 -53 5.5t-37 13.5q10 10 14.5 24t4 28t-6 26t-14.5 18l82 21q7 -5 12 -13.5t7.5 -19t2 -21t-4.5 -18.5q9 -1 24 2t31.5 11t32 23t25.5 38z" />
<glyph unicode="&#xf70c;" d="M5 659q0 -22 -4 -46t-14.5 -43.5t-28.5 -32t-45 -12.5h-13q-7 0 -22 3q16 20 10 38t-20 23q-20 7 -32 -1.5t-15 -19.5h-4q-5 11 -15.5 18.5t-28.5 0.5q-10 -4 -15 -11.5t-6 -16t1.5 -16.5t8.5 -11l-65 -9q-22 40 -11 70.5t35.5 46t53.5 12.5t43 -30q12 19 33 26t40.5 3 t33.5 -18t14 -37l2 -2l1 -1q3 6 5 15.5t2.5 20t-0.5 20.5t-4 17z" />
<glyph unicode="&#xf70d;" d="M-55 581v-54h-75v54h-68v67h68v54h75v-54h65v-67h-65z" />
<glyph unicode="&#xf70e;" d="M6 619q-10 -19 -22.5 -27.5t-23 -16.5t-17 -19.5t-4.5 -36.5l-82 15q0 37 12.5 53.5t28.5 24.5l32 17q17 8 25 29z" />
<glyph unicode="&#xf70f;" horiz-adv-x="703" d="M656 138q0 -48 -25 -80t-62 -48t-81 -16.5t-81 15t-62 47t-25 78.5v171q0 26 -12 44t-31 27.5t-42 12t-45.5 -3t-42 -18t-30.5 -32.5q16 -11 19.5 -26.5t3.5 -22.5v-198q0 -19 12 -27.5t24 -3.5l-12 -57q-9 -4 -27 -6t-35.5 4t-31 23.5t-13.5 53.5v183q0 23 -2 37.5 t-6 24t-10 15.5t-13 12q24 39 61.5 62.5t79 33.5t84 5.5t76 -21.5t55 -46.5t21.5 -70.5v-176q0 -41 26.5 -61t58.5 -20t58.5 20t26.5 61v309h83v-305z" />
<glyph unicode="&#xf710;" d="M-123 620q-37 -41 -77.5 -63t-78 -29t-69.5 -0.5t-53 22t-27 38t8 48.5l90 18q-10 -24 -5 -37.5t20 -17.5t36.5 -0.5t44 13t43 24t33.5 31.5z" />
<glyph unicode="&#xf711;" d="M-144 595q0 -32 -23.5 -51.5t-59.5 -19.5t-60 19.5t-24 51.5q0 34 23.5 52t60.5 18t60 -18.5t23 -51.5zM-195 597q0 13 -11 19t-22 6t-21.5 -6t-10.5 -19q0 -14 10 -20.5t22 -6.5q11 0 22 6.5t11 20.5z" />
<glyph unicode="&#xf712;" d="M-142 725q-3 -11 -9.5 -22t-17 -19t-25.5 -12t-36 -1q-40 6 -64.5 9t-40 3.5t-24.5 -2t-17 -8.5q-7 -5 -11.5 -14t-6.5 -20t-0.5 -22.5t6.5 -20.5q12 11 26 14.5t26.5 2t22.5 -5.5t16 -7q37 -19 57 -18.5t28 26.5l59 -21q-11 -32 -27 -48t-37.5 -20t-47 3t-55.5 22 q-20 10 -46 3.5t-46 -29.5q-13 6 -27.5 26.5t-22 48t-3 58t29.5 55.5q20 20 44 27t49 7t50.5 -5t48.5 -8q17 -2 27.5 4.5t16.5 19.5z" />
<glyph unicode="&#xf713;" d="M-250 710v105h69v-105h-69z" />
<glyph unicode="&#xf714;" d="M-95 811q-6 -17 -20.5 -36t-36.5 -35.5t-50.5 -27t-61.5 -10.5q-30 0 -53 5.5t-37 13.5q10 10 14.5 24t4 28t-6 26t-14.5 18l82 21q7 -5 12 -13.5t7.5 -19t2 -21t-4.5 -18.5q9 -1 24 2t31.5 11t32 23t25.5 38z" />
<glyph unicode="&#xf715;" d="M-106 833q0 -21 -5 -43t-15.5 -40t-26.5 -29.5t-39 -11.5h-12q-7 0 -21 2q16 20 11.5 36t-18.5 21q-17 7 -29.5 -1.5t-16.5 -18.5h-4q-4 11 -16.5 19t-29.5 -1q-8 -5 -12 -12t-4.5 -15t2.5 -15t8 -10l-62 -8q-13 23 -13.5 43.5t8 36t24 26t32.5 12.5t34 -4.5t30 -23.5 q15 21 36 26t39.5 -0.5t30 -19t5.5 -30.5l1 -1q0 -1 1 -1q4 5 6.5 14.5t3 19.5t0 19.5t-2.5 15.5z" />
<glyph unicode="&#xf716;" d="M-163 744v-35h-77v35h-53v55h53v35h77v-35h53v-55h-53z" />
<glyph unicode="&#xf717;" d="M-118 719q-10 -19 -21.5 -27.5t-21 -16.5t-15.5 -19.5t-4 -36.5l-79 9q0 37 11.5 54t26.5 26l31 18q15 8 23 29z" />
</font>
</defs>
</svg>
